<?xml version="1.0" encoding="utf-8"?>
<!-- Generator: Adobe Illustrator 14.0.0, SVG Export Plug-In . SVG Version: 6.00 Build 43363)  -->
<!DOCTYPE svg PUBLIC "-//W3C//DTD SVG 1.1//EN" "http://www.w3.org/Graphics/SVG/1.1/DTD/svg11.dtd">
<svg version="1.1" id="Layer_1" xmlns="http://www.w3.org/2000/svg" xmlns:xlink="http://www.w3.org/1999/xlink" x="0px" y="0px"
	 width="458.667px" height="408px" viewBox="0 0 458.667 408" enable-background="new 0 0 458.667 408" xml:space="preserve">
<g>
	<defs>
		<rect id="SVGID_1_" width="458.667" height="408"/>
	</defs>
	<clipPath id="SVGID_2_">
		<use xlink:href="#SVGID_1_"  overflow="visible"/>
	</clipPath>
	<path clip-path="url(#SVGID_2_)" fill-rule="evenodd" clip-rule="evenodd" fill="#0D92D1" d="M269.664,186.551
		c0.525-0.438,1.139-0.876,1.665-1.227l1.84,4.82c0,0.088-0.087,0.175-0.263,0.263c-4.382,3.68-4.82,10.253-1.14,14.547
		c3.769,4.382,10.253,4.908,14.635,1.227c4.294-3.681,4.82-10.252,1.228-14.635c-1.928-2.191-4.469-3.33-7.098-3.593l-0.965-5.083
		c4.382,0,8.764,1.841,11.83,5.434c5.521,6.485,4.732,16.211-1.84,21.733c-6.396,5.433-16.125,4.644-21.646-1.84
		C262.389,201.799,263.178,192.072,269.664,186.551 M275.885,194.789c0.263-0.263,0.438-0.439,0.701-0.614l1.577,5.171
		c0.176,0.525,0.789,0.964,1.402,1.051c1.052,0.175,1.841-0.526,2.016-1.577c0-0.526-0.175-0.789-0.264-1.315l-1.227-4.294
		c1.227,0.088,2.366,0.614,3.243,1.49c2.103,2.103,2.103,5.346,0,7.449c-1.928,2.015-5.347,2.015-7.449,0.087
		C273.958,200.134,273.87,196.804,275.885,194.789 M251.787,124.506c0.788,0.088,1.577,0.175,2.365,0.526h0.088h0.088l0.088,0.088
		h0.087v0.087l0.175,0.088h0.176v0.088l0.087,0.087h0.088h0.089h0.087l0.088,0.088l0.088,0.175h0.175v0.088h0.087l0.088,0.087
		l0.175,0.088l0.177,0.088v0.087v0.088h0.087h0.088l0.088,0.087l0.087,0.176l0.088,0.087h0.087l0.088,0.088l0.089,0.088l0.087,0.087
		v0.088h0.088l0.088,0.088l0.087,0.087v0.088l0.088,0.087v0.088l0.175,0.088l0.088,0.175l0.087,0.088v0.087l0.089,0.088v0.088
		l0.088,0.087v0.088h0.087v0.087h0.088l0.088,0.176v0.087v0.088l0.087,0.175l0.088,0.176l0.087,0.087v0.088l0.088,0.087v0.088v0.088
		v0.087l0.089,0.088v0.088v0.087h0.087v0.175l0.088,0.176v0.175l0.088,0.088v0.087v0.088v0.175l0.087,0.088v0.087v0.088v0.088v0.175
		v0.088v0.087v0.176v0.175v0.175v0.088v0.087v0.263v0.088v0.088v0.175v0.087v0.088v0.175l-0.087,0.176v0.175v0.087l-0.088,0.088
		v0.175l-0.088,0.088v0.175l-0.087,0.088v0.088l-0.089,0.087v0.088v0.087v0.088v0.088l-0.088,0.087l-0.087,0.088v0.088v0.087
		l-0.088,0.088v0.088h-0.087v0.087v0.088v0.087h-0.088v0.088h-0.088v0.088v0.087h-0.087v0.088l-0.088,0.088v0.087h-0.089v0.088
		l-0.087,0.088v0.087h-0.088v0.088h-0.087c-1.403,1.928-3.769,3.155-6.31,2.979c-4.119-0.263-7.274-3.768-7.012-7.799
		C244.25,127.398,247.754,124.243,251.787,124.506 M169.76,180.855c5.609-2.98,12.269-2.542,17.439,0.701l-3.242,3.505
		c-3.681-1.928-8.15-2.103-12.094,0c-6.134,3.243-8.5,10.954-5.082,17.176c3.242,6.223,10.954,8.501,17.088,5.171
		c5.521-2.893,7.975-9.289,6.135-14.986l4.031-2.629c3.242,8.15,0,17.527-7.975,21.734c-8.413,4.557-18.929,1.313-23.486-7.099
		C158.017,196.015,161.26,185.412,169.76,180.855 M175.018,190.933c1.315-0.789,2.717-0.877,4.031-0.701l-2.103,2.278
		c-3.505,3.505,0,8.15,4.294,5.521l2.717-1.753c0,2.104-1.139,4.294-3.155,5.346c-2.979,1.577-6.66,0.438-8.238-2.541
		C170.987,196.103,172.126,192.51,175.018,190.933 M242.322,124.156l2.804,0.175c-1.577,1.314-2.716,3.067-3.242,5.258l-3.067,2.892
		l-4.47-0.263l0.088-1.052C234.698,127.048,238.203,123.893,242.322,124.156 M187.813,180.942
		c-8.676-4.907-18.491-3.242-25.064,4.996c-1.84,1.752-6.046,0.964-8.588,1.226c8.15-14.021,23.837-17.351,35.492-8.237
		L187.813,180.942z M196.839,177.174c2.103,0.088,3.681,1.841,3.505,3.944c-0.087,2.015-1.84,3.593-3.943,3.505
		c-2.016-0.175-3.593-1.928-3.505-3.943C192.983,178.576,194.824,176.999,196.839,177.174 M176.42,195.051
		c0.088-0.701,0.526-1.402,1.14-1.927l14.196-15.161c6.66-6.485,15.161,2.541,6.485,8.15l-17.439,11.129
		c-0.701,0.351-1.314,0.701-2.015,0.701c0.525-0.35,0.963-0.876,0.963-1.577c0.088-1.052-0.701-1.928-1.752-2.016
		C177.384,194.35,176.859,194.613,176.42,195.051 M208.845,121.965l-24.888-3.681c-2.541-0.35-4.995-1.051-5.346,1.665
		c0.438,1.139,1.052,2.016,2.191,2.805c1.227,0.613,2.454,0.876,3.505,1.665c2.016,1.314,2.367,3.505,2.279,5.696
		c4.206,0.087,8.325-0.176,12.356-0.877h9.465c0.876,0,1.752-0.262,2.454-0.788l22.96,1.314c0.35-1.752,1.313-3.33,2.629-4.381
		l-24.539-1.49C211.211,122.841,210.072,122.14,208.845,121.965 M178.524,121.702c0,3.33,0.613,7.887,2.278,8.062
		c1.577,0.175,3.155,0.263,4.732,0.351C185.885,123.104,180.802,125.558,178.524,121.702 M196.751,179.628
		c0.702,0,1.227,0.613,1.14,1.314c0,0.701-0.701,1.227-1.315,1.227c-0.701-0.087-1.227-0.613-1.227-1.402
		C195.438,180.066,196.05,179.628,196.751,179.628 M177.999,194.964c0.701,0.087,1.227,0.613,1.227,1.402
		c-0.088,0.701-0.701,1.139-1.402,1.139c-0.702,0-1.227-0.701-1.227-1.314C176.683,195.49,177.297,194.964,177.999,194.964
		 M279.917,197.33c0.701,0.088,1.314,0.701,1.139,1.49c-0.087,0.701-0.701,1.227-1.402,1.139c-0.7-0.088-1.313-0.701-1.227-1.402
		C278.514,197.768,279.215,197.242,279.917,197.33 M251.787,125.47c3.505,0.175,6.222,3.243,6.134,6.836
		c-0.263,3.593-3.33,6.309-6.923,6.046c-3.505-0.175-6.223-3.154-6.134-6.747C245.125,128.012,248.193,125.207,251.787,125.47
		 M270.89,184.272c-1.928,1.227-3.768,2.63-5.521,4.558c-1.929,1.577-6.136,0.613-8.588,0.701
		c3.241-4.996,7.535-8.413,12.093-10.341L270.89,184.272z M283.684,182.345c-1.489-0.351-2.892-0.439-4.294-0.439l-0.876-4.469
		c4.031,0.175,7.976,1.402,11.48,3.856C287.978,182.257,287.19,182.958,283.684,182.345 M282.896,190.933
		c1.665,0.788,3.154,2.191,3.943,3.856c1.928,3.943,0.175,8.763-3.768,10.691c-3.944,1.84-8.677,0.175-10.604-3.769
		c-1.314-2.805-0.876-6.047,0.964-8.413l0.438,1.139c-1.402,2.016-1.577,4.645-0.525,6.836c1.665,3.505,5.871,4.907,9.289,3.242
		c3.505-1.577,4.995-5.784,3.33-9.289c-0.701-1.227-1.665-2.366-3.067-3.067V190.933z M257.394,102.16L257.394,102.16
		c0.264,0,0.614,0.262,0.614,0.613c0,0.263-0.351,0.526-0.614,0.526c-0.263,0-0.525-0.263-0.525-0.526
		C256.869,102.422,257.131,102.16,257.394,102.16 M254.064,100.845c1.053,0,1.929,0.789,1.929,1.928
		c0,1.052-0.876,1.928-1.929,1.928c-1.139,0-1.928-0.876-1.928-1.928C252.136,101.634,252.925,100.845,254.064,100.845
		 M266.596,95.675c4.557,2.716,4.645,12.005,0,15.423v-0.175c-0.789-1.928-1.227-4.557-1.227-7.624
		C265.37,100.319,265.807,97.69,266.596,95.675 M240.657,111.273c0.788-5.696,3.505-13.758,10.429-15.686h14.722
		c-0.789,2.016-1.227,4.732-1.227,7.712c0,3.067,0.438,5.871,1.227,7.887v0.087h-6.573l17.615,62.133l3.33,17.965l-1.227,0.35
		l1.489,5.258c-0.175-0.087-0.263-0.175-0.438-0.175c-0.701,0-1.402,0.351-1.753,0.877l-1.577-5.346l-1.49,0.438l-6.66-17.001
		l-10.691-37.683c-1.402,1.403-3.242,2.367-5.258,2.629l-50.214,41.977c0.088-0.088,0.088-0.175,0.175-0.35
		c0.526-1.49,0.351-3.068-0.438-4.47c-0.964-1.665-2.717-2.804-4.557-2.979c-0.964-0.088-1.84,0-2.629,0.175l47.761-44.956
		c0.876-4.294,4.82-7.361,9.201-7.011c0.701,0,1.227,0,1.841,0.175l-3.506-12.006H240.657z M230.753,97.778l8.413,1.577
		c0.088-0.438,0.525-0.701,0.877-0.613l3.942,0.789c-0.964,1.226-1.753,2.541-2.365,4.118l-2.366-0.438
		c-0.352-0.088-0.701-0.526-0.701-0.964l-8.325-1.577C228.387,100.319,228.825,97.427,230.753,97.778 M180.101,186.551
		c-2.278-0.613-4.732-0.351-6.923,0.876c-4.82,2.542-6.748,8.676-4.031,13.496c2.541,4.82,8.588,6.748,13.495,4.119
		c3.418-1.753,5.434-5.434,5.258-9.114l-1.226,0.789c-0.176,3.067-1.928,5.871-4.645,7.273c-4.294,2.279-9.552,0.614-11.831-3.68
		c-2.278-4.207-0.701-9.553,3.593-11.743c1.578-0.964,3.506-1.227,5.346-1.052L180.101,186.551z"/>
	<path clip-path="url(#SVGID_2_)" fill-rule="evenodd" clip-rule="evenodd" fill="#0D92D1" d="M228.563,72.452
		c37.508,0,71.51,15.16,96.135,39.785c24.625,24.626,39.873,58.628,39.873,96.135c0,37.595-15.248,71.597-39.873,96.134
		c-24.625,24.625-58.627,39.874-96.135,39.874c-37.595,0-71.509-15.249-96.134-39.874c-24.625-24.537-39.874-58.539-39.874-96.134
		c0-37.507,15.249-71.509,39.874-96.135C157.054,87.612,190.967,72.452,228.563,72.452 M354.581,217.924h-76.68
		c-5.17-0.438-10.253-2.804-13.935-7.098c-1.927-2.191-3.33-4.82-4.031-7.537c-0.438-4.031-3.855-7.186-7.974-7.186h-44.256
		c-3.768,0-7.01,2.717-7.799,6.222c-1.753,5.521-5.521,10.253-10.867,13.145c-2.453,1.315-4.995,2.104-7.536,2.454h-78.958
		c-0.176-3.155-0.351-6.31-0.351-9.552c0-34.878,14.197-66.427,37.069-89.299c22.785-22.873,54.421-36.982,89.299-36.982
		c34.879,0,66.427,14.109,89.299,36.982c22.873,22.872,37.068,54.421,37.068,89.299C354.93,211.614,354.755,214.769,354.581,217.924
		"/>
	<path clip-path="url(#SVGID_2_)" fill-rule="evenodd" clip-rule="evenodd" fill="#FFFFFF" d="M280.967,269.716
		c-0.7-0.088-1.313-0.438-1.752-0.964l-0.525-0.964v-14.636c0.525-1.139,1.227-1.752,2.103-1.84H310.5
		c1.314-0.175,2.541-0.789,3.418-1.928c0.525-0.701,0.788-1.49,0.876-2.366v-1.665c-0.088-1.139-0.612-2.19-1.49-2.979
		c-0.876-0.701-1.84-1.052-2.892-1.314h-29.62c-1.052-0.263-1.753-0.877-2.103-1.841v-1.226c0.525-1.228,1.313-1.842,2.277-1.929
		h29.008c2.979,0.263,5.521,1.402,7.624,3.593c1.052,1.402,1.753,2.979,2.103,4.732v1.314l0.176,1.14
		c-0.176,2.19-0.877,4.206-2.278,6.134c1.489,0.964,2.542,2.278,3.242,3.856c0.526,1.139,0.788,2.454,0.876,3.855v6.66
		c-0.175,1.49-1.139,2.366-2.804,2.366c-0.614-0.088-1.227-0.438-1.665-0.964l-0.614-1.14v-7.36
		c-0.175-1.141-0.612-2.104-1.401-2.893c-0.789-0.613-1.665-0.877-2.541-0.964h-1.402h-27.692v11.393
		c-0.264,0.7-0.701,1.227-1.314,1.665L280.967,269.716z M233.558,241.06l-1.489-0.701c-0.263-0.351-0.439-0.701-0.526-1.052
		c-0.088-0.35-0.088-0.876-0.088-1.313c0.526-1.141,1.315-1.666,2.279-1.929h38.559c1.314,0.263,2.104,1.14,2.19,2.716
		c-0.087,0.264-0.175,0.614-0.264,0.877c-0.175,0.263-0.35,0.613-0.612,0.877l-1.314,0.525H233.558z M233.734,269.716
		c-0.352-0.088-0.614-0.175-0.964-0.352c-0.264-0.087-0.614-0.35-0.789-0.612l-0.526-0.964v-16.476
		c0.352-1.052,1.052-1.665,2.104-1.928h35.054l1.402,0.789c0.175,0.35,0.351,0.701,0.525,1.051c0.087,0.438,0.087,0.789,0,1.402
		l-0.525,1.052c-0.352,0.175-0.613,0.351-0.789,0.438c-0.264,0.175-0.613,0.263-0.876,0.351H236.45v10.165h35.843
		c1.402,0.263,2.104,1.139,2.19,2.717c-0.264,1.314-1.051,2.104-2.366,2.366H233.734z M219.625,263.405
		c0.438-0.263,0.876-0.612,1.402-1.139c0.438-0.526,0.701-1.051,0.788-1.49l0.263-2.979c-0.087-0.614-0.263-1.052-0.526-1.49
		c-0.35-0.438-0.701-0.876-1.051-1.227c-0.701-0.526-1.402-0.876-2.191-1.14c-0.789-0.263-1.665-0.351-2.454-0.438H189.04v11.129
		h26.904c0.701-0.087,1.314-0.175,1.84-0.438C218.397,264.02,219.011,263.757,219.625,263.405 M186.411,269.716
		c-0.35-0.088-0.701-0.175-0.964-0.352c-0.263-0.087-0.526-0.35-0.876-0.612l-0.438-0.964v-17.352
		c0.35-1.14,0.876-1.753,1.752-1.841h28.832c1.315-0.35,2.191-0.701,2.717-1.227c0.438-0.525,0.701-1.14,0.876-1.752
		c0.088-0.614,0.088-1.228,0.088-1.842c-0.526-1.752-1.578-2.892-3.33-3.153h-28.92l-1.402-0.789
		c-0.263-0.264-0.438-0.701-0.526-1.053c-0.087-0.35-0.175-0.787-0.087-1.139c0.438-1.139,0.964-1.753,1.752-1.928h29.971
		c0.964,0.263,1.928,0.613,2.892,1.139c0.877,0.438,1.753,1.052,2.454,1.928c0.876,0.965,1.402,2.104,1.753,3.243
		c0.438,1.14,0.438,2.366,0.262,3.769c-0.087,0.701-0.35,1.401-0.613,2.103c-0.35,0.701-0.789,1.315-1.227,1.928
		c1.052,0.438,2.103,1.14,2.98,2.017c0.876,0.788,1.577,1.752,2.015,2.892c0.263,0.788,0.438,1.489,0.614,2.278
		c0.087,0.789,0.175,1.577,0.175,2.366c-0.088,1.401-0.351,2.804-0.964,3.943c-0.613,1.314-1.49,2.453-2.629,3.505
		c-1.227,0.876-2.541,1.49-3.856,2.017c-1.402,0.438-2.892,0.701-4.206,0.876H186.411z M145.048,269.716
		c-2.717-0.175-5.17-1.314-7.274-3.33c-1.402-1.49-2.103-3.243-2.366-5.258v-23.135c0.438-1.228,1.402-1.842,2.629-1.929
		c0.701,0.087,1.402,0.438,1.841,1.14l0.35,0.789v21.995c0,1.228,0.526,2.366,1.402,3.242c0.964,0.789,2.016,1.315,3.243,1.402
		h24.362c1.139-0.087,2.103-0.526,2.892-1.49c0.613-0.876,1.052-1.752,1.227-2.891v-21.997c0.263-0.876,0.526-1.489,1.051-1.752
		c0.439-0.264,1.052-0.438,1.753-0.438c1.315,0.175,2.016,0.964,2.279,2.366v21.47c-0.176,2.893-1.315,5.347-3.593,7.449
		c-1.665,1.402-3.593,2.191-5.784,2.366H145.048z"/>
	<path clip-path="url(#SVGID_2_)" fill-rule="evenodd" clip-rule="evenodd" fill="#1A1A1A" d="M319.439,283.913
		c0.526,0.438,0.964,1.051,1.314,1.752c0.264,0.614,0.438,1.314,0.438,2.016v3.155c-0.175,0.964-0.789,1.489-1.753,1.489h-0.087
		c-0.438,0-0.789-0.263-1.052-0.525l-0.089-0.088l-0.35-0.701v-3.505c0-0.439-0.175-0.701-0.526-1.052
		c-0.263-0.264-0.612-0.352-0.876-0.352h-13.32v4.996v0.087c-0.175,0.352-0.438,0.789-0.788,0.964l-0.088,0.089l-0.789,0.087h-0.087
		c-0.438,0-0.789-0.263-1.141-0.525v-0.088l-0.35-0.526V284l0.088-0.087c0.262-0.614,0.613-1.053,1.402-1.141h14.021
		c0.526-0.087,0.964-0.35,1.315-0.7c0.175-0.264,0.263-0.526,0.263-0.876v-0.789c0-0.351-0.263-0.701-0.526-1.052
		c-0.351-0.263-0.7-0.438-1.139-0.438h-14.021l-0.089-0.087c-0.612-0.175-0.964-0.526-1.226-1.14l-0.088-0.088v-0.789l0.088-0.087
		c0.262-0.613,0.701-1.052,1.489-1.14h13.759c1.49,0.088,2.804,0.701,3.856,1.753v0.088c0.612,0.701,0.964,1.489,1.139,2.453v0.614
		l0.088,0.612C320.228,282.16,319.965,283.124,319.439,283.913 M274.133,278.917l-0.877-0.525l-0.088-0.088
		c-0.088-0.175-0.176-0.351-0.263-0.613c-0.088-0.263-0.088-0.525-0.088-0.877l0.088-0.087c0.263-0.613,0.701-1.052,1.402-1.14
		h18.314c0.877,0.176,1.49,0.789,1.49,1.665v0.088c-0.087,0.263-0.087,0.438-0.175,0.613s-0.263,0.351-0.438,0.438v0.087
		l-0.789,0.438H274.133z M276.061,285.227v3.856h16.562h0.088c0.876,0.175,1.402,0.789,1.402,1.753
		c-0.175,0.876-0.701,1.402-1.577,1.489h-18.228h-0.088c-0.176,0-0.264-0.087-0.438-0.176c-0.263-0.087-0.438-0.175-0.613-0.35
		v-0.088l-0.351-0.526v-8.062c0.263-0.701,0.701-1.14,1.402-1.228h16.737l0.789,0.438l0.088,0.088
		c0.176,0.175,0.264,0.438,0.351,0.613c0.088,0.263,0.088,0.613,0,0.877V284l-0.351,0.701h-0.088
		c-0.175,0.176-0.263,0.176-0.438,0.263c-0.088,0.088-0.263,0.175-0.526,0.175v0.088H276.061z M254.678,278.917h-7.624v-0.087
		c-0.614-0.175-1.053-0.526-1.315-1.14v-0.088v-0.789v-0.087c0.263-0.613,0.789-1.052,1.49-1.14h18.228
		c0.965,0.176,1.402,0.789,1.49,1.665v0.088c-0.088,0.438-0.263,0.789-0.525,1.052l-0.089,0.087l-0.789,0.438h-7.624v12.269
		l-0.438,0.701h-0.088c-0.351,0.263-0.701,0.438-1.139,0.438h-0.088c-0.438,0-0.877-0.263-1.14-0.525v-0.088l-0.35-0.613V278.917z
		 M223.831,289.083h11.48c0.438,0,0.701-0.175,0.964-0.613c0.263-0.263,0.438-0.614,0.525-1.052V276.99
		c0.088-0.439,0.263-0.965,0.701-1.141c0.351-0.175,0.701-0.263,1.14-0.263c0.876,0.088,1.313,0.614,1.49,1.49v0.088v10.165
		c-0.177,1.489-0.789,2.805-1.929,3.855c-0.789,0.701-1.841,1.14-2.979,1.14h-11.392c-1.49,0-2.717-0.613-3.769-1.665
		c-0.701-0.788-1.139-1.665-1.226-2.717v-11.13v-0.087c0.35-0.701,0.876-1.052,1.665-1.14h0.087
		c0.526,0.088,0.877,0.263,1.227,0.701l0.263,0.525v10.517c0,0.525,0.175,0.877,0.438,1.227
		C222.867,288.819,223.305,288.995,223.831,289.083 M196.226,289.083h11.48c0.438,0,0.789-0.175,1.052-0.613
		c0.263-0.263,0.438-0.614,0.525-1.052V276.99c0.088-0.439,0.263-0.965,0.702-1.141c0.35-0.175,0.701-0.263,1.051-0.263
		c0.876,0.088,1.402,0.614,1.49,1.49v0.088v10.165c-0.088,1.489-0.701,2.805-1.84,3.855c-0.877,0.701-1.841,1.14-2.98,1.14h-11.392
		c-1.49,0-2.717-0.613-3.769-1.665c-0.701-0.788-1.139-1.665-1.226-2.717v-11.13v-0.087c0.262-0.701,0.876-1.052,1.665-1.14
		c0.525,0.088,0.964,0.263,1.314,0.701l0.175,0.525v10.517c0,0.525,0.176,0.877,0.614,1.227
		C195.437,288.819,195.788,288.995,196.226,289.083 M181.416,279.093l-0.614-0.176h-12.444c-0.175,0-0.35,0-0.613,0.088
		c-0.175,0.088-0.263,0.263-0.438,0.351c-0.088,0.264-0.263,0.525-0.351,0.701c-0.175,0.263-0.175,0.613-0.263,0.788v6.661
		c0.088,0.263,0.088,0.438,0.176,0.613c0.087,0.175,0.175,0.351,0.263,0.525c0.175,0.087,0.262,0.175,0.438,0.264
		c0.175,0.087,0.438,0.175,0.613,0.175h12.619l0.526-0.352c0.088-0.175,0.088-0.438,0.088-0.612c0-0.438,0.175-0.876,0.526-1.228
		l0.087-0.087c0.176-0.176,0.351-0.263,0.614-0.351c0.263-0.088,0.526-0.088,0.876-0.088l0.088,0.088
		c0.175,0.088,0.35,0.175,0.526,0.351c0.175,0.087,0.35,0.262,0.438,0.525h0.087l0.088,1.052v0.088
		c-0.088,0.525-0.175,1.051-0.438,1.577c-0.175,0.613-0.614,1.052-1.139,1.49c-0.351,0.263-0.702,0.438-1.14,0.612
		c-0.35,0.089-0.788,0.176-1.227,0.176h-12.531c-0.701,0-1.227-0.176-1.841-0.351c-0.613-0.263-1.139-0.614-1.752-1.139
		c-0.263-0.438-0.526-0.789-0.701-1.228c-0.263-0.525-0.438-0.877-0.438-1.401v-0.088v-7.712c0.087-0.613,0.262-1.314,0.525-1.929
		c0.263-0.525,0.614-1.139,1.227-1.665c0.351-0.35,0.877-0.7,1.315-0.876c0.613-0.175,1.139-0.263,1.752-0.351h12.444
		c0.614,0.088,1.227,0.263,1.753,0.438c0.614,0.176,1.052,0.613,1.578,1.14c0.262,0.438,0.525,0.964,0.701,1.49
		c0.087,0.524,0.175,1.051,0.087,1.576v0.176h-0.087c0,0.263-0.176,0.438-0.351,0.613c-0.088,0.176-0.35,0.351-0.613,0.438
		l-0.964,0.175l-0.701-0.526l-0.088-0.087c-0.351-0.351-0.526-0.789-0.438-1.314C181.679,279.442,181.591,279.268,181.416,279.093
		 M139.965,289.083h12.269c0.613-0.088,0.964-0.352,1.314-0.789c0.263-0.175,0.263-0.438,0.351-0.788l0.087-0.789
		c-0.087-0.526-0.35-0.789-0.613-1.052c-0.351-0.264-0.701-0.438-1.052-0.438h-11.392c-1.577-0.175-2.892-0.789-3.944-1.84v-0.088
		h-0.087c-0.438-0.613-0.789-1.314-0.964-2.103v-0.089v-1.488c0.175-1.141,0.789-2.017,1.577-2.806h0.088
		c0.964-0.788,2.103-1.139,3.33-1.227h12.093c1.14,0.088,2.191,0.526,3.068,1.403c0.788,0.787,1.139,1.927,1.139,3.066
		c-0.088,0.438-0.351,0.876-0.701,1.14c-0.351,0.263-0.877,0.438-1.315,0.35h-0.087c-0.439-0.175-0.789-0.525-0.964-0.876
		c-0.176-0.438-0.263-0.789-0.263-1.228c-0.088-0.35-0.526-0.525-0.877-0.525h-12.181c-0.525,0-0.964,0.176-1.402,0.614
		c-0.175,0.35-0.263,0.7-0.263,1.052c0,0.35,0.176,0.613,0.351,0.788c0.438,0.263,0.789,0.438,1.314,0.525h11.48
		c1.49,0.088,2.717,0.789,3.769,1.84v0.089c0.701,0.876,1.051,1.84,1.139,2.979v0.701c-0.088,1.489-0.701,2.629-1.753,3.68
		c-1.051,0.701-2.103,1.14-3.33,1.14h-12.269c-1.227,0-2.191-0.525-2.979-1.489c-0.526-0.701-0.789-1.402-0.964-2.279v-0.876
		l0.087-0.175c0.088-0.263,0.351-0.701,0.702-0.877c0.35-0.263,0.788-0.263,1.139-0.263h0.087c0.701,0.263,1.227,0.613,1.227,1.402
		c0,0.351,0,0.613,0.176,0.876C139.527,288.908,139.79,288.995,139.965,289.083"/>
</g>
</svg>
