<?xml version="1.0" encoding="utf-8"?>
<!-- Generator: Adobe Illustrator 14.0.0, SVG Export Plug-In . SVG Version: 6.00 Build 43363)  -->
<!DOCTYPE svg PUBLIC "-//W3C//DTD SVG 1.1//EN" "http://www.w3.org/Graphics/SVG/1.1/DTD/svg11.dtd">
<svg version="1.1" id="Layer_1" xmlns="http://www.w3.org/2000/svg" xmlns:xlink="http://www.w3.org/1999/xlink" x="0px" y="0px"
	 width="141.73px" height="141.73px" viewBox="0 0 141.73 141.73" enable-background="new 0 0 141.73 141.73" xml:space="preserve">
<g>
	<defs>
		<rect id="SVGID_1_" y="0" width="141.73" height="141.73"/>
	</defs>
	<clipPath id="SVGID_2_">
		<use xlink:href="#SVGID_1_"  overflow="visible"/>
	</clipPath>
	<path clip-path="url(#SVGID_2_)" fill-rule="evenodd" clip-rule="evenodd" fill="#00A0F0" d="M85.738,7.386
		c16.916,3.978,31.396,14.407,40.534,29.138c9.14,14.73,12.007,32.363,8.063,49.243c-3.978,16.88-14.37,31.36-29.137,40.499
		c-14.729,9.139-32.327,12.042-49.208,8.064c-16.916-3.943-31.395-14.372-40.534-29.103C6.318,90.462,3.45,72.865,7.394,55.984
		c3.978-16.88,14.371-31.395,29.137-40.534C51.26,6.311,68.858,3.444,85.738,7.386"/>
	<path clip-path="url(#SVGID_2_)" fill-rule="evenodd" clip-rule="evenodd" fill="#FFFFFF" d="M107.601,55.483v30.786
		c0,3.19-2.258,7.132-5.018,8.709l-26.701,15.411c-2.759,1.613-7.274,1.613-10.035,0l-26.7-15.411
		c-2.76-1.577-5.018-5.519-5.018-8.709V55.483c0-3.226,2.258-7.132,5.018-8.745l26.7-15.411c2.76-1.577,7.276-1.577,10.035,0
		l26.701,15.411C105.343,48.351,107.601,52.257,107.601,55.483 M77.782,63.045c-1.47-0.932-1.936-2.939-0.968-4.408
		c0.932-1.47,2.938-1.9,4.408-0.968c2.724,1.756,4.945,4.157,6.486,6.989c1.577,2.831,2.366,5.985,2.366,9.209
		c0,5.091-2.007,9.965-5.627,13.585c-3.62,3.618-8.458,5.626-13.583,5.626s-9.964-2.008-13.583-5.626
		c-3.62-3.62-5.627-8.494-5.627-13.585c0-3.261,0.824-6.451,2.365-9.282c1.577-2.831,3.871-5.233,6.595-6.989
		c1.505-0.932,3.476-0.466,4.408,1.004c0.932,1.469,0.502,3.476-1.004,4.408c-1.827,1.147-3.333,2.76-4.372,4.659
		c-1.075,1.9-1.613,4.014-1.613,6.2c0,3.405,1.362,6.632,3.763,9.068c2.402,2.401,5.663,3.728,9.068,3.728
		c3.404,0,6.666-1.326,9.067-3.728c2.4-2.437,3.763-5.663,3.763-9.068c0-2.149-0.537-4.264-1.577-6.164
		C81.079,65.805,79.574,64.228,77.782,63.045 M67.675,51.863c0-1.756,1.434-3.19,3.19-3.19s3.189,1.434,3.189,3.19V75.66
		c0,1.757-1.434,3.189-3.189,3.189s-3.19-1.433-3.19-3.189V51.863z"/>
	<path clip-path="url(#SVGID_2_)" fill-rule="evenodd" clip-rule="evenodd" fill="#FFFFFF" d="M111.973,54.084v33.582
		c0,1.9-0.681,4.051-1.756,5.914s-2.616,3.548-4.266,4.479l-29.065,16.809c-1.685,0.968-3.87,1.435-6.021,1.435
		c-2.15,0-4.336-0.467-6.021-1.435L35.779,98.06c-1.649-0.932-3.19-2.58-4.265-4.479c-1.076-1.863-1.756-4.014-1.756-5.949V54.084
		c0-1.935,0.68-4.049,1.756-5.913c1.075-1.9,2.616-3.548,4.265-4.516l29.065-16.773c1.685-0.967,3.871-1.433,6.021-1.433
		c2.151,0,4.336,0.466,6.021,1.433l29.065,16.773c1.649,0.968,3.19,2.616,4.266,4.516C111.292,50.035,111.973,52.149,111.973,54.084
		 M109.822,87.666V54.084c0-1.541-0.572-3.297-1.469-4.874c-0.896-1.541-2.151-2.903-3.477-3.691L75.811,28.747
		c-1.326-0.753-3.118-1.147-4.946-1.147c-1.827,0-3.619,0.394-4.945,1.147L36.854,45.52c-1.326,0.788-2.581,2.15-3.477,3.691
		c-0.896,1.577-1.469,3.333-1.469,4.874v33.546c0,1.576,0.573,3.332,1.469,4.873c0.896,1.577,2.151,2.939,3.477,3.692l29.066,16.81
		c1.326,0.752,3.118,1.146,4.945,1.146c1.828,0,3.62-0.394,4.946-1.146l29.066-16.773c1.325-0.789,2.581-2.151,3.477-3.729
		C109.25,90.963,109.822,89.207,109.822,87.666"/>
</g>
</svg>
