<?xml version="1.0" encoding="utf-8"?>
<!-- Generator: Adobe Illustrator 14.0.0, SVG Export Plug-In . SVG Version: 6.00 Build 43363)  -->
<!DOCTYPE svg PUBLIC "-//W3C//DTD SVG 1.1//EN" "http://www.w3.org/Graphics/SVG/1.1/DTD/svg11.dtd">
<svg version="1.1" id="Layer_1" xmlns="http://www.w3.org/2000/svg" xmlns:xlink="http://www.w3.org/1999/xlink" x="0px" y="0px"
	 width="141.73px" height="141.73px" viewBox="0 0 141.73 141.73" enable-background="new 0 0 141.73 141.73" xml:space="preserve">
<g>
	<defs>
		<rect id="SVGID_1_" y="0" width="141.73" height="141.73"/>
	</defs>
	<clipPath id="SVGID_2_">
		<use xlink:href="#SVGID_1_"  overflow="visible"/>
	</clipPath>
	<path clip-path="url(#SVGID_2_)" fill-rule="evenodd" clip-rule="evenodd" fill="#00A0F0" d="M85.765,7.394
		c16.878,3.978,31.355,14.406,40.494,29.134c9.138,14.728,12.04,32.359,8.063,49.238c-3.941,16.878-14.37,31.354-29.099,40.493
		c-14.729,9.138-32.359,12.041-49.237,8.063c-16.878-3.941-31.392-14.37-40.53-29.098C6.317,90.459,3.452,72.864,7.393,55.985
		c3.978-16.878,14.406-31.391,29.134-40.529C51.255,6.318,68.887,3.452,85.765,7.394"/>
	<path clip-path="url(#SVGID_2_)" fill-rule="evenodd" clip-rule="evenodd" fill="#FFFFFF" d="M44.196,84.152
		c2.258,1.469,5.59,2.975,6.379,1.935c0.752-0.967,1.433-1.935,2.114-2.938C48.066,79.959,47.744,84.331,44.196,84.152
		 M71.824,45.056L59.068,63.189c-0.932-0.036-1.864,0.394-2.545,1.182L44.053,79.1c-1.29,1.506-2.688,2.796-1.039,4.192
		c0.967,0.251,1.863,0.215,2.759-0.251c0.932-0.43,1.648-1.182,2.58-1.576c1.684-0.717,3.297,0.035,4.766,1.039
		c1.756-2.724,3.225-5.555,4.336-8.528l3.799-6.235c0.394-0.574,0.537-1.29,0.465-1.935L71.933,51.04
		c-0.108-0.179-0.18-0.43-0.251-0.716c-0.323-0.753-0.502-1.577-0.502-2.437C71.18,46.884,71.431,45.917,71.824,45.056"/>
	<path clip-path="url(#SVGID_2_)" fill-rule="evenodd" clip-rule="evenodd" fill="#FFFFFF" d="M88.631,46.561l1.075,1.362
		l3.799-10.679h-4.729c0.143-1.326,0.357-2.759,0.716-4.193l-4.157,4.121c-0.681,0.681-1.756,0.681-2.436,0
		c-0.646-0.68-0.646-1.755,0-2.436l11.395-11.324c0.646-0.681,1.756-0.502,2.15-0.538h8.959c-0.968,2.043-1.505,4.551-1.505,7.239
		c0,2.652,0.537,5.089,1.469,7.131h-4.802L85.083,80.676c-1.182,3.369-3.081,3.656-4.693,4.48c1.612,0.681,3.117,1.576,4.622,2.723
		c-0.932,0.86-1.827,0.682-2.4,0.395c-1.184-0.752-2.509-1.325-3.906-1.648c-0.179,0.251-0.323,0.573-0.466,0.932
		c5.447,1.361,9.496,6.344,9.389,12.22c-0.107,6.809-5.733,12.292-12.543,12.184c-6.844-0.106-12.291-5.732-12.183-12.542
		c0.071-6.844,5.697-12.327,12.542-12.22c0.179,0,0.357,0.036,0.537,0.036c0.071-0.322,0.144-0.646,0.215-0.968
		c-2.329-0.107-4.694,0.395-6.808,1.576c-0.968,0.538-2.007,1.326-2.831,2.043c-2.688,2.15-3.62,1.863-5.304,1.648
		c0.824-1.397,1.326-2.187,2.329-3.261c2.867-3.046,6.379-4.301,10.895-4.301c0.789,0,1.576,0.072,2.33,0.18l2.186-6.127
		l8.063-22.612l-2.724-3.369L58.028,92.646v-0.286c0.036-1.184-0.394-2.294-1.254-3.118c-1.075-1.039-2.58-1.434-4.014-1.184
		c-0.645,0.145-1.254,0.396-1.792,0.754L72.505,50.79l-0.035-0.072c-1.434-2.723-0.358-6.164,2.4-7.561l0.968-0.538
		c0.753-1.935,2.438-3.476,4.623-4.049c3.619-0.86,7.238,1.326,8.134,4.909C88.847,44.519,88.847,45.594,88.631,46.561
		 M106.298,23.089c3.226,2.58,3.262,10.822-0.036,13.94c-0.932-1.935-1.469-4.336-1.469-6.916
		C104.793,27.461,105.366,25.024,106.298,23.089 M76.841,91.499l-1.36,3.87c2.078,0.106,3.834,1.756,4.013,3.87
		c0.179,2.329-1.541,4.372-3.87,4.587c-2.329,0.179-4.372-1.541-4.551-3.87c-0.143-1.685,0.717-3.226,2.078-4.014l1.577-4.552
		c-2.616,0.144-5.088,1.577-6.522,3.979c-2.329,3.906-1.075,8.959,2.831,11.288c3.906,2.329,8.959,1.039,11.288-2.867
		s1.039-8.923-2.831-11.252C78.633,92.036,77.737,91.678,76.841,91.499 M70.821,94.187l0.43,1.684l-0.143,0.108
		c-0.753,0.896-1.219,2.007-1.326,3.152c-0.251,3.011,2.007,5.698,5.017,5.985c3.011,0.251,5.698-2.007,5.984-5.018
		c0.144-1.935-0.716-3.834-2.257-4.944l-0.145-0.108V93.29l0.502,0.323c2.293,1.361,3.619,3.941,3.369,6.594
		c-0.322,3.87-3.727,6.737-7.598,6.378c-3.834-0.322-6.701-3.727-6.342-7.597c0.143-1.648,0.896-3.226,2.078-4.408L70.821,94.187z
		 M74.584,98.845c0.395-0.358,1.039-0.358,1.434,0.071c0.394,0.396,0.358,1.04-0.036,1.434c-0.431,0.358-1.075,0.358-1.434-0.071
		C74.154,99.884,74.154,99.239,74.584,98.845 M80.747,39.645c2.976-0.717,6.021,1.111,6.773,4.121
		c0.753,3.01-1.111,6.056-4.085,6.773c-3.011,0.752-6.057-1.075-6.81-4.085C75.874,43.444,77.737,40.398,80.747,39.645
		 M80.892,40.362c2.651-0.645,5.303,0.931,5.947,3.583c0.646,2.616-0.967,5.268-3.583,5.913c-2.615,0.645-5.304-0.967-5.948-3.583
		C76.662,43.659,78.275,41.007,80.892,40.362 M43.156,106.908c0.538-0.108,1.04,0.215,1.183,0.716
		c0.107,0.502-0.215,1.004-0.717,1.147c-0.502,0.107-1.003-0.18-1.147-0.718C42.368,107.553,42.655,107.051,43.156,106.908
		 M53.262,91.678c0.502-0.144,1.039,0.18,1.147,0.682c0.143,0.501-0.18,1.039-0.681,1.146c-0.538,0.145-1.04-0.179-1.147-0.681
		C52.438,92.323,52.76,91.785,53.262,91.678 M42.081,107.338c-0.071-0.538,0.108-1.146,0.394-1.648l6.881-14.155
		c3.368-6.092,11.431-1.469,6.414,4.444l-10.069,11.969c-0.395,0.43-0.825,0.752-1.29,0.896c0.322-0.322,0.501-0.823,0.358-1.326
		c-0.179-0.787-0.932-1.254-1.72-1.038C42.583,106.585,42.225,106.908,42.081,107.338 M52.832,89.85
		c1.505-0.357,3.01,0.538,3.404,2.079c0.359,1.505-0.573,3.011-2.078,3.404c-1.505,0.358-3.046-0.573-3.405-2.079
		C50.395,91.749,51.291,90.244,52.832,89.85 M24.271,106.621c3.19-4.3,2.079-5.877,4.91-9.281c4.73-5.519,12.936-7.454,18.813-4.587
		l-0.717,1.469c-1.218-0.321-2.544-0.536-3.87-0.536c-5.698,0-10.571,3.367-12.829,8.17
		C28.822,105.223,26.887,105.725,24.271,106.621 M40.146,104.614c0.753-0.788,1.756-1.218,2.759-1.326l-1.003,2.079
		c-1.792,3.261,1.792,5.841,4.3,3.01l1.577-1.863c0.502,1.54,0.108,3.332-1.111,4.552c-1.792,1.791-4.694,1.826-6.486,0.034
		C38.354,109.309,38.354,106.406,40.146,104.614 M34.09,98.594c3.44-3.439,8.35-4.587,12.757-3.403l-1.612,3.261
		c-3.01-0.574-6.271,0.286-8.637,2.651c-3.726,3.763-3.691,9.818,0.072,13.546c3.727,3.727,9.783,3.69,13.51-0.072
		c3.333-3.332,3.655-8.493,1.075-12.185l2.329-2.795c4.157,5.125,3.871,12.687-0.896,17.488c-5.088,5.124-13.402,5.16-18.526,0.072
		C29.037,112.032,29.001,103.754,34.09,98.594 M43.443,99.884l-0.824,1.756l-0.215,0.036c-1.29,0.215-2.509,0.824-3.44,1.792
		c-2.401,2.4-2.401,6.378,0.035,8.815c2.437,2.4,6.415,2.4,8.816-0.036c1.541-1.577,2.15-3.834,1.612-5.949l-0.035-0.179
		l1.254-1.505l0.251,0.608c0.967,2.867,0.251,6.058-1.864,8.207c-3.082,3.082-8.134,3.117-11.216,0.036
		c-3.082-3.082-3.118-8.099-0.036-11.217c1.326-1.326,3.118-2.15,5.017-2.293L43.443,99.884z"/>
</g>
</svg>
