<?xml version="1.0" encoding="utf-8"?>
<!-- Generator: Adobe Illustrator 14.0.0, SVG Export Plug-In . SVG Version: 6.00 Build 43363)  -->
<!DOCTYPE svg PUBLIC "-//W3C//DTD SVG 1.1//EN" "http://www.w3.org/Graphics/SVG/1.1/DTD/svg11.dtd">
<svg version="1.1" id="Layer_1" xmlns="http://www.w3.org/2000/svg" xmlns:xlink="http://www.w3.org/1999/xlink" x="0px" y="0px"
	 width="141.73px" height="141.73px" viewBox="0 0 141.73 141.73" enable-background="new 0 0 141.73 141.73" xml:space="preserve">
<g>
	<defs>
		<rect id="SVGID_1_" y="0" width="141.73" height="141.73"/>
	</defs>
	<clipPath id="SVGID_2_">
		<use xlink:href="#SVGID_1_"  overflow="visible"/>
	</clipPath>
	<path clip-path="url(#SVGID_2_)" fill-rule="evenodd" clip-rule="evenodd" fill="#00A0F0" d="M85.744,7.394
		c16.878,3.978,31.393,14.406,40.53,29.134s12.004,32.359,8.063,49.238c-3.979,16.878-14.406,31.354-29.135,40.493
		c-14.729,9.138-32.323,12.041-49.238,8.063c-16.878-3.941-31.356-14.37-40.494-29.098C6.333,90.459,3.432,72.864,7.409,55.985
		c3.942-16.878,14.37-31.391,29.098-40.529C51.271,6.318,68.867,3.452,85.744,7.394"/>
	<path clip-path="url(#SVGID_2_)" fill-rule="evenodd" clip-rule="evenodd" fill="#FFFFFF" d="M77.574,93.47
		c0.608-0.323,1.397-0.358,2.043-0.072c0.573,0.251,1.075,0.753,1.29,1.362c0.251,0.608,0.215,1.326-0.108,1.935
		c-0.251,0.538-0.752,0.968-1.361,1.184c-0.537,0.179-1.146,0.179-1.685-0.072c-0.645-0.251-1.11-0.788-1.326-1.398
		c-1.325-0.034-2.615,0-3.905,0c-0.609-0.034-1.218,0.217-1.648,0.61c-1.577,1.648-3.154,3.332-4.73,5.017
		c8.17,0,16.34-0.035,24.547,0v-2.007c1.575,0.933,3.188,1.863,4.802,2.795c-1.613,0.896-3.227,1.828-4.802,2.76v-1.972H72.127
		c0.358,0.396,0.717,0.753,1.075,1.111c1.218,1.326,2.437,2.616,3.691,3.906c0.286,0.251,0.681,0.43,1.074,0.538
		c0.287,0.07,0.609,0.035,0.933,0.07h3.368v-1.611h4.802v4.802h-4.802v-1.613h-3.834c-0.646,0-1.326-0.215-1.899-0.537
		c-0.395-0.215-0.753-0.502-1.075-0.789c-1.577-1.684-3.154-3.368-4.731-5.017c-0.43-0.537-1.11-0.86-1.791-0.86h-8.744
		c-0.179,0.825-0.609,1.613-1.254,2.187s-1.505,0.932-2.365,1.004c-0.825,0.07-1.685-0.108-2.401-0.574
		c-0.753-0.43-1.326-1.111-1.649-1.935c-0.358-0.896-0.394-1.899-0.071-2.796c0.322-0.896,0.931-1.647,1.72-2.113
		c0.68-0.431,1.469-0.609,2.257-0.574c0.86,0.036,1.684,0.359,2.33,0.896c0.752,0.574,1.254,1.398,1.433,2.295
		c0.896,0.035,1.756,0,2.652,0.035c0.609,0,1.182-0.215,1.612-0.609c1.685-1.756,3.369-3.547,5.053-5.339
		c0.824-0.753,1.935-1.326,3.118-1.29c1.254,0,2.508,0,3.762,0.036C76.606,94.258,77.001,93.757,77.574,93.47"/>
	<path clip-path="url(#SVGID_2_)" fill-rule="evenodd" clip-rule="evenodd" fill="#FFFFFF" d="M29.233,85.693
		c-1.685-0.251-3.19-1.039-4.337-2.186c-0.788-0.789-1.397-1.756-1.791-2.795h-2.867V60.645h2.867
		c0.394-1.039,1.003-1.971,1.791-2.759c1.147-1.147,2.652-1.971,4.337-2.222v-2.15h83.137v2.15c1.648,0.251,3.153,1.075,4.3,2.222
		c0.789,0.752,1.434,1.72,1.828,2.759h2.974v20.068h-2.974c-0.395,1.039-1.039,2.006-1.828,2.795
		c-1.146,1.146-2.651,1.935-4.3,2.186v2.544H29.233V85.693z M31.526,82.611h78.515c1.647,0,3.152-0.645,4.264-1.756
		c1.075-1.075,1.756-2.58,1.756-4.228V64.729c0-1.648-0.681-3.153-1.756-4.228c-1.111-1.075-2.616-1.756-4.264-1.756H31.526
		c-1.648,0-3.154,0.681-4.229,1.756c-1.075,1.075-1.755,2.58-1.755,4.228v11.898c0,1.647,0.68,3.152,1.755,4.228
		C28.372,81.967,29.878,82.611,31.526,82.611"/>
	<polygon clip-path="url(#SVGID_2_)" fill-rule="evenodd" clip-rule="evenodd" fill="#FFFFFF" points="31.598,73.438 38.442,73.438 
		38.442,72.005 49.443,72.005 49.443,73.438 56.396,73.438 56.396,72.005 67.396,72.005 67.396,73.438 74.349,73.438 74.349,72.005 
		85.314,72.005 85.314,73.438 92.303,73.438 92.303,72.005 103.268,72.005 103.268,73.438 110.112,73.438 110.112,61.111 
		31.598,61.111 	"/>
	
		<rect x="57.972" y="72.757" clip-path="url(#SVGID_2_)" fill-rule="evenodd" clip-rule="evenodd" fill="#FFFFFF" width="7.848" height="1.397"/>
	
		<rect x="75.89" y="72.757" clip-path="url(#SVGID_2_)" fill-rule="evenodd" clip-rule="evenodd" fill="#FFFFFF" width="7.885" height="1.397"/>
	
		<rect x="93.843" y="72.757" clip-path="url(#SVGID_2_)" fill-rule="evenodd" clip-rule="evenodd" fill="#FFFFFF" width="7.884" height="1.397"/>
	
		<rect x="40.019" y="72.757" clip-path="url(#SVGID_2_)" fill-rule="evenodd" clip-rule="evenodd" fill="#FFFFFF" width="7.848" height="1.397"/>
</g>
</svg>
