<?xml version="1.0" encoding="utf-8"?>
<!-- Generator: Adobe Illustrator 14.0.0, SVG Export Plug-In . SVG Version: 6.00 Build 43363)  -->
<!DOCTYPE svg PUBLIC "-//W3C//DTD SVG 1.1//EN" "http://www.w3.org/Graphics/SVG/1.1/DTD/svg11.dtd">
<svg version="1.1" id="Layer_1" xmlns="http://www.w3.org/2000/svg" xmlns:xlink="http://www.w3.org/1999/xlink" x="0px" y="0px"
	 width="141.73px" height="141.73px" viewBox="0 0 141.73 141.73" enable-background="new 0 0 141.73 141.73" xml:space="preserve">
<g>
	<defs>
		<rect id="SVGID_1_" y="0" width="141.73" height="141.73"/>
	</defs>
	<clipPath id="SVGID_2_">
		<use xlink:href="#SVGID_1_"  overflow="visible"/>
	</clipPath>
	<path clip-path="url(#SVGID_2_)" fill-rule="evenodd" clip-rule="evenodd" fill="#00A0F0" d="M85.765,7.394
		c16.878,3.978,31.355,14.406,40.494,29.134c9.138,14.728,12.04,32.359,8.063,49.238c-3.941,16.878-14.37,31.354-29.099,40.493
		c-14.764,9.138-32.359,12.041-49.237,8.063c-16.878-3.941-31.392-14.37-40.53-29.098C6.317,90.459,3.452,72.864,7.393,55.985
		c3.978-16.878,14.406-31.391,29.134-40.529C51.255,6.318,68.851,3.452,85.765,7.394"/>
	<path clip-path="url(#SVGID_2_)" fill-rule="evenodd" clip-rule="evenodd" fill="#FFFFFF" d="M31.904,60.752h69.341
		c2.078,0,3.942,0.824,5.305,2.186c1.182,1.182,1.971,2.795,2.149,4.551h4.73c1.039,0,2.007,0.43,2.723,1.147
		c0.681,0.68,1.147,1.648,1.147,2.723v21.609c0,1.074-0.467,2.042-1.147,2.723c-0.716,0.717-1.684,1.146-2.723,1.146h-4.73
		c-0.179,1.757-0.968,3.368-2.149,4.552h-0.036c-1.326,1.361-3.19,2.186-5.269,2.186H31.904c-2.043,0-3.906-0.824-5.268-2.186
		c-1.362-1.362-2.186-3.226-2.186-5.269V68.206c0-2.043,0.824-3.906,2.186-5.268C27.999,61.576,29.861,60.752,31.904,60.752
		 M101.245,63.977H31.904c-1.147,0-2.222,0.466-2.974,1.218c-0.789,0.789-1.255,1.828-1.255,3.011v27.915
		c0,1.147,0.466,2.223,1.255,3.01c0.752,0.753,1.827,1.22,2.974,1.22h69.341c1.184,0,2.258-0.467,3.011-1.22v-0.035
		c0.753-0.752,1.254-1.827,1.254-2.975v-2.508h7.92c0.179,0,0.321-0.072,0.43-0.179c0.143-0.145,0.215-0.287,0.215-0.466V71.359
		c0-0.179-0.072-0.358-0.215-0.466c-0.108-0.107-0.251-0.179-0.43-0.179h-7.92v-2.508c0-1.183-0.501-2.222-1.254-3.011
		C103.503,64.443,102.429,63.977,101.245,63.977"/>
	<path clip-path="url(#SVGID_2_)" fill-rule="evenodd" clip-rule="evenodd" fill="#FFFFFF" d="M93.075,68.313h8.923v27.701h-8.923
		V68.313z M32.263,68.313h8.887v8.529h-1.326v2.725h-7.561V68.313z M41.15,87.485v8.528h-8.887V84.762h1.075v2.724H41.15z
		 M44.411,68.313h8.923v8.529h-6.666h-2.257V68.313z M53.334,87.485v8.528h-8.923v-8.528h2.257H53.334z M56.595,68.313h8.887v8.529
		h-8.887V68.313z M65.482,96.014h-8.887v-8.528h8.887V96.014z M68.743,68.313h8.923v8.529h-8.923V68.313z M77.666,96.014h-8.923
		v-8.528h8.923V96.014z M80.927,68.313h8.887v11.969l-8.887-8.923V68.313z M89.813,84.045v11.969h-8.887v-3.046L89.813,84.045z"/>
	<polygon clip-path="url(#SVGID_2_)" fill-rule="evenodd" clip-rule="evenodd" fill="#FFFFFF" points="81.142,74.62 88.667,82.146 
		81.142,89.707 81.142,85.335 48.819,85.335 48.819,78.992 81.142,78.992 	"/>
	
		<rect x="41.974" y="78.992" clip-path="url(#SVGID_2_)" fill-rule="evenodd" clip-rule="evenodd" fill="#FFFFFF" width="5.053" height="0.896"/>
	
		<rect x="31.618" y="81.716" clip-path="url(#SVGID_2_)" fill-rule="evenodd" clip-rule="evenodd" fill="#FFFFFF" width="15.409" height="0.896"/>
	
		<rect x="35.488" y="84.439" clip-path="url(#SVGID_2_)" fill-rule="evenodd" clip-rule="evenodd" fill="#FFFFFF" width="11.539" height="0.896"/>
	<path clip-path="url(#SVGID_2_)" fill-rule="evenodd" clip-rule="evenodd" fill="#FFFFFF" d="M61.755,29.898h3.512v-7.131
		c0-0.502,0.43-0.968,0.967-0.968c0.538,0,0.968,0.466,0.968,0.968v7.131h7.346v-7.131c0-0.502,0.43-0.968,0.968-0.968
		c0.537,0,0.968,0.466,0.968,0.968v7.131h3.512c1.577,0,2.903,1.326,2.903,2.903c0,1.612-1.326,2.902-2.903,2.902h-2.187v5.555
		c0,1.111-0.896,2.007-2.007,2.007h-9.89c-1.075,0-2.007-0.896-2.007-2.007v-5.555h-2.15c-1.613,0-2.903-1.29-2.903-2.902
		C58.852,31.224,60.142,29.898,61.755,29.898"/>
	
		<rect x="69.603" y="40.003" clip-path="url(#SVGID_2_)" fill-rule="evenodd" clip-rule="evenodd" fill="#FFFFFF" width="2.508" height="17.523"/>
</g>
</svg>
