<?xml version="1.0" encoding="utf-8"?>
<!-- Generator: Adobe Illustrator 14.0.0, SVG Export Plug-In . SVG Version: 6.00 Build 43363)  -->
<!DOCTYPE svg PUBLIC "-//W3C//DTD SVG 1.1//EN" "http://www.w3.org/Graphics/SVG/1.1/DTD/svg11.dtd">
<svg version="1.1" id="Layer_1" xmlns="http://www.w3.org/2000/svg" xmlns:xlink="http://www.w3.org/1999/xlink" x="0px" y="0px"
	 width="141.73px" height="141.73px" viewBox="0 0 141.73 141.73" enable-background="new 0 0 141.73 141.73" xml:space="preserve">
<g>
	<defs>
		<rect id="SVGID_1_" y="0" width="141.73" height="141.73"/>
	</defs>
	<clipPath id="SVGID_2_">
		<use xlink:href="#SVGID_1_"  overflow="visible"/>
	</clipPath>
	<path clip-path="url(#SVGID_2_)" fill-rule="evenodd" clip-rule="evenodd" fill="#00A0F0" d="M85.738,7.416
		c16.916,3.942,31.396,14.372,40.534,29.102c9.14,14.73,12.007,32.363,8.063,49.243c-3.978,16.881-14.37,31.359-29.137,40.499
		c-14.729,9.139-32.327,12.042-49.208,8.063c-16.916-3.942-31.395-14.372-40.534-29.102C6.318,90.491,3.45,72.858,7.394,55.979
		c3.978-16.881,14.371-31.396,29.137-40.535C51.26,6.304,68.858,3.438,85.738,7.416"/>
	<path clip-path="url(#SVGID_2_)" fill-rule="evenodd" clip-rule="evenodd" fill="#FFFFFF" d="M75.237,86.836l-0.753,0.645
		l-0.573-0.502V85.51l-0.179-0.323v-2.329l0.68-0.574l-0.68-0.572v-2.33l0.179-0.322v-1.47l0.573-0.466l0.753,0.646v3.942
		l-0.681,0.572l0.681,0.574V86.836z M84.019,86.836l-1.434,1.219h-4.659l-0.753-0.646l0.753-0.645h4.659l0.106,0.108V85.51
		l-0.179-0.323v-2.258h-1.685l-0.573-0.501l-0.573,0.501h-1.756l-1.435-1.218v-3.942l1.435-1.219h4.659l0.753,0.645l-0.753,0.609
		h-4.659l-0.108-0.071v1.326l0.18,0.322v2.258h1.685l0.573,0.502l0.573-0.502h1.757l1.434,1.219V86.836z M95.559,86.836
		l-0.753,0.645l-0.573-0.502V85.51l-0.179-0.323v-2.329l0.681-0.538l-0.681-0.608v-2.043l-1.864,2.545v-1.9l2.258-3.046v0.179
		l0.358-0.322l0.753,0.646v3.942l-0.681,0.572l0.681,0.574V86.836z M91.437,82.213l-1.899-2.545v2.043l-0.645,0.572l0.645,0.574
		v2.329l-0.179,0.323v1.469l-0.574,0.502l-0.752-0.645v-3.979l0.681-0.574l-0.681-0.572v-3.942l0.752-0.646l0.395,0.322v-0.179
		l2.258,3.046V82.213z M92.548,86.907h-1.505v-2.401l0.215-0.322v-1.47l0.538-0.501l0.572,0.501v1.47l0.18,0.322V86.907z
		 M104.34,81.711l-1.398,1.218h-1.756l-0.61-0.501l-0.572,0.501h-1.649v2.258l-0.215,0.323v1.469l-0.537,0.502l-0.753-0.645v-3.979
		l0.681-0.574l-0.681-0.572v-3.942l1.398-1.219h4.694l1.398,1.219V81.711z M103.049,79.059v-1.326l-0.107,0.071h-4.694l-0.108-0.071
		v1.326l0.215,0.322v2.258h1.649l0.572,0.502l0.61-0.502h1.648v-2.258L103.049,79.059z M113.155,86.836l-0.753,0.645l-0.572-0.502
		V85.51l-0.18-0.323v-2.258h-1.685l-0.573-0.501l-0.609,0.501h-1.648v2.258l-0.179,0.323v1.469l-0.574,0.502l-0.752-0.645v-3.979
		l0.681-0.574l-0.681-0.572v-3.942l0.752-0.646l0.574,0.466v1.47l0.179,0.322v2.258h1.648l0.609,0.502l0.573-0.502h1.685v-2.258
		l0.18-0.322v-1.47l0.572-0.466l0.753,0.646v3.942l-0.681,0.572l0.681,0.574V86.836z"/>
	<path clip-path="url(#SVGID_2_)" fill-rule="evenodd" clip-rule="evenodd" fill="#FFFFFF" d="M70.865,17.737
		c14.659,0,27.955,5.949,37.56,15.554c9.641,9.605,15.59,22.901,15.59,37.56c0,14.694-5.949,27.99-15.59,37.595
		c-9.605,9.605-22.901,15.556-37.56,15.556c-14.658,0-27.954-5.95-37.595-15.556c-9.605-9.604-15.555-22.9-15.555-37.595
		c0-14.659,5.95-27.955,15.555-37.56C42.911,23.687,56.207,17.737,70.865,17.737 M105.343,36.41
		c-8.817-8.816-21.002-14.3-34.478-14.3c-13.475,0-25.661,5.484-34.477,14.3c-8.817,8.817-14.264,21.002-14.264,34.442
		c0,13.475,5.447,25.661,14.264,34.477c8.816,8.817,21.002,14.266,34.477,14.266c13.476,0,25.661-5.448,34.478-14.266
		c8.815-8.815,14.264-21.002,14.264-34.477C119.606,57.412,114.158,45.227,105.343,36.41"/>
	<path clip-path="url(#SVGID_2_)" fill-rule="evenodd" clip-rule="evenodd" fill="#FFFFFF" d="M70.865,25.765
		c12.544,0,23.869,5.053,32.076,13.296c8.208,8.208,13.297,19.533,13.297,32.077c0,0.717-0.036,1.433-0.072,2.15h-4.695
		c0.036-0.717,0.036-1.433,0.036-2.15c0-11.254-4.552-21.396-11.898-28.743C92.261,35.012,82.083,30.46,70.865,30.46
		c-11.218,0-21.396,4.552-28.743,11.935c-7.347,7.347-11.899,17.489-11.899,28.743c0,8.171,2.401,15.805,6.559,22.184l-4.086,2.33
		c-4.552-7.061-7.204-15.483-7.204-24.514c0-12.544,5.089-23.869,13.297-32.077C46.996,30.818,58.321,25.765,70.865,25.765"/>
	<path clip-path="url(#SVGID_2_)" fill-rule="evenodd" clip-rule="evenodd" fill="#FFFFFF" d="M31.8,48.595L31.8,48.595
		c0.609-1.039,1.935-1.398,2.974-0.824l5.376,3.118c1.039,0.609,1.398,1.935,0.824,2.974c-0.609,1.04-1.935,1.398-2.974,0.789
		l-5.376-3.118C31.584,50.96,31.227,49.634,31.8,48.595 M48.322,32.073L48.322,32.073c1.039-0.609,2.365-0.251,2.974,0.788
		l3.082,5.376c0.61,1.04,0.251,2.402-0.788,2.975c-1.039,0.609-2.365,0.251-2.975-0.788l-3.082-5.376
		C46.924,34.008,47.282,32.682,48.322,32.073 M70.865,26.052L70.865,26.052c1.183,0,2.187,0.968,2.187,2.15v6.236
		c0,1.183-1.004,2.151-2.187,2.151s-2.187-0.968-2.187-2.151v-6.236C68.678,27.02,69.683,26.052,70.865,26.052 M93.408,32.073
		L93.408,32.073c1.039,0.609,1.397,1.935,0.788,2.975l-3.082,5.376c-0.608,1.039-1.935,1.397-2.975,0.788
		c-1.039-0.573-1.398-1.935-0.788-2.975l3.082-5.376C91.042,31.822,92.368,31.464,93.408,32.073 M109.931,48.595L109.931,48.595
		c0.572,1.039,0.215,2.365-0.825,2.939l-5.376,3.118c-1.039,0.609-2.365,0.251-2.974-0.789c-0.574-1.039-0.216-2.365,0.823-2.974
		l5.376-3.118C107.994,47.197,109.32,47.556,109.931,48.595 M40.975,88.377L40.975,88.377c0.574,1.039,0.215,2.401-0.824,2.974
		l-5.376,3.119c-1.039,0.609-2.365,0.25-2.974-0.789c-0.574-1.039-0.216-2.364,0.824-2.975L38,87.588
		C39.04,87.015,40.365,87.373,40.975,88.377 M25.778,71.138L25.778,71.138c0-1.219,0.968-2.186,2.187-2.186h6.2
		c1.183,0,2.15,0.967,2.15,2.186c0,1.183-0.967,2.15-2.15,2.15h-6.2C26.747,73.288,25.778,72.321,25.778,71.138 M105.378,71.138
		L105.378,71.138c0-1.219,1.005-2.186,2.187-2.186h6.2c1.219,0,2.187,0.967,2.187,2.186c0,1.183-0.968,2.15-2.187,2.15h-6.2
		C106.383,73.288,105.378,72.321,105.378,71.138"/>
	<path clip-path="url(#SVGID_2_)" fill-rule="evenodd" clip-rule="evenodd" fill="#FFFFFF" d="M103.443,70.959L103.443,70.959
		c0,0.358-0.431,0.645-0.896,0.645L73.23,72.213c-0.467,0.789-1.326,1.291-2.293,1.291c-1.506,0-2.688-1.184-2.688-2.688
		c0-1.47,1.218-2.652,2.688-2.652c0.967,0,1.827,0.537,2.293,1.326l29.316,0.824C103.049,70.35,103.443,70.601,103.443,70.959"/>
</g>
</svg>
