<?xml version="1.0" encoding="utf-8"?>
<!-- Generator: Adobe Illustrator 14.0.0, SVG Export Plug-In . SVG Version: 6.00 Build 43363)  -->
<!DOCTYPE svg PUBLIC "-//W3C//DTD SVG 1.1//EN" "http://www.w3.org/Graphics/SVG/1.1/DTD/svg11.dtd">
<svg version="1.1" id="Layer_1" xmlns="http://www.w3.org/2000/svg" xmlns:xlink="http://www.w3.org/1999/xlink" x="0px" y="0px"
	 width="141.73px" height="141.73px" viewBox="0 0 141.73 141.73" enable-background="new 0 0 141.73 141.73" xml:space="preserve">
<g>
	<defs>
		<rect id="SVGID_1_" y="0" width="141.73" height="141.73"/>
	</defs>
	<clipPath id="SVGID_2_">
		<use xlink:href="#SVGID_1_"  overflow="visible"/>
	</clipPath>
	<path clip-path="url(#SVGID_2_)" fill-rule="evenodd" clip-rule="evenodd" fill="#00A0F0" d="M85.744,7.394
		c16.914,3.978,31.393,14.406,40.53,29.134s12.004,32.359,8.063,49.238c-3.979,16.878-14.37,31.354-29.136,40.493
		c-14.728,9.138-32.322,12.041-49.201,8.063c-16.914-3.941-31.392-14.37-40.53-29.098C6.333,90.459,3.432,72.864,7.409,55.985
		c3.978-16.878,14.37-31.391,29.098-40.529C51.271,6.318,68.867,3.452,85.744,7.394"/>
	<path clip-path="url(#SVGID_2_)" fill-rule="evenodd" clip-rule="evenodd" fill="#FFFFFF" d="M35.503,102.823l20.641,14.44
		l-6.199,8.816c-7.992-3.011-15.194-7.741-21.107-13.762L35.503,102.823z M35.467,101.066l22.326,15.624
		c0.501,0.358,1.218,0.251,1.576-0.287c0.359-0.501,0.215-1.218-0.286-1.575l-22.29-15.59c-0.537-0.357-1.218-0.251-1.577,0.252
		C34.858,100.027,34.966,100.708,35.467,101.066 M37.546,98.128l22.289,15.624c0.502,0.358,1.219,0.251,1.577-0.25v-0.036
		c0.358-0.502,0.251-1.183-0.287-1.541L38.836,96.301c-0.502-0.359-1.219-0.251-1.577,0.286
		C36.901,97.089,37.008,97.806,37.546,98.128 M39.588,95.226l22.29,15.588c0.537,0.358,1.218,0.251,1.577-0.251
		c0.358-0.537,0.25-1.218-0.251-1.577L40.878,93.361c-0.501-0.357-1.218-0.251-1.576,0.287
		C38.943,94.15,39.087,94.867,39.588,95.226 M41.631,92.287l22.325,15.624c0.502,0.358,1.219,0.215,1.577-0.286
		c0.358-0.502,0.215-1.219-0.287-1.577L42.921,90.424c-0.502-0.359-1.218-0.215-1.577,0.286
		C41.022,91.212,41.129,91.929,41.631,92.287 M43.709,89.349L66,104.973c0.502,0.358,1.218,0.215,1.577-0.287
		c0.358-0.501,0.215-1.218-0.287-1.577L45,87.484c-0.537-0.357-1.218-0.215-1.576,0.287C43.064,88.273,43.172,88.99,43.709,89.349
		 M45.752,86.41l22.289,15.624c0.538,0.358,1.219,0.215,1.577-0.286c0.359-0.502,0.251-1.22-0.251-1.577L47.042,84.547
		c-0.502-0.323-1.218-0.215-1.577,0.287C45.107,85.335,45.25,86.052,45.752,86.41 M47.795,83.472l22.325,15.624
		c0.502,0.358,1.218,0.251,1.577-0.287c0.322-0.501,0.215-1.218-0.287-1.577L49.085,81.644c-0.502-0.357-1.219-0.251-1.577,0.251
		C47.149,82.433,47.293,83.112,47.795,83.472 M49.837,80.533l22.325,15.624c0.502,0.358,1.22,0.251,1.577-0.25v-0.036
		c0.359-0.502,0.215-1.184-0.286-1.541l-22.29-15.624c-0.537-0.359-1.218-0.251-1.577,0.286
		C49.229,79.494,49.336,80.211,49.837,80.533 M51.917,77.631l22.289,15.588c0.502,0.358,1.219,0.251,1.577-0.251
		c0.358-0.537,0.251-1.218-0.287-1.577L53.207,75.767c-0.502-0.357-1.219-0.251-1.577,0.287
		C51.271,76.556,51.378,77.271,51.917,77.631 M53.958,74.691l22.29,15.624c0.537,0.359,1.219,0.216,1.576-0.286
		c0.359-0.502,0.251-1.219-0.25-1.576L55.249,72.829c-0.501-0.359-1.218-0.216-1.576,0.286
		C53.313,73.617,53.458,74.334,53.958,74.691 M56.001,71.754l22.325,15.624c0.502,0.357,1.219,0.215,1.577-0.287
		s0.215-1.218-0.287-1.577L57.292,69.89c-0.502-0.358-1.219-0.215-1.577,0.287C55.393,70.679,55.5,71.395,56.001,71.754
		 M58.08,68.815l22.29,15.624c0.501,0.359,1.218,0.215,1.576-0.286c0.359-0.502,0.216-1.219-0.286-1.576L59.37,66.952
		c-0.537-0.323-1.218-0.215-1.576,0.286C57.435,67.74,57.542,68.457,58.08,68.815 M101.298,49.285
		c2.938-0.86,5.626-2.652,7.524-5.339c4.336-6.2,2.831-14.765-3.369-19.101c-6.199-4.336-14.728-2.831-19.063,3.369
		c-1.899,2.688-2.688,5.841-2.438,8.887l-7.31,3.189l9.711,6.809l5.231,3.655l9.21,6.451L101.298,49.285z M93.879,41.401
		c2.938,2.079,6.988,1.362,9.066-1.576c2.078-2.975,1.362-7.024-1.613-9.103c-2.938-2.042-6.987-1.326-9.065,1.613
		C90.188,35.273,90.904,39.359,93.879,41.401 M59.227,65.16l24.152,16.915l16.521-23.58L75.746,41.616L59.227,65.16z"/>
</g>
</svg>
