<?xml version="1.0" encoding="utf-8"?>
<!-- Generator: Adobe Illustrator 14.0.0, SVG Export Plug-In . SVG Version: 6.00 Build 43363)  -->
<!DOCTYPE svg PUBLIC "-//W3C//DTD SVG 1.1//EN" "http://www.w3.org/Graphics/SVG/1.1/DTD/svg11.dtd">
<svg version="1.1" id="Layer_1" xmlns="http://www.w3.org/2000/svg" xmlns:xlink="http://www.w3.org/1999/xlink" x="0px" y="0px"
	 width="141.73px" height="141.73px" viewBox="0 0 141.73 141.73" enable-background="new 0 0 141.73 141.73" xml:space="preserve">
<g>
	<defs>
		<rect id="SVGID_1_" y="0" width="141.73" height="141.73"/>
	</defs>
	<clipPath id="SVGID_2_">
		<use xlink:href="#SVGID_1_"  overflow="visible"/>
	</clipPath>
	<path clip-path="url(#SVGID_2_)" fill-rule="evenodd" clip-rule="evenodd" fill="#00A0F0" d="M85.765,7.394
		c16.878,3.978,31.355,14.406,40.494,29.134c9.138,14.728,12.04,32.359,8.063,49.238c-3.941,16.878-14.37,31.354-29.099,40.493
		c-14.764,9.138-32.359,12.041-49.237,8.063c-16.878-3.941-31.392-14.37-40.53-29.098C6.317,90.459,3.452,72.864,7.393,55.985
		c3.978-16.878,14.406-31.391,29.134-40.529C51.255,6.318,68.851,3.452,85.765,7.394"/>
	<path clip-path="url(#SVGID_2_)" fill-rule="evenodd" clip-rule="evenodd" fill="#FFFFFF" d="M39.645,38.893l30.747,18.813
		c0.107,0.072,0.286,0.108,0.465,0.108c0.215,0,0.395-0.072,0.466-0.108l30.747-18.813c0.573-0.358,1.147-0.538,1.685-0.538
		c0.466,0,0.932,0.144,1.326,0.395c0.357,0.215,0.681,0.537,0.932,0.931c0.358,0.574,0.573,1.362,0.573,2.258v48.879
		c0,1.184-0.358,2.438-0.933,3.512c-0.572,1.111-1.396,2.114-2.329,2.652l-22.433,13.726c-0.251-0.754-0.537-1.506-0.967-2.223
		l22.146-13.546c0.537-0.322,1.075-0.967,1.47-1.72c0.394-0.752,0.608-1.612,0.608-2.401V41.938c0-0.466-0.07-0.788-0.179-1.003
		c-0.071-0.072-0.107-0.108-0.143-0.144h-0.072c-0.107,0-0.251,0.036-0.431,0.144L72.578,59.749
		c-0.431,0.251-1.076,0.466-1.721,0.466c-0.573,0-1.182-0.143-1.72-0.466L38.391,40.936c-0.144-0.108-0.287-0.144-0.43-0.144h-0.072
		c-0.036,0.036-0.072,0.072-0.107,0.144c-0.144,0.215-0.215,0.537-0.215,1.003v48.879c0,0.789,0.25,1.649,0.645,2.401
		c0.394,0.753,0.896,1.397,1.433,1.72l22.146,13.546c-0.394,0.717-0.717,1.469-0.932,2.223L38.391,96.981
		c-0.896-0.538-1.72-1.541-2.294-2.652c-0.573-1.074-0.931-2.328-0.931-3.512V41.938c0-0.896,0.215-1.684,0.573-2.258
		c0.251-0.394,0.573-0.716,0.932-0.931c0.394-0.251,0.824-0.395,1.29-0.395C38.534,38.354,39.072,38.535,39.645,38.893"/>
	<path clip-path="url(#SVGID_2_)" fill-rule="evenodd" clip-rule="evenodd" fill="#FFFFFF" d="M70.857,101.317
		c6.809,0,12.363,5.519,12.363,12.327c0,6.846-5.554,12.363-12.363,12.363S58.53,120.49,58.53,113.645
		C58.53,106.836,64.048,101.317,70.857,101.317 M70.857,103.217c5.769,0,10.464,4.694,10.464,10.428
		c0,5.771-4.695,10.464-10.464,10.464s-10.428-4.693-10.428-10.464C60.429,107.911,65.088,103.217,70.857,103.217"/>
	<path clip-path="url(#SVGID_2_)" fill-rule="evenodd" clip-rule="evenodd" fill="#FFFFFF" d="M46.095,54.445l19.96,11.718
		c0.896,0.502,1.183,1.649,0.681,2.509c-0.537,0.86-1.648,1.146-2.508,0.645L44.267,57.563c-0.86-0.502-1.182-1.613-0.645-2.473
		C44.124,54.23,45.235,53.907,46.095,54.445"/>
	<path clip-path="url(#SVGID_2_)" fill-rule="evenodd" clip-rule="evenodd" fill="#FFFFFF" d="M46.095,62.186l19.96,11.718
		c0.896,0.502,1.183,1.649,0.681,2.509c-0.537,0.86-1.648,1.146-2.508,0.646L44.267,65.304c-0.86-0.502-1.182-1.613-0.645-2.473
		C44.124,61.935,45.235,61.647,46.095,62.186"/>
	<path clip-path="url(#SVGID_2_)" fill-rule="evenodd" clip-rule="evenodd" fill="#FFFFFF" d="M46.095,69.89l19.96,11.754
		c0.896,0.502,1.183,1.612,0.681,2.508c-0.537,0.859-1.648,1.146-2.508,0.645L44.267,73.043c-0.86-0.501-1.182-1.612-0.645-2.472
		C44.124,69.675,45.235,69.388,46.095,69.89"/>
	<path clip-path="url(#SVGID_2_)" fill-rule="evenodd" clip-rule="evenodd" fill="#FFFFFF" d="M46.095,77.631l19.96,11.754
		c0.896,0.502,1.183,1.612,0.681,2.508c-0.537,0.86-1.648,1.146-2.508,0.645L44.267,80.784c-0.86-0.502-1.182-1.612-0.645-2.509
		C44.124,77.415,45.235,77.129,46.095,77.631"/>
	<path clip-path="url(#SVGID_2_)" fill-rule="evenodd" clip-rule="evenodd" fill="#FFFFFF" d="M46.095,85.371l19.96,11.754
		c0.896,0.502,1.183,1.613,0.681,2.473c-0.537,0.896-1.648,1.183-2.508,0.681L44.267,88.523c-0.86-0.501-1.182-1.611-0.645-2.508
		C44.124,85.156,45.235,84.869,46.095,85.371"/>
	<path clip-path="url(#SVGID_2_)" fill-rule="evenodd" clip-rule="evenodd" fill="#FFFFFF" d="M95.619,54.445l-19.96,11.718
		c-0.86,0.502-1.146,1.649-0.645,2.509c0.501,0.86,1.647,1.146,2.508,0.645l19.96-11.754c0.86-0.502,1.146-1.613,0.645-2.473
		C97.626,54.23,96.479,53.907,95.619,54.445"/>
	<path clip-path="url(#SVGID_2_)" fill-rule="evenodd" clip-rule="evenodd" fill="#FFFFFF" d="M95.619,62.186l-19.96,11.718
		c-0.86,0.502-1.146,1.649-0.645,2.509c0.501,0.86,1.647,1.146,2.508,0.646l19.96-11.754c0.86-0.502,1.146-1.613,0.645-2.473
		C97.626,61.935,96.479,61.647,95.619,62.186"/>
	<path clip-path="url(#SVGID_2_)" fill-rule="evenodd" clip-rule="evenodd" fill="#FFFFFF" d="M95.619,69.89l-19.96,11.754
		c-0.86,0.502-1.146,1.612-0.645,2.508c0.501,0.859,1.647,1.146,2.508,0.645l19.96-11.754c0.86-0.501,1.146-1.612,0.645-2.472
		C97.626,69.675,96.479,69.388,95.619,69.89"/>
	<path clip-path="url(#SVGID_2_)" fill-rule="evenodd" clip-rule="evenodd" fill="#FFFFFF" d="M95.619,77.631l-19.96,11.754
		c-0.86,0.502-1.146,1.612-0.645,2.508c0.501,0.86,1.647,1.146,2.508,0.645l19.96-11.753c0.86-0.502,1.146-1.612,0.645-2.509
		C97.626,77.415,96.479,77.129,95.619,77.631"/>
	<path clip-path="url(#SVGID_2_)" fill-rule="evenodd" clip-rule="evenodd" fill="#FFFFFF" d="M95.619,85.371l-19.96,11.754
		c-0.86,0.502-1.146,1.613-0.645,2.473c0.501,0.896,1.647,1.183,2.508,0.681l19.96-11.755c0.86-0.501,1.146-1.611,0.645-2.508
		C97.626,85.156,96.479,84.869,95.619,85.371"/>
	<path clip-path="url(#SVGID_2_)" fill-rule="evenodd" clip-rule="evenodd" fill="#FFFFFF" d="M70.857,55.986l30.317-18.563
		c0.395-0.25,0.824-0.43,1.29-0.573c0.395-0.143,0.86-0.179,1.29-0.179c0.395,0,0.788,0.036,1.146,0.143
		c0.358,0.108,0.717,0.251,1.04,0.466c0.321,0.179,0.608,0.394,0.859,0.645s0.466,0.538,0.682,0.86
		c0.25,0.466,0.465,0.932,0.608,1.469c0.144,0.538,0.18,1.111,0.18,1.685v48.879c0,0.716-0.072,1.469-0.287,2.149
		c-0.18,0.752-0.467,1.469-0.788,2.15c-0.358,0.681-0.824,1.361-1.326,1.935c-0.502,0.538-1.039,1.039-1.648,1.398l-22.971,14.083
		c-0.036-0.251-0.072-0.502-0.106-0.753l22.719-13.904c0.538-0.358,1.039-0.788,1.469-1.29c0.502-0.537,0.896-1.146,1.255-1.792
		c0.322-0.609,0.573-1.29,0.752-1.97c0.179-0.682,0.251-1.326,0.251-2.007V41.939c0-0.538-0.036-1.04-0.179-1.505
		c-0.108-0.466-0.287-0.896-0.538-1.291c-0.143-0.286-0.358-0.501-0.573-0.752c-0.215-0.215-0.43-0.394-0.717-0.538
		c-0.251-0.179-0.573-0.286-0.86-0.394c-0.321-0.071-0.645-0.107-0.967-0.107c-0.394,0-0.753,0.036-1.11,0.143
		c-0.395,0.143-0.754,0.287-1.111,0.502L70.857,56.774L40.182,37.997c-0.322-0.215-0.717-0.359-1.075-0.502
		c-0.358-0.107-0.753-0.143-1.147-0.143c-0.322,0-0.645,0.036-0.931,0.107c-0.323,0.108-0.61,0.215-0.896,0.394
		c-0.251,0.144-0.502,0.323-0.717,0.538c-0.215,0.251-0.394,0.466-0.573,0.752c-0.215,0.395-0.395,0.825-0.538,1.291
		c-0.107,0.465-0.179,0.967-0.179,1.505v48.879c0,0.681,0.107,1.325,0.287,2.007c0.179,0.68,0.43,1.36,0.752,1.97
		c0.323,0.646,0.753,1.255,1.219,1.792c0.43,0.502,0.931,0.932,1.469,1.29l22.755,13.904c-0.072,0.251-0.107,0.502-0.107,0.753
		L37.494,98.451c-0.573-0.359-1.146-0.86-1.612-1.398c-0.538-0.573-0.968-1.254-1.326-1.935c-0.358-0.682-0.645-1.398-0.824-2.15
		c-0.179-0.681-0.287-1.434-0.287-2.149V41.939c0-0.574,0.072-1.147,0.215-1.685c0.143-0.537,0.323-1.003,0.609-1.469
		c0.179-0.322,0.43-0.609,0.681-0.86s0.538-0.466,0.824-0.681c0.359-0.179,0.717-0.322,1.075-0.43
		c0.359-0.107,0.753-0.143,1.111-0.143c0.466,0,0.896,0.036,1.326,0.179s0.86,0.323,1.254,0.573L70.857,55.986z"/>
	<path clip-path="url(#SVGID_2_)" fill-rule="evenodd" clip-rule="evenodd" fill="#FFFFFF" d="M70.57,24.917
		c-1.792,9.389-6.343,11.539-6.594,16.807c0.072,8.171,13.08,7.92,13.152,0C76.913,36.456,72.326,34.306,70.57,24.917
		 M74.047,45.235c2.258-1.828,2.831-4.3,0.466-7.92C75.588,40.327,75.408,42.942,74.047,45.235"/>
	<path clip-path="url(#SVGID_2_)" fill-rule="evenodd" clip-rule="evenodd" fill="#FFFFFF" d="M76.447,20.115
		c-0.823,4.479-2.544,6.737-3.69,8.815c0.466,1.326,1.075,2.652,1.792,3.942c0.716,1.362,1.611,2.688,2.293,4.05
		c2.294-0.144,4.443-1.649,4.479-4.408C81.142,28.608,77.773,27.031,76.447,20.115 M79.027,35.094
		c1.685-1.326,2.114-3.153,0.358-5.841C80.175,31.475,80.03,33.41,79.027,35.094"/>
	<path clip-path="url(#SVGID_2_)" fill-rule="evenodd" clip-rule="evenodd" fill="#FFFFFF" d="M65.267,23.627
		c-1.29,6.916-4.659,8.493-4.838,12.399c0,2.078,1.183,3.404,2.688,4.049c0.107-0.537,0.251-1.039,0.466-1.576
		c0.716-1.935,2.007-3.763,3.01-5.627c0.466-0.824,0.86-1.648,1.218-2.472C66.844,28.751,65.876,26.709,65.267,23.627"/>
	<path clip-path="url(#SVGID_2_)" fill-rule="evenodd" clip-rule="evenodd" fill="#FFFFFF" d="M69.854,105.582
		c2.043,1.505,4.121,3.046,6.2,4.551c-0.072,0.071-0.18,0.144-0.251,0.215c-1.29,1.111-2.616,2.258-3.942,3.369
		c1.326,1.11,2.652,2.186,3.979,3.297c-1.971,1.576-3.979,3.153-5.949,4.729c-0.036-0.394-0.036-0.753-0.036-1.11v-1.003v-1.04
		c-0.036-0.358,0-0.681,0-1.003c-0.036-0.431,0-0.824-0.036-1.219v-0.859c-0.896,0.752-1.756,1.505-2.652,2.257
		c-0.501-0.358-1.003-0.716-1.469-1.075c1.111-1.003,2.186-2.007,3.297-2.974c-1.075-0.933-2.186-1.828-3.261-2.759
		c0.394-0.502,0.824-0.969,1.218-1.435c0.932,0.789,1.864,1.577,2.76,2.365c0.036-1.827,0.071-3.619,0.107-5.447
		C69.818,106.155,69.818,105.868,69.854,105.582 M71.824,109.13L71.824,109.13c0.036,0.717,0.072,1.397,0.107,2.078
		c0.396-0.322,0.789-0.646,1.219-1.004C72.721,109.847,72.255,109.487,71.824,109.13 M71.824,116.082L71.824,116.082
		c0.036,0.717,0.072,1.397,0.107,2.077c0.396-0.321,0.789-0.68,1.219-1.003C72.721,116.799,72.255,116.439,71.824,116.082"/>
</g>
</svg>
