<?xml version="1.0" encoding="utf-8"?>
<!-- Generator: Adobe Illustrator 14.0.0, SVG Export Plug-In . SVG Version: 6.00 Build 43363)  -->
<!DOCTYPE svg PUBLIC "-//W3C//DTD SVG 1.1//EN" "http://www.w3.org/Graphics/SVG/1.1/DTD/svg11.dtd">
<svg version="1.1" id="Layer_1" xmlns="http://www.w3.org/2000/svg" xmlns:xlink="http://www.w3.org/1999/xlink" x="0px" y="0px"
	 width="141.73px" height="141.73px" viewBox="0 0 141.73 141.73" enable-background="new 0 0 141.73 141.73" xml:space="preserve">
<g>
	<defs>
		<rect id="SVGID_1_" y="0" width="141.73" height="141.73"/>
	</defs>
	<clipPath id="SVGID_2_">
		<use xlink:href="#SVGID_1_"  overflow="visible"/>
	</clipPath>
	<path clip-path="url(#SVGID_2_)" fill-rule="evenodd" clip-rule="evenodd" fill="#00A0F0" d="M85.744,7.394
		c16.878,3.978,31.393,14.406,40.53,29.134s12.004,32.359,8.063,49.238c-3.979,16.878-14.406,31.354-29.135,40.493
		c-14.729,9.138-32.323,12.041-49.238,8.063c-16.878-3.941-31.356-14.37-40.494-29.098C6.333,90.459,3.432,72.864,7.409,55.985
		c3.942-16.878,14.37-31.391,29.098-40.529C51.271,6.318,68.867,3.452,85.744,7.394"/>
	<path clip-path="url(#SVGID_2_)" fill-rule="evenodd" clip-rule="evenodd" fill="#FFFFFF" d="M73.704,63.081
		c0.896,0.323,1.756,0.824,2.473,1.434c0.537,0.394,1.326,0.465,1.936,0.107l2.186-1.254c0.86-0.502,1.935-0.215,2.437,0.645
		s0.215,1.971-0.646,2.437l-2.186,1.254c-0.609,0.358-0.932,1.039-0.86,1.72c0.072,0.466,0.108,0.968,0.108,1.433
		c0,0.502-0.036,1.004-0.108,1.47c-0.071,0.646,0.251,1.326,0.86,1.685l2.186,1.254c0.86,0.502,1.147,1.612,0.646,2.473
		s-1.576,1.146-2.437,0.645l-2.186-1.254c-0.609-0.358-1.398-0.287-1.936,0.107c-0.717,0.609-1.577,1.075-2.473,1.433
		c-0.609,0.287-1.039,0.896-1.039,1.613v2.508c0,1.004-0.824,1.792-1.792,1.792c-1.003,0-1.792-0.788-1.792-1.792v-2.508
		c0-0.717-0.466-1.362-1.075-1.648l-0.179-0.035c-0.788-0.323-1.469-0.718-2.114-1.254v0.034c-0.574-0.537-1.398-0.645-2.115-0.25
		l-2.185,1.254c-0.825,0.501-1.936,0.216-2.437-0.645c-0.502-0.86-0.179-1.971,0.645-2.473l2.186-1.254
		c0.681-0.395,1.003-1.184,0.86-1.936c-0.072-0.394-0.108-0.789-0.108-1.219c0-0.394,0.036-0.788,0.108-1.218
		c0.143-0.717-0.179-1.505-0.86-1.935l-2.186-1.254c-0.824-0.466-1.147-1.577-0.645-2.437c0.501-0.86,1.612-1.147,2.437-0.645
		l2.185,1.254c0.681,0.394,1.541,0.251,2.115-0.251c0.645-0.501,1.326-0.896,2.114-1.218l0.143-0.072
		c0.645-0.251,1.111-0.896,1.111-1.612V58.96c0-1.003,0.789-1.792,1.792-1.792c0.968,0,1.792,0.789,1.792,1.792v2.509
		C72.665,62.185,73.095,62.794,73.704,63.081 M70.873,67.238c1.971,0,3.584,1.648,3.584,3.619c0,2.007-1.613,3.62-3.584,3.62
		c-2.007,0-3.619-1.613-3.619-3.62C67.254,68.886,68.866,67.238,70.873,67.238"/>
	<path clip-path="url(#SVGID_2_)" fill-rule="evenodd" clip-rule="evenodd" fill="#FFFFFF" d="M70.873,20.259
		c27.951,0,50.599,22.648,50.599,50.599c0,27.951-22.647,50.635-50.599,50.635c-27.952,0-50.635-22.684-50.635-50.635
		C20.238,42.907,42.921,20.259,70.873,20.259 M74.063,31.618c9.604,0.789,18.239,4.982,24.654,11.396
		c1.648,1.684,3.189,3.512,4.552,5.447c-0.251,0.036-0.467,0.108-0.682,0.143c-1.29-1.827-2.724-3.547-4.336-5.124
		c-6.236-6.271-14.657-10.392-23.974-11.216C74.205,32.048,74.134,31.833,74.063,31.618 M67.468,32.264
		c-9.353,0.824-17.738,4.945-24.009,11.216c-1.577,1.577-3.046,3.297-4.336,5.124c-0.215-0.035-0.43-0.107-0.645-0.143
		c1.326-1.935,2.867-3.763,4.551-5.447C49.443,36.6,58.08,32.407,67.648,31.618C67.576,31.833,67.504,32.048,67.468,32.264
		 M35.718,54.517c-2.329,4.981-3.619,10.5-3.619,16.341c0,5.877,1.29,11.396,3.619,16.377c-0.179,0.144-0.322,0.322-0.465,0.501
		c-2.401-5.124-3.763-10.821-3.763-16.878c0-6.02,1.362-11.754,3.763-16.843C35.396,54.194,35.539,54.374,35.718,54.517
		 M39.123,93.111c1.29,1.863,2.759,3.583,4.336,5.16c6.271,6.271,14.656,10.392,24.009,11.216c0.036,0.215,0.108,0.431,0.18,0.646
		c-9.568-0.788-18.205-4.981-24.619-11.432c-1.684-1.647-3.225-3.476-4.551-5.446C38.693,93.255,38.908,93.183,39.123,93.111
		 M106.457,54.015c2.438,5.089,3.799,10.823,3.799,16.843c0,6.057-1.361,11.754-3.799,16.878c-0.143-0.179-0.287-0.357-0.466-0.501
		c2.33-4.98,3.62-10.5,3.62-16.377c0-5.841-1.29-11.36-3.62-16.341C106.17,54.374,106.314,54.194,106.457,54.015 M103.269,93.255
		c-1.362,1.971-2.903,3.799-4.552,5.446c-6.415,6.45-15.051,10.644-24.654,11.432c0.071-0.215,0.143-0.431,0.215-0.646
		c9.316-0.824,17.737-4.944,23.974-11.216c1.612-1.577,3.046-3.297,4.336-5.16C102.802,93.183,103.018,93.255,103.269,93.255
		 M74.134,34.199c11.109,0.967,20.784,6.88,26.876,15.516c-0.502,0.609-0.823,1.362-0.823,2.222c0,1.899,1.576,3.476,3.476,3.476
		c0.215,0,0.394-0.036,0.609-0.072c2.186,4.731,3.403,9.998,3.403,15.517c0,5.554-1.218,10.822-3.403,15.518
		c-0.216,0-0.395-0.036-0.609-0.036c-1.899,0-3.476,1.541-3.476,3.476c0,0.86,0.321,1.612,0.823,2.222
		c-6.092,8.637-15.767,14.55-26.876,15.517c-0.502-1.326-1.792-2.257-3.261-2.257c-1.505,0-2.795,0.931-3.261,2.257
		c-11.109-0.967-20.82-6.88-26.877-15.517c0.502-0.609,0.789-1.361,0.789-2.222c0-1.935-1.541-3.476-3.476-3.476
		c-0.215,0-0.394,0.036-0.574,0.036c-2.221-4.695-3.44-9.964-3.44-15.518c0-5.519,1.219-10.786,3.44-15.517
		c0.18,0.036,0.359,0.072,0.574,0.072c1.935,0,3.476-1.577,3.476-3.476c0-0.86-0.287-1.613-0.789-2.222
		c6.057-8.636,15.768-14.549,26.877-15.516c0.466,1.326,1.756,2.257,3.261,2.257C72.342,36.456,73.632,35.524,74.134,34.199
		 M70.873,54.911c8.815,0,15.946,7.167,15.946,15.947c0,8.815-7.131,15.982-15.946,15.982c-8.816,0-15.947-7.167-15.947-15.982
		C54.926,62.078,62.057,54.911,70.873,54.911 M70.873,25.992c12.399,0,23.615,5.017,31.714,13.152
		c8.134,8.099,13.151,19.315,13.151,31.714c0,12.399-5.018,23.615-13.151,31.75c-8.099,8.135-19.314,13.151-31.714,13.151
		c-12.399,0-23.616-5.017-31.75-13.151c-8.135-8.135-13.152-19.351-13.152-31.75c0-12.399,5.017-23.615,13.152-31.714
		C47.257,31.009,58.474,25.992,70.873,25.992 M102.157,39.574c-7.991-8.027-19.064-12.972-31.284-12.972s-23.293,4.945-31.32,12.972
		c-7.991,7.991-12.937,19.064-12.937,31.284s4.946,23.293,12.937,31.32c8.027,7.991,19.1,12.972,31.32,12.972
		s23.293-4.98,31.284-12.972c8.027-8.027,12.972-19.101,12.972-31.32S110.185,47.564,102.157,39.574 M120.827,70.857
		c0-27.593-22.361-49.954-49.954-49.954c-27.629,0-49.99,22.361-49.99,49.954c0,27.629,22.361,49.99,49.99,49.99
		C98.466,120.848,120.827,98.486,120.827,70.857"/>
	<path clip-path="url(#SVGID_2_)" fill-rule="evenodd" clip-rule="evenodd" fill="#FFFFFF" d="M105.848,50.683
		c0.682,1.182,0.287,2.723-0.932,3.404c-1.182,0.717-2.723,0.287-3.404-0.896c-0.717-1.218-0.287-2.759,0.896-3.44
		C103.626,49.07,105.167,49.464,105.848,50.683 M38.048,51.184c0.394,0,0.752,0.323,0.752,0.753c0,0.394-0.358,0.717-0.752,0.717
		s-0.753-0.323-0.753-0.717C37.295,51.507,37.654,51.184,38.048,51.184 M70.873,32.228c0.394,0,0.717,0.358,0.717,0.752
		s-0.323,0.753-0.717,0.753c-0.43,0-0.753-0.359-0.753-0.753S70.443,32.228,70.873,32.228 M103.662,51.184
		c0.43,0,0.753,0.323,0.753,0.753c0,0.394-0.323,0.717-0.753,0.717c-0.395,0-0.717-0.323-0.717-0.717
		C102.945,51.507,103.268,51.184,103.662,51.184 M103.662,89.062c0.43,0,0.753,0.359,0.753,0.753c0,0.395-0.323,0.752-0.753,0.752
		c-0.395,0-0.717-0.357-0.717-0.752C102.945,89.421,103.268,89.062,103.662,89.062 M70.873,108.019c0.394,0,0.717,0.323,0.717,0.753
		c0,0.395-0.323,0.716-0.717,0.716c-0.43,0-0.753-0.321-0.753-0.716C70.12,108.342,70.443,108.019,70.873,108.019 M38.048,89.062
		c0.394,0,0.752,0.359,0.752,0.753c0,0.395-0.358,0.752-0.752,0.752s-0.753-0.357-0.753-0.752
		C37.295,89.421,37.654,89.062,38.048,89.062 M70.873,30.472c1.362,0,2.508,1.111,2.508,2.508c0,1.398-1.146,2.509-2.508,2.509
		c-1.398,0-2.509-1.111-2.509-2.509C68.364,31.583,69.475,30.472,70.873,30.472 M40.234,53.19c-0.717,1.183-2.258,1.613-3.44,0.896
		c-1.219-0.681-1.613-2.222-0.932-3.404c0.717-1.219,2.257-1.613,3.44-0.932C40.52,50.432,40.915,51.973,40.234,53.19
		 M40.234,88.561c0.681,1.218,0.286,2.723-0.932,3.44c-1.183,0.681-2.723,0.286-3.44-0.933c-0.681-1.183-0.287-2.723,0.932-3.439
		C37.976,86.947,39.517,87.342,40.234,88.561 M70.873,106.263c1.362,0,2.508,1.111,2.508,2.509c0,1.361-1.146,2.508-2.508,2.508
		c-1.398,0-2.509-1.146-2.509-2.508C68.364,107.374,69.475,106.263,70.873,106.263 M105.848,91.068
		c-0.681,1.219-2.222,1.613-3.439,0.933c-1.184-0.718-1.613-2.223-0.896-3.44c0.682-1.219,2.223-1.613,3.404-0.932
		C106.135,88.346,106.529,89.886,105.848,91.068"/>
</g>
</svg>
