<?xml version="1.0" encoding="utf-8"?>
<!-- Generator: Adobe Illustrator 14.0.0, SVG Export Plug-In . SVG Version: 6.00 Build 43363)  -->
<!DOCTYPE svg PUBLIC "-//W3C//DTD SVG 1.1//EN" "http://www.w3.org/Graphics/SVG/1.1/DTD/svg11.dtd">
<svg version="1.1" id="Layer_1" xmlns="http://www.w3.org/2000/svg" xmlns:xlink="http://www.w3.org/1999/xlink" x="0px" y="0px"
	 width="141.73px" height="141.73px" viewBox="0 0 141.73 141.73" enable-background="new 0 0 141.73 141.73" xml:space="preserve">
<g>
	<defs>
		<rect id="SVGID_1_" y="0" width="141.73" height="141.73"/>
	</defs>
	<clipPath id="SVGID_2_">
		<use xlink:href="#SVGID_1_"  overflow="visible"/>
	</clipPath>
	<path clip-path="url(#SVGID_2_)" fill-rule="evenodd" clip-rule="evenodd" fill="#00A0F0" d="M85.744,7.394
		c16.914,3.978,31.393,14.406,40.53,29.134s12.004,32.359,8.063,49.238c-3.979,16.878-14.37,31.354-29.136,40.493
		c-14.728,9.138-32.322,12.041-49.201,8.063c-16.914-3.941-31.392-14.37-40.53-29.098C6.333,90.459,3.432,72.864,7.409,55.985
		c3.978-16.878,14.37-31.391,29.098-40.529C51.271,6.318,68.867,3.452,85.744,7.394"/>
	<path clip-path="url(#SVGID_2_)" fill-rule="evenodd" clip-rule="evenodd" fill="#FFFFFF" d="M70.873,17.428
		c13.223,0,25.192,5.984,33.829,15.695c8.601,9.676,13.939,23.007,13.939,37.735s-5.339,28.095-13.939,37.734
		c-8.637,9.712-20.605,15.732-33.829,15.732c-13.223,0-25.192-6.021-33.828-15.732c-8.601-9.639-13.94-23.006-13.94-37.734
		s5.339-28.059,13.94-37.735C45.681,23.412,57.65,17.428,70.873,17.428 M102.408,35.166C94.345,26.1,83.165,20.509,70.873,20.509
		c-12.327,0-23.472,5.591-31.535,14.657c-8.134,9.138-13.151,21.752-13.151,35.692c0,13.976,5.017,26.59,13.151,35.692
		c8.063,9.102,19.208,14.692,31.535,14.692c12.292,0,23.472-5.591,31.536-14.692c8.135-9.102,13.15-21.716,13.15-35.692
		C115.559,56.918,110.543,44.304,102.408,35.166"/>
	<path clip-path="url(#SVGID_2_)" fill-rule="evenodd" clip-rule="evenodd" fill="#FFFFFF" d="M55.249,94.903
		c1.47,0,2.688,1.218,2.688,2.688c0,1.505-1.218,2.688-2.688,2.688c-1.469,0-2.687-1.183-2.687-2.688
		C52.562,96.121,53.779,94.903,55.249,94.903 M55.5,98.486c-0.036,0-0.107-0.035-0.107-0.107c0-0.036,0.071-0.072,0.107-0.072h1.326
		c0.036,0,0.108,0.036,0.108,0.072c0,0.072-0.072,0.107-0.108,0.107H55.5z M55.5,96.91c-0.036,0-0.107-0.036-0.107-0.108
		c0-0.07,0.071-0.106,0.107-0.106h1.326c0.036,0,0.108,0.036,0.108,0.106c0,0.072-0.072,0.108-0.108,0.108H55.5z M55.5,97.304
		c-0.036,0-0.107-0.035-0.107-0.107c0-0.035,0.071-0.107,0.107-0.107h1.326c0.036,0,0.108,0.072,0.108,0.107
		c0,0.072-0.072,0.107-0.108,0.107H55.5z M55.5,97.698c-0.036,0-0.107-0.036-0.107-0.107c0-0.036,0.071-0.107,0.107-0.107h1.326
		c0.036,0,0.108,0.071,0.108,0.107c0,0.071-0.072,0.107-0.108,0.107H55.5z M55.5,98.092c-0.036,0-0.107-0.036-0.107-0.106
		c0-0.036,0.071-0.072,0.107-0.072h1.326c0.036,0,0.108,0.036,0.108,0.072c0,0.07-0.072,0.106-0.108,0.106H55.5z M54.532,96.623
		h0.752v1.935h-0.752c-0.251,0-0.502-0.106-0.681-0.286c-0.179-0.18-0.287-0.395-0.287-0.681c0-0.251,0.108-0.502,0.287-0.681
		C54.03,96.731,54.281,96.623,54.532,96.623 M55.105,96.838h-0.573c-0.215,0-0.395,0.072-0.538,0.215
		c-0.143,0.144-0.215,0.323-0.215,0.538s0.072,0.395,0.215,0.537c0.143,0.144,0.323,0.251,0.538,0.251h0.573V96.838z"/>
	<path clip-path="url(#SVGID_2_)" fill-rule="evenodd" clip-rule="evenodd" fill="#FFFFFF" d="M86.496,94.903
		c1.471,0,2.688,1.218,2.688,2.688c0,1.505-1.218,2.688-2.688,2.688c-1.469,0-2.687-1.183-2.687-2.688
		C83.81,96.121,85.027,94.903,86.496,94.903 M87.07,96.91c-0.072-0.036-0.072-0.108-0.036-0.145c0.036-0.07,0.108-0.07,0.144-0.034
		c0.18,0.106,0.358,0.285,0.466,0.465c0.072,0.18,0.144,0.395,0.144,0.609c0,0.358-0.144,0.681-0.395,0.932
		c-0.215,0.215-0.537,0.358-0.896,0.358c-0.357,0-0.68-0.144-0.931-0.358c-0.215-0.251-0.359-0.573-0.359-0.932
		c0-0.215,0.036-0.43,0.145-0.609c0.106-0.18,0.286-0.358,0.466-0.465c0.035-0.036,0.107-0.036,0.144,0.034
		c0.035,0.036,0.035,0.108-0.036,0.145c-0.144,0.106-0.287,0.251-0.358,0.394c-0.072,0.144-0.144,0.322-0.144,0.502
		c0,0.286,0.144,0.573,0.322,0.752c0.18,0.216,0.467,0.323,0.752,0.323c0.287,0,0.538-0.107,0.753-0.323
		c0.18-0.179,0.287-0.466,0.287-0.752c0-0.18-0.035-0.358-0.107-0.502C87.321,97.161,87.214,97.017,87.07,96.91 M86.39,96.193
		c0-0.072,0.036-0.108,0.106-0.108c0.072,0,0.108,0.036,0.108,0.108v1.756c0,0.072-0.036,0.106-0.108,0.106
		c-0.07,0-0.106-0.034-0.106-0.106V96.193z"/>
	<path clip-path="url(#SVGID_2_)" fill-rule="evenodd" clip-rule="evenodd" fill="#FFFFFF" d="M103.591,45.666
		c0.43,0,0.787,0.179,1.074,0.466s0.467,0.681,0.467,1.075v40.601c0,0.43-0.18,0.789-0.467,1.111
		c-0.251,0.286-0.681,0.43-1.074,0.43H38.155c-0.43,0-0.788-0.144-1.075-0.43c-0.287-0.287-0.466-0.682-0.466-1.111V47.207
		c0-0.394,0.179-0.788,0.43-1.075h0.036c0.251-0.323,0.645-0.466,1.075-0.466H103.591z"/>
	<path clip-path="url(#SVGID_2_)" fill-rule="evenodd" clip-rule="evenodd" fill="#FFFFFF" d="M78.757,35.381
		c-0.107,0-0.216-0.072-0.287-0.143l-0.071-0.144v-2.186c0.071-0.179,0.179-0.286,0.322-0.286H83.2
		c0.215-0.036,0.358-0.144,0.501-0.287c0.072-0.107,0.145-0.215,0.145-0.358v-0.251c0-0.179-0.108-0.323-0.215-0.466
		c-0.145-0.072-0.287-0.143-0.467-0.179h-4.443c-0.144-0.036-0.251-0.144-0.322-0.287v-0.179c0.107-0.179,0.215-0.287,0.358-0.287
		h4.372c0.43,0.036,0.823,0.215,1.146,0.538c0.144,0.215,0.251,0.466,0.322,0.716v0.18v0.179c0,0.322-0.107,0.645-0.322,0.932
		c0.215,0.143,0.358,0.322,0.466,0.573c0.071,0.179,0.144,0.358,0.144,0.573v1.004c-0.036,0.215-0.18,0.358-0.431,0.358
		c-0.071,0-0.179-0.072-0.251-0.143l-0.071-0.18v-1.075c-0.035-0.179-0.107-0.322-0.216-0.465c-0.143-0.072-0.251-0.144-0.394-0.144
		h-0.215H79.15v1.72c-0.036,0.108-0.106,0.179-0.215,0.251L78.757,35.381z M71.626,31.081l-0.216-0.108
		c-0.036-0.071-0.072-0.107-0.107-0.179v-0.179c0.071-0.179,0.18-0.251,0.358-0.287h5.77c0.215,0.036,0.323,0.179,0.358,0.394
		c-0.035,0.036-0.035,0.108-0.071,0.144c0,0.036-0.036,0.071-0.072,0.107l-0.179,0.108H71.626z M71.661,35.381
		c-0.071,0-0.107-0.036-0.144-0.036c-0.071-0.036-0.107-0.072-0.144-0.107l-0.071-0.144v-2.472c0.036-0.144,0.144-0.251,0.323-0.287
		h5.268l0.215,0.108c0.035,0.071,0.071,0.107,0.071,0.179c0.036,0.036,0.036,0.107,0,0.179l-0.071,0.179
		c-0.036,0.036-0.072,0.036-0.144,0.072c-0.036,0-0.071,0.036-0.107,0.036h-4.802v1.54h5.411c0.179,0.036,0.287,0.18,0.322,0.395
		c-0.035,0.215-0.18,0.322-0.358,0.358H71.661z M69.512,34.449c0.071-0.036,0.143-0.107,0.215-0.179
		c0.071-0.072,0.107-0.143,0.143-0.215l0.036-0.466c0-0.071-0.036-0.143-0.108-0.215c-0.036-0.071-0.071-0.143-0.143-0.179
		c-0.108-0.072-0.215-0.143-0.323-0.179c-0.107-0.036-0.25-0.072-0.358-0.072h-4.049v1.684h4.049
		c0.108-0.035,0.215-0.035,0.287-0.071C69.332,34.521,69.439,34.485,69.512,34.449 M64.529,35.381c-0.035,0-0.107-0.036-0.143-0.036
		c-0.036-0.036-0.071-0.072-0.143-0.107l-0.072-0.144v-2.616c0.072-0.179,0.144-0.25,0.287-0.286h4.336
		c0.179-0.036,0.322-0.072,0.394-0.179c0.072-0.072,0.108-0.144,0.143-0.251v-0.287c-0.071-0.251-0.215-0.43-0.501-0.466h-4.336
		l-0.215-0.107c-0.036-0.072-0.072-0.108-0.072-0.18c-0.036-0.035-0.036-0.107-0.036-0.179c0.072-0.143,0.144-0.251,0.287-0.251
		h4.515c0.143,0.036,0.287,0.072,0.43,0.144c0.108,0.071,0.251,0.179,0.358,0.286c0.144,0.144,0.215,0.323,0.287,0.502
		c0.036,0.179,0.036,0.358,0.036,0.573c-0.036,0.108-0.072,0.216-0.108,0.323c-0.035,0.072-0.107,0.179-0.179,0.287
		c0.144,0.071,0.323,0.143,0.43,0.286c0.144,0.108,0.251,0.287,0.323,0.43c0.036,0.108,0.071,0.215,0.071,0.359
		c0.036,0.107,0.036,0.215,0.036,0.358c0,0.215-0.071,0.394-0.143,0.573c-0.108,0.215-0.215,0.395-0.394,0.538
		c-0.179,0.143-0.394,0.215-0.574,0.287c-0.215,0.071-0.43,0.107-0.645,0.143H64.529z M58.331,35.381
		c-0.43-0.036-0.788-0.179-1.111-0.502c-0.215-0.215-0.322-0.466-0.358-0.788v-3.476c0.071-0.179,0.215-0.287,0.394-0.287
		c0.108,0,0.215,0.072,0.287,0.179l0.035,0.108v3.297c0,0.215,0.072,0.358,0.216,0.501c0.143,0.108,0.286,0.18,0.501,0.215h3.655
		c0.18-0.035,0.323-0.107,0.43-0.25c0.108-0.108,0.144-0.251,0.18-0.395v-3.332c0.035-0.144,0.071-0.215,0.179-0.251
		c0.071-0.036,0.143-0.072,0.251-0.072c0.179,0.036,0.286,0.144,0.322,0.359v3.225c0,0.43-0.179,0.824-0.502,1.111
		c-0.286,0.215-0.573,0.322-0.895,0.358H58.331z"/>
	<path clip-path="url(#SVGID_2_)" fill-rule="evenodd" clip-rule="evenodd" fill="#FFFFFF" d="M84.526,37.531
		c0.106,0.071,0.179,0.143,0.215,0.25c0.036,0.108,0.072,0.18,0.072,0.287v0.502c-0.036,0.143-0.108,0.215-0.287,0.215
		c-0.072,0-0.108-0.036-0.179-0.072v-0.036l-0.036-0.071v-0.538c0-0.072-0.036-0.107-0.072-0.179
		c-0.071-0.036-0.107-0.036-0.143-0.036h-2.008v0.753c-0.036,0.071-0.071,0.107-0.106,0.143l-0.036,0.036h-0.108
		c-0.07,0-0.143-0.036-0.179-0.072v-0.036l-0.072-0.071v-1.075h0.036c0.036-0.108,0.072-0.18,0.179-0.18h2.115
		c0.107-0.035,0.144-0.071,0.215-0.107c0.036-0.036,0.036-0.072,0.036-0.143v-0.108c0-0.072-0.036-0.107-0.071-0.143
		c-0.072-0.072-0.108-0.072-0.18-0.072h-2.115v-0.036c-0.106,0-0.143-0.071-0.179-0.143l-0.036-0.036v-0.107l0.036-0.036
		c0.036-0.072,0.108-0.144,0.215-0.144h2.079c0.215,0,0.395,0.108,0.573,0.251v0.036c0.108,0.108,0.143,0.215,0.179,0.358v0.072
		v0.108C84.669,37.244,84.633,37.387,84.526,37.531 M77.717,36.778l-0.106-0.072l-0.036-0.035c0-0.036-0.036-0.036-0.036-0.072
		v-0.143V36.42c0.036-0.072,0.108-0.144,0.215-0.144h2.759c0.145,0,0.216,0.108,0.216,0.251c0,0.036,0,0.072-0.036,0.108
		c0,0-0.035,0.036-0.035,0.071H80.62l-0.108,0.072H77.717z M78.004,37.71v0.609h2.508c0.145,0,0.216,0.107,0.216,0.251
		c-0.036,0.107-0.107,0.215-0.216,0.215h-2.759c-0.036,0-0.071,0-0.071-0.036c-0.035,0-0.071-0.036-0.107-0.036v-0.036l-0.036-0.071
		v-1.183v-0.036c0.036-0.107,0.108-0.143,0.215-0.179h2.508l0.108,0.072h0.036c0,0.036,0.036,0.071,0.036,0.107v0.144l-0.036,0.107
		h-0.036c0,0.036-0.036,0.036-0.072,0.036c0,0-0.036,0.036-0.07,0.036H78.004z M74.815,36.778h-1.147l-0.036-0.036
		c-0.071,0-0.143-0.071-0.179-0.143v-0.036v-0.107V36.42c0.036-0.072,0.107-0.144,0.215-0.144h2.759
		c0.144,0,0.216,0.108,0.216,0.251c0,0.072-0.036,0.108-0.072,0.179l-0.144,0.072H75.28v1.828l-0.071,0.107
		c-0.036,0.036-0.107,0.072-0.179,0.072c-0.072,0-0.145-0.036-0.18-0.072v-0.036l-0.035-0.071V36.778z M70.156,38.319h1.72
		c0.072-0.036,0.108-0.072,0.144-0.107c0.071-0.036,0.071-0.108,0.107-0.18v-1.541v-0.035c0-0.036,0.036-0.108,0.107-0.144
		c0.036-0.036,0.072-0.036,0.144-0.036c0.144,0,0.215,0.072,0.215,0.215v1.541c0,0.215-0.107,0.43-0.251,0.574
		c-0.143,0.107-0.286,0.179-0.466,0.179h-1.72c-0.215,0-0.394-0.108-0.573-0.251c-0.108-0.108-0.144-0.251-0.18-0.43v-1.648V36.42
		c0.072-0.072,0.144-0.144,0.251-0.144c0.108,0,0.144,0.036,0.215,0.108l0.036,0.072v1.576c0,0.072,0,0.144,0.072,0.18
		C70.013,38.247,70.084,38.283,70.156,38.319 M65.999,38.319h1.756c0.036-0.036,0.107-0.072,0.143-0.107
		c0.036-0.036,0.072-0.108,0.072-0.18v-1.541v-0.035c0-0.036,0.036-0.108,0.108-0.144c0.035-0.036,0.107-0.036,0.143-0.036
		c0.143,0,0.215,0.072,0.251,0.215v1.541c-0.036,0.215-0.108,0.43-0.287,0.574c-0.143,0.107-0.287,0.179-0.466,0.179h-1.684
		c-0.251,0-0.43-0.108-0.573-0.251c-0.108-0.108-0.18-0.251-0.18-0.43v-1.648V36.42c0.036-0.072,0.108-0.144,0.251-0.144
		c0.072,0,0.144,0.036,0.179,0.108l0.036,0.072v1.576c0,0.072,0.036,0.144,0.072,0.18C65.892,38.247,65.927,38.283,65.999,38.319
		 M63.777,36.814l-0.107-0.036h-1.864h-0.071c-0.036,0.036-0.036,0.036-0.072,0.072c-0.036,0.036-0.036,0.071-0.072,0.107
		c0,0.036,0,0.072-0.035,0.108v1.003c0.035,0.036,0.035,0.072,0.035,0.072c0,0.036,0.036,0.072,0.036,0.072
		c0.036,0.035,0.036,0.035,0.072,0.071c0.036,0,0.072,0,0.072,0.036h1.899l0.107-0.072V38.14c0-0.072,0.036-0.108,0.072-0.179
		c0.036-0.036,0.072-0.036,0.107-0.072H64.1c0.036,0.036,0.071,0.036,0.107,0.072c0,0,0.036,0.035,0.036,0.071h0.036v0.144v0.036
		c0,0.071-0.036,0.143-0.072,0.25c-0.036,0.072-0.071,0.144-0.143,0.215c-0.072,0.036-0.143,0.036-0.179,0.072
		c-0.072,0.036-0.144,0.036-0.179,0.036H63.67h-1.864c-0.107,0-0.179-0.036-0.286-0.072c-0.072-0.036-0.18-0.071-0.251-0.143
		c-0.036-0.072-0.108-0.144-0.108-0.179c-0.035-0.072-0.071-0.144-0.071-0.215V38.14v-1.147c0-0.107,0.036-0.179,0.071-0.287
		c0.036-0.071,0.108-0.179,0.179-0.25c0.072-0.072,0.144-0.108,0.216-0.144c0.071-0.036,0.179-0.036,0.25-0.036h1.9
		c0.071,0,0.143,0.036,0.25,0.036c0.072,0.036,0.144,0.108,0.215,0.215c0.072,0.036,0.108,0.108,0.108,0.215
		c0.036,0.072,0.036,0.144,0.036,0.215v0.036c-0.036,0.036-0.036,0.072-0.072,0.072c0,0.036-0.036,0.071-0.072,0.071h-0.035
		l-0.144,0.036l-0.107-0.071c-0.036-0.072-0.072-0.144-0.072-0.215C63.813,36.85,63.813,36.814,63.777,36.814 M57.542,38.319h1.863
		c0.072-0.036,0.144-0.072,0.18-0.143c0.035-0.036,0.035-0.072,0.071-0.108v-0.143c0-0.072-0.036-0.108-0.107-0.144
		c-0.036-0.035-0.108-0.071-0.144-0.071h-1.72c-0.215,0-0.43-0.108-0.573-0.251v-0.036h-0.036c-0.072-0.107-0.107-0.215-0.143-0.322
		v-0.215c0.036-0.18,0.107-0.323,0.251-0.43c0.143-0.108,0.322-0.18,0.501-0.18h1.828c0.179,0,0.322,0.072,0.466,0.18
		c0.107,0.143,0.143,0.322,0.143,0.501c0,0.036-0.036,0.108-0.072,0.144c-0.071,0.035-0.143,0.071-0.215,0.071
		c-0.071-0.036-0.143-0.071-0.143-0.143c-0.036-0.072-0.036-0.108-0.036-0.179c-0.036-0.036-0.107-0.072-0.143-0.072h-1.828
		c-0.107,0-0.143,0.036-0.215,0.072c-0.036,0.071-0.036,0.107-0.036,0.179c0,0.036,0,0.072,0.036,0.107
		c0.072,0.036,0.144,0.072,0.215,0.072h1.72c0.215,0.036,0.395,0.108,0.574,0.287c0.107,0.143,0.143,0.286,0.143,0.466v0.107
		c0,0.215-0.072,0.394-0.251,0.538c-0.143,0.107-0.322,0.179-0.501,0.179h-1.828c-0.179,0-0.323-0.072-0.466-0.215
		c-0.072-0.108-0.107-0.215-0.143-0.358v-0.144h0.036c0-0.036,0.035-0.107,0.107-0.143c0.036-0.036,0.108-0.036,0.143-0.036h0.036
		c0.072,0.036,0.179,0.107,0.179,0.215c0,0.036,0,0.072,0.036,0.108C57.47,38.247,57.506,38.283,57.542,38.319"/>
	<path clip-path="url(#SVGID_2_)" fill-rule="evenodd" clip-rule="evenodd" fill="#008ACF" d="M54.819,61.827
		c0.358-0.251,0.753-0.358,1.183-0.358h3.153c0.466,0,0.932,0.143,1.29,0.465c-0.573,0.502-1.111,1.076-1.684,1.577h-2.473
		C55.787,62.938,55.321,62.4,54.819,61.827"/>
	<path clip-path="url(#SVGID_2_)" fill-rule="evenodd" clip-rule="evenodd" fill="#008ACF" d="M63.455,61.827
		c0.358-0.287,0.824-0.358,1.29-0.358h3.082c0.43,0,0.896,0.179,1.218,0.43c-0.501,0.573-1.111,1.075-1.648,1.612h-2.473
		c-0.358-0.43-0.716-0.824-1.075-1.218C63.706,62.114,63.527,62.006,63.455,61.827"/>
	<path clip-path="url(#SVGID_2_)" fill-rule="evenodd" clip-rule="evenodd" fill="#008ACF" d="M73.597,62.186
		c0.107,0,0.143,0.107,0.215,0.143c0.251,0.358,0.573,0.645,0.824,0.968c0.035,0.286-0.036,0.537-0.036,0.824
		c-0.035,0.466-0.071,0.932-0.144,1.397c-0.215,0.251-0.466,0.502-0.717,0.717c-0.215-0.215-0.43-0.466-0.609-0.681
		c0.036-0.716,0.108-1.433,0.18-2.186C73.31,62.974,73.346,62.544,73.597,62.186 M72.951,67.525c0.251-0.251,0.502-0.43,0.753-0.681
		c0.214,0.215,0.395,0.43,0.609,0.681c-0.036,0.681-0.145,1.362-0.179,2.043c0,0.179-0.181,0.322-0.287,0.43
		c-0.287,0.251-0.538,0.501-0.824,0.752h-0.108c-0.321-0.573-0.106-1.218-0.106-1.827C72.879,68.457,72.879,67.991,72.951,67.525
		 M77,63.332c0.359-0.358,0.753-0.716,1.147-1.075c0.143,0.287,0.251,0.61,0.215,0.932c-0.072,0.788-0.143,1.577-0.215,2.365
		c-0.251,0.215-0.502,0.466-0.752,0.681c-0.181-0.215-0.396-0.43-0.574-0.681C76.857,64.802,76.93,64.085,77,63.332 M74.707,65.913
		c0.072-0.108,0.18-0.072,0.287-0.072h1.505c0.215,0.215,0.431,0.43,0.609,0.681c-0.251,0.251-0.502,0.466-0.789,0.716H74.6
		c-0.18-0.25-0.395-0.465-0.573-0.68C74.241,66.343,74.456,66.092,74.707,65.913 M73.954,61.899
		c0.251-0.215,0.574-0.251,0.896-0.251h2.043c0.357,0,0.717,0.072,0.967,0.323c-0.358,0.322-0.681,0.645-1.039,0.967
		c-0.143,0.144-0.322,0.072-0.502,0.108c-0.43-0.036-0.896,0-1.325-0.036C74.6,62.687,74.313,62.257,73.954,61.899 M74.169,70.249
		c0.072-0.072,0.181-0.215,0.323-0.215h1.685c0.322,0.394,0.681,0.788,1.003,1.146c-0.286,0.18-0.609,0.251-0.896,0.251h-2.149
		c-0.323,0-0.646-0.107-0.896-0.322C73.561,70.822,73.848,70.571,74.169,70.249 M76.643,67.561c0.251-0.251,0.502-0.502,0.753-0.717
		c0.179,0.215,0.43,0.43,0.573,0.681c-0.036,0.86-0.144,1.684-0.18,2.544c-0.036,0.287-0.144,0.574-0.287,0.825
		c-0.357-0.359-0.681-0.753-1.039-1.111C76.499,69.03,76.57,68.278,76.643,67.561"/>
	<path clip-path="url(#SVGID_2_)" fill-rule="evenodd" clip-rule="evenodd" fill="#008ACF" d="M62.559,64.013
		c0.036-0.645,0.036-1.326,0.502-1.828c0.466,0.574,1.003,1.111,1.469,1.685c-0.036,0.716-0.143,1.397-0.179,2.114
		c-0.036,0.322-0.036,0.681-0.108,1.003c-0.322,0.359-0.681,0.717-1.075,1.04c-0.322-0.323-0.573-0.681-0.896-1.004
		C62.38,66.02,62.451,65.016,62.559,64.013"/>
	<path clip-path="url(#SVGID_2_)" fill-rule="evenodd" clip-rule="evenodd" fill="#008ACF" d="M59.119,63.87
		c0.573-0.502,1.111-1.003,1.684-1.541c0.251,0.43,0.394,0.932,0.323,1.398c-0.108,1.111-0.179,2.186-0.287,3.296
		c-0.358,0.323-0.717,0.681-1.111,1.004c-0.251-0.358-0.609-0.645-0.86-1.004C58.94,65.984,59.047,64.945,59.119,63.87"/>
	<path clip-path="url(#SVGID_2_)" fill-rule="evenodd" clip-rule="evenodd" fill="#008ACF" d="M67.755,63.87
		c0.573-0.502,1.111-1.039,1.684-1.541c0.251,0.43,0.359,0.896,0.323,1.398c-0.108,1.075-0.179,2.186-0.287,3.261
		c-0.358,0.358-0.717,0.716-1.111,1.039c-0.286-0.323-0.573-0.681-0.86-1.004C67.576,65.984,67.683,64.945,67.755,63.87"/>
	<path clip-path="url(#SVGID_2_)" fill-rule="evenodd" clip-rule="evenodd" fill="#008ACF" d="M56.001,67.417
		c0.788-0.036,1.613-0.036,2.437,0c0.358,0.251,0.609,0.645,0.932,0.968c-0.359,0.358-0.717,0.68-1.076,1.003
		c-0.25,0.072-0.537,0.036-0.824,0.036c-0.573,0-1.111,0.036-1.684,0c-0.323-0.323-0.573-0.681-0.896-1.004
		C55.249,68.099,55.607,67.74,56.001,67.417"/>
	<path clip-path="url(#SVGID_2_)" fill-rule="evenodd" clip-rule="evenodd" fill="#008ACF" d="M64.566,67.453
		c0.072-0.072,0.215-0.036,0.287-0.072c0.752,0.036,1.505,0,2.257,0.036c0.287,0.323,0.609,0.645,0.896,0.968
		c-0.358,0.358-0.752,0.681-1.111,1.039h-2.508c-0.287-0.358-0.574-0.681-0.86-1.003C63.885,68.098,64.208,67.776,64.566,67.453"/>
	<path clip-path="url(#SVGID_2_)" fill-rule="evenodd" clip-rule="evenodd" fill="#008ACF" d="M53.421,69.854
		c0.323-0.394,0.717-0.717,1.111-1.075c0.251,0.358,0.609,0.645,0.86,1.003c0,0.753-0.143,1.47-0.179,2.222
		c-0.036,0.323-0.036,0.646-0.108,0.933c-0.537,0.537-1.075,1.039-1.612,1.541c-0.323-0.431-0.394-1.004-0.323-1.541
		C53.242,71.897,53.314,70.893,53.421,69.854"/>
	<path clip-path="url(#SVGID_2_)" fill-rule="evenodd" clip-rule="evenodd" fill="#008ACF" d="M58.761,69.711
		c0.287-0.323,0.645-0.609,0.968-0.932c0.286,0.359,0.609,0.645,0.86,1.004c-0.072,1.254-0.215,2.472-0.287,3.727
		c-0.036,0.395-0.215,0.788-0.466,1.11c-0.466-0.537-1.003-1.075-1.469-1.685c0.071-1.003,0.179-2.007,0.251-3.046
		C58.618,69.818,58.688,69.747,58.761,69.711"/>
	<path clip-path="url(#SVGID_2_)" fill-rule="evenodd" clip-rule="evenodd" fill="#008ACF" d="M62.129,69.747
		c0.322-0.323,0.645-0.645,1.003-0.932c0.323,0.287,0.61,0.645,0.896,0.968c-0.071,1.039-0.179,2.114-0.286,3.153
		c-0.538,0.538-1.076,1.04-1.649,1.541c-0.251-0.394-0.358-0.896-0.322-1.396c0.107-1.005,0.179-2.007,0.25-3.01
		C62.057,69.962,62.021,69.819,62.129,69.747"/>
	<path clip-path="url(#SVGID_2_)" fill-rule="evenodd" clip-rule="evenodd" fill="#008ACF" d="M67.253,69.854
		c0.323-0.394,0.717-0.717,1.075-1.039c0.323,0.286,0.609,0.645,0.896,0.967c-0.072,1.219-0.215,2.437-0.287,3.656
		c-0.036,0.43-0.179,0.859-0.466,1.182c-0.501-0.573-1.003-1.075-1.469-1.647C67.075,71.933,67.146,70.893,67.253,69.854"/>
	<path clip-path="url(#SVGID_2_)" fill-rule="evenodd" clip-rule="evenodd" fill="#008ACF" d="M53.851,74.907
		c0.538-0.538,1.075-1.075,1.648-1.577h2.473c0.502,0.574,1.003,1.111,1.469,1.684c-0.322,0.216-0.716,0.323-1.111,0.323
		c-1.075,0.036-2.15,0.036-3.225,0C54.639,75.337,54.173,75.194,53.851,74.907"/>
	<path clip-path="url(#SVGID_2_)" fill-rule="evenodd" clip-rule="evenodd" fill="#008ACF" d="M63.813,73.617
		c0.143-0.108,0.215-0.287,0.43-0.287h2.365c0.502,0.574,1.004,1.11,1.469,1.648c-0.322,0.251-0.752,0.358-1.182,0.358
		c-1.039,0.036-2.114,0-3.154,0c-0.466,0.036-0.931-0.143-1.29-0.466C62.917,74.477,63.347,74.047,63.813,73.617"/>
	<path clip-path="url(#SVGID_2_)" fill-rule="evenodd" clip-rule="evenodd" fill="#008ACF" d="M70.586,70.356
		c0.287-0.143,0.717,0,0.788,0.358c0.145,0.395-0.358,0.789-0.716,0.61C70.228,71.18,70.192,70.535,70.586,70.356"/>
	<path clip-path="url(#SVGID_2_)" fill-rule="evenodd" clip-rule="evenodd" fill="#008ACF" d="M53.958,63.368
		c0.036-0.43,0.179-0.86,0.466-1.183c0.502,0.574,1.003,1.111,1.469,1.685c-0.072,1.039-0.143,2.078-0.287,3.153
		c-0.322,0.323-0.68,0.681-1.075,1.004c-0.25-0.323-0.609-0.645-0.86-1.004C53.744,65.805,53.887,64.586,53.958,63.368"/>
	<path clip-path="url(#SVGID_2_)" fill-rule="evenodd" clip-rule="evenodd" fill="#008ACF" d="M101.261,49.535l-5.626,3.297v2.007
		h5.626V49.535z M95.42,52.653l6.164-3.619v6.092h-6.236v-2.437L95.42,52.653z M101.261,71.396h-5.626v2.149h5.626V71.396z
		 M95.492,71.108h6.092v2.724h-6.236v-2.724H95.492z M101.261,68.313h-5.626v2.114h5.626V68.313z M95.492,67.991h6.092v2.723h-6.236
		v-2.723H95.492z M101.261,65.195h-5.626v2.15h5.626V65.195z M95.492,64.909h6.092v2.723h-6.236v-2.723H95.492z M101.261,62.114
		h-5.626v2.114h5.626V62.114z M95.492,61.792h6.092v2.724h-6.236v-2.724H95.492z M101.261,58.996h-5.626v2.114h5.626V58.996z
		 M95.492,58.709h6.092v2.724h-6.236v-2.724H95.492z M101.261,55.878h-5.626v2.15h5.626V55.878z M95.492,55.592h6.092v2.723h-6.236
		v-2.723H95.492z M101.333,80.282l-5.985-3.548v-2.437h6.236v6.093L101.333,80.282z M95.635,76.591l5.626,3.298v-5.305h-5.626
		V76.591z"/>
	<polygon clip-path="url(#SVGID_2_)" fill-rule="evenodd" clip-rule="evenodd" fill="#008ACF" points="98.251,54.23 98.251,52.187 
		98.681,52.187 98.681,52.976 99.469,52.976 99.469,52.187 99.898,52.187 99.898,54.23 99.469,54.23 99.469,53.334 98.681,53.334 
		98.681,54.23 	"/>
	<polygon clip-path="url(#SVGID_2_)" fill-rule="evenodd" clip-rule="evenodd" fill="#008ACF" points="98.287,77.38 98.287,75.373 
		98.681,75.373 98.681,77.057 99.72,77.057 99.72,77.38 	"/>
	<path clip-path="url(#SVGID_2_)" fill-rule="evenodd" clip-rule="evenodd" fill="#008ACF" d="M95.886,81.858h1.111v-0.501h1.111
		v0.501h1.109v-0.501h1.111v0.501h1.255v4.05h-5.842v-4.05H95.886z M97.14,82.146h-1.074v3.44h5.195v-3.44h-1.254V81.68h-0.466
		v0.466h-1.756V81.68h-0.466v0.466H97.14z"/>
	<polygon clip-path="url(#SVGID_2_)" fill-rule="evenodd" clip-rule="evenodd" fill="#008ACF" points="99.792,84.869 99.792,84.081 
		98.968,84.081 98.968,83.758 99.792,83.758 99.792,82.97 100.115,82.97 100.115,83.758 100.903,83.758 100.903,84.081 
		100.115,84.081 100.115,84.869 	"/>
	
		<rect x="96.423" y="83.759" clip-path="url(#SVGID_2_)" fill-rule="evenodd" clip-rule="evenodd" fill="#008ACF" width="1.756" height="0.322"/>
	<path clip-path="url(#SVGID_2_)" fill-rule="evenodd" clip-rule="evenodd" fill="#008ACF" d="M79.724,64.156v-1.971h0.431v0.896
		l0.788-0.896h0.538l-0.753,0.788l0.788,1.183h-0.502l-0.536-0.932l-0.323,0.359v0.573H79.724z M81.695,62.723h0.357v0.215
		c0.108-0.18,0.287-0.251,0.431-0.251c0.107,0,0.18,0.036,0.251,0.071c0.071,0.036,0.107,0.108,0.179,0.18
		c0.036-0.072,0.108-0.144,0.18-0.18c0.071-0.035,0.18-0.071,0.25-0.071c0.108,0,0.181,0.036,0.251,0.071
		c0.072,0.036,0.145,0.108,0.18,0.18c0.036,0.071,0.036,0.179,0.036,0.322v0.896h-0.395v-0.824c0-0.144,0-0.215-0.036-0.251
		c-0.036-0.072-0.071-0.108-0.143-0.108c-0.072,0-0.108,0.036-0.144,0.072c-0.071,0.036-0.107,0.072-0.107,0.143
		c-0.036,0.072-0.036,0.144-0.036,0.287v0.681h-0.395v-0.788v-0.251c-0.035-0.036-0.035-0.072-0.071-0.108
		c-0.035,0-0.071-0.036-0.107-0.036c-0.072,0-0.107,0.036-0.179,0.072c-0.036,0.036-0.072,0.072-0.072,0.143
		c-0.036,0.036-0.036,0.144-0.036,0.287v0.681h-0.394V62.723z M83.989,64.192l0.501-2.043h0.287l-0.502,2.043H83.989z
		 M84.956,64.156v-1.971h0.394v0.788h0.789v-0.788h0.395v1.971h-0.395v-0.86H85.35v0.86H84.956z"/>
	<polygon clip-path="url(#SVGID_2_)" fill-rule="evenodd" clip-rule="evenodd" fill="#008ACF" points="81.659,71.682 80.333,67.955 
		81.157,67.955 82.089,70.714 83.021,67.955 83.81,67.955 82.483,71.682 	"/>
	<path clip-path="url(#SVGID_2_)" fill-rule="evenodd" clip-rule="evenodd" fill="#008ACF" d="M46.612,69.353h-1.72
		c-0.251,1.469-0.287,2.938,0,4.408h1.72c0.609,0,1.147-0.251,1.541-0.646c0.394-0.394,0.645-0.932,0.645-1.541
		c0-0.609-0.251-1.147-0.645-1.577C47.759,69.604,47.221,69.353,46.612,69.353"/>
	<path clip-path="url(#SVGID_2_)" fill-rule="evenodd" clip-rule="evenodd" fill="#008ACF" d="M44.462,73.151h-1.935
		c-0.107,0-0.215,0.106-0.215,0.215c0,0.143,0.108,0.215,0.215,0.215h2.007C44.498,73.438,44.462,73.294,44.462,73.151
		 M44.534,69.532h-2.007c-0.107,0-0.215,0.107-0.215,0.215c0,0.143,0.108,0.25,0.215,0.25h1.935
		C44.462,69.818,44.498,69.675,44.534,69.532 M44.391,70.427h-1.864c-0.107,0-0.215,0.108-0.215,0.251
		c0,0.108,0.108,0.215,0.215,0.215h1.828C44.391,70.75,44.391,70.571,44.391,70.427 M44.355,71.323h-1.828
		c-0.107,0-0.215,0.108-0.215,0.251c0,0.108,0.108,0.215,0.215,0.215h1.828V71.323z M44.355,72.255h-1.828
		c-0.107,0-0.215,0.072-0.215,0.215c0,0.108,0.108,0.216,0.215,0.216h1.864C44.391,72.542,44.355,72.398,44.355,72.255"/>
	<path clip-path="url(#SVGID_2_)" fill-rule="evenodd" clip-rule="evenodd" fill="#008ACF" d="M40.448,82.54v-1.936h-0.68v-0.394
		h1.791v0.394h-0.645v1.936H40.448z M41.882,82.54v-2.329h0.967c0.251,0,0.43,0.036,0.538,0.071
		c0.107,0.035,0.215,0.107,0.251,0.216c0.071,0.106,0.107,0.25,0.107,0.357c0,0.18-0.036,0.322-0.143,0.431
		c-0.108,0.106-0.251,0.179-0.466,0.215c0.108,0.071,0.215,0.143,0.251,0.215c0.072,0.072,0.179,0.179,0.287,0.357l0.25,0.467
		h-0.537l-0.323-0.501c-0.143-0.181-0.215-0.323-0.25-0.359c-0.036-0.036-0.108-0.071-0.144-0.071
		c-0.036-0.036-0.143-0.036-0.251-0.036h-0.071v0.968H41.882z M42.349,81.214h0.322c0.251,0,0.359-0.036,0.43-0.036
		c0.072-0.035,0.108-0.071,0.144-0.107c0.035-0.035,0.035-0.107,0.035-0.179c0-0.072-0.035-0.144-0.071-0.179
		c-0.036-0.036-0.108-0.072-0.179-0.072c-0.036-0.036-0.144-0.036-0.323-0.036h-0.358V81.214z M44.175,80.211h0.466v2.329h-0.466
		V80.211z M45.071,82.54v-2.329h0.753c0.286,0,0.466,0.036,0.573,0.036c0.108,0.035,0.215,0.106,0.323,0.251
		c0.071,0.106,0.107,0.25,0.107,0.43c0,0.143,0,0.25-0.072,0.358c-0.035,0.106-0.107,0.179-0.179,0.215
		c-0.071,0.071-0.179,0.107-0.251,0.107c-0.107,0.035-0.25,0.035-0.465,0.035h-0.323v0.896H45.071z M45.538,80.604v0.682h0.251
		c0.215,0,0.322-0.036,0.394-0.036c0.036-0.036,0.108-0.072,0.143-0.144c0.036-0.036,0.036-0.107,0.036-0.179
		c0-0.072-0.036-0.145-0.071-0.18c-0.036-0.071-0.108-0.107-0.18-0.107c-0.071-0.036-0.179-0.036-0.322-0.036H45.538z
		 M39.803,84.977c0-0.251,0.036-0.43,0.108-0.609c0.072-0.107,0.143-0.215,0.215-0.286c0.107-0.107,0.215-0.18,0.322-0.216
		c0.144-0.071,0.287-0.106,0.466-0.106c0.359,0,0.609,0.106,0.825,0.322c0.214,0.215,0.322,0.502,0.322,0.896
		c0,0.358-0.108,0.646-0.322,0.86c-0.18,0.215-0.466,0.323-0.789,0.323c-0.358,0-0.645-0.108-0.824-0.323
		C39.912,85.622,39.803,85.335,39.803,84.977 M40.305,84.977c0,0.251,0.036,0.43,0.179,0.573c0.108,0.144,0.251,0.215,0.466,0.215
		c0.179,0,0.323-0.071,0.43-0.215c0.143-0.144,0.179-0.322,0.179-0.609c0-0.251-0.036-0.466-0.179-0.573
		c-0.107-0.144-0.251-0.215-0.43-0.215c-0.215,0-0.358,0.071-0.466,0.215C40.341,84.511,40.305,84.689,40.305,84.977 M42.419,83.83
		h0.825c0.215,0,0.358,0,0.465,0.035c0.108,0.036,0.251,0.108,0.323,0.216c0.107,0.071,0.179,0.215,0.215,0.357
		c0.072,0.145,0.072,0.323,0.072,0.538c0,0.179,0,0.358-0.072,0.502c-0.036,0.144-0.108,0.286-0.215,0.395
		c-0.108,0.071-0.215,0.143-0.323,0.179c-0.107,0.036-0.25,0.072-0.43,0.072h-0.86V83.83z M42.885,84.188v1.541h0.323
		c0.143,0,0.251,0,0.286-0.036c0.072,0,0.144-0.036,0.18-0.071c0.071-0.072,0.107-0.144,0.143-0.251s0.036-0.216,0.036-0.395
		s0-0.323-0.036-0.43c-0.036-0.072-0.072-0.18-0.143-0.215c-0.036-0.072-0.108-0.108-0.215-0.108c-0.072,0-0.18-0.035-0.359-0.035
		H42.885z M44.642,84.977c0-0.251,0.036-0.43,0.108-0.609c0.035-0.107,0.107-0.215,0.215-0.286c0.071-0.107,0.179-0.18,0.286-0.216
		c0.144-0.071,0.323-0.106,0.502-0.106c0.323,0,0.609,0.106,0.788,0.322c0.215,0.215,0.323,0.502,0.323,0.896
		c0,0.358-0.108,0.646-0.287,0.86c-0.215,0.215-0.501,0.323-0.824,0.323c-0.358,0-0.609-0.108-0.824-0.323
		C44.75,85.622,44.642,85.335,44.642,84.977 M45.107,84.977c0,0.251,0.072,0.43,0.179,0.573c0.144,0.144,0.287,0.215,0.466,0.215
		s0.323-0.071,0.466-0.215c0.107-0.144,0.179-0.322,0.179-0.609c0-0.251-0.072-0.466-0.179-0.573
		c-0.108-0.144-0.287-0.215-0.466-0.215s-0.358,0.071-0.466,0.215C45.179,84.511,45.107,84.689,45.107,84.977"/>
	<path clip-path="url(#SVGID_2_)" fill-rule="evenodd" clip-rule="evenodd" fill="#008ACF" d="M49.372,80.426
		c0.036-0.036,0.072,0.036,0.108,0.071c0.143,0.216,0.358,0.358,0.502,0.573c0.035,0.18,0,0.322-0.036,0.503
		c0,0.285-0.036,0.572-0.072,0.859c-0.143,0.144-0.287,0.286-0.43,0.43c-0.143-0.144-0.251-0.286-0.394-0.43
		c0.036-0.43,0.072-0.859,0.143-1.326C49.192,80.892,49.192,80.604,49.372,80.426 M48.978,83.65c0.144-0.179,0.287-0.287,0.43-0.43
		c0.144,0.107,0.251,0.251,0.359,0.395c0,0.43-0.072,0.823-0.072,1.254c0,0.107-0.108,0.18-0.179,0.251
		c-0.179,0.144-0.359,0.322-0.502,0.466h-0.072c-0.179-0.358-0.071-0.752-0.071-1.111C48.941,84.188,48.906,83.901,48.978,83.65
		 M51.415,81.106c0.215-0.215,0.466-0.43,0.681-0.645c0.107,0.179,0.179,0.357,0.143,0.573c-0.036,0.466-0.071,0.932-0.143,1.397
		c-0.143,0.144-0.287,0.286-0.43,0.43c-0.143-0.144-0.251-0.286-0.359-0.43C51.307,82.003,51.378,81.537,51.415,81.106
		 M50.017,82.647c0.036-0.036,0.108-0.036,0.18-0.036h0.896c0.143,0.144,0.286,0.251,0.394,0.431
		c-0.18,0.143-0.323,0.286-0.466,0.43h-1.039c-0.144-0.144-0.251-0.287-0.395-0.43C49.73,82.897,49.874,82.791,50.017,82.647
		 M49.551,80.211c0.179-0.108,0.358-0.145,0.573-0.145h1.218c0.215,0,0.43,0.036,0.574,0.181c-0.215,0.215-0.394,0.43-0.61,0.608
		c-0.071,0.072-0.214,0.072-0.286,0.072h-0.824C49.981,80.713,49.767,80.462,49.551,80.211 M49.694,85.299
		c0.072-0.071,0.107-0.143,0.215-0.143h1.003c0.18,0.251,0.394,0.466,0.61,0.681c-0.18,0.143-0.359,0.143-0.538,0.143h-1.29
		c-0.215,0-0.394-0.036-0.538-0.179C49.336,85.622,49.516,85.479,49.694,85.299 M51.199,83.65c0.143-0.143,0.287-0.287,0.43-0.43
		c0.143,0.143,0.287,0.251,0.358,0.395c0,0.537-0.071,1.038-0.107,1.541c0,0.179-0.072,0.357-0.179,0.537
		c-0.215-0.251-0.395-0.466-0.609-0.717C51.092,84.547,51.127,84.081,51.199,83.65"/>
	<path clip-path="url(#SVGID_2_)" fill-rule="evenodd" clip-rule="evenodd" fill="#008ACF" d="M53.421,80.426
		c0.072-0.036,0.072,0.036,0.108,0.071c0.179,0.216,0.358,0.358,0.502,0.573c0.035,0.18,0,0.322,0,0.503
		c-0.036,0.285-0.072,0.572-0.072,0.859c-0.179,0.144-0.323,0.286-0.466,0.43c-0.107-0.144-0.251-0.286-0.358-0.43
		c0.036-0.43,0.071-0.859,0.107-1.326C53.242,80.892,53.278,80.604,53.421,80.426 M53.027,83.65c0.144-0.179,0.323-0.287,0.43-0.43
		c0.144,0.107,0.251,0.251,0.394,0.395c-0.035,0.43-0.071,0.823-0.107,1.254c0,0.107-0.108,0.18-0.179,0.251
		c-0.179,0.144-0.323,0.322-0.502,0.466h-0.036c-0.215-0.358-0.071-0.752-0.071-1.111C52.991,84.188,52.991,83.901,53.027,83.65
		 M55.464,81.106c0.251-0.215,0.466-0.43,0.717-0.645c0.071,0.179,0.143,0.357,0.107,0.573c-0.036,0.466-0.071,0.932-0.107,1.397
		c-0.179,0.144-0.323,0.286-0.466,0.43c-0.108-0.144-0.251-0.286-0.358-0.43C55.392,82.003,55.428,81.537,55.464,81.106
		 M54.066,82.647c0.072-0.036,0.144-0.036,0.18-0.036h0.931c0.108,0.144,0.251,0.251,0.359,0.431
		c-0.144,0.143-0.323,0.286-0.466,0.43h-1.039c-0.108-0.144-0.251-0.287-0.359-0.43C53.816,82.897,53.923,82.791,54.066,82.647
		 M53.636,80.211c0.144-0.108,0.359-0.145,0.538-0.145h1.254c0.179,0,0.394,0.036,0.574,0.181c-0.215,0.215-0.43,0.43-0.645,0.608
		c-0.072,0.072-0.18,0.072-0.287,0.072h-0.824C54.031,80.713,53.851,80.462,53.636,80.211 M53.744,85.299
		c0.072-0.071,0.143-0.143,0.215-0.143h1.003c0.215,0.251,0.43,0.466,0.61,0.681c-0.144,0.143-0.359,0.143-0.538,0.143h-1.29
		c-0.179,0-0.394-0.036-0.538-0.179C53.386,85.622,53.564,85.479,53.744,85.299 M55.249,83.65c0.143-0.143,0.323-0.287,0.466-0.43
		c0.107,0.143,0.251,0.251,0.358,0.395c-0.036,0.537-0.107,1.038-0.143,1.541c0,0.179-0.072,0.357-0.179,0.537
		c-0.179-0.251-0.394-0.466-0.609-0.717C55.177,84.547,55.213,84.081,55.249,83.65"/>
	<path clip-path="url(#SVGID_2_)" fill-rule="evenodd" clip-rule="evenodd" fill="#008ACF" d="M57.506,80.426
		c0.036-0.036,0.072,0.036,0.108,0.071c0.143,0.216,0.358,0.358,0.502,0.573c0,0.18-0.036,0.322-0.036,0.503
		c0,0.285-0.036,0.572-0.072,0.859c-0.143,0.144-0.287,0.286-0.466,0.43c-0.107-0.144-0.215-0.286-0.358-0.43
		c0.036-0.43,0.072-0.859,0.107-1.326C57.327,80.892,57.327,80.604,57.506,80.426 M57.112,83.65c0.108-0.179,0.287-0.287,0.43-0.43
		c0.144,0.107,0.251,0.251,0.359,0.395c-0.036,0.43-0.072,0.823-0.108,1.254c0,0.107-0.107,0.18-0.179,0.251
		c-0.179,0.144-0.323,0.322-0.502,0.466h-0.036c-0.215-0.358-0.071-0.752-0.071-1.111C57.041,84.188,57.041,83.901,57.112,83.65
		 M59.549,81.106c0.215-0.215,0.466-0.43,0.681-0.645c0.107,0.179,0.143,0.357,0.143,0.573c-0.071,0.466-0.071,0.932-0.143,1.397
		c-0.143,0.144-0.287,0.286-0.43,0.43c-0.143-0.144-0.251-0.286-0.359-0.43C59.441,82.003,59.477,81.537,59.549,81.106
		 M58.151,82.647c0.036-0.036,0.108-0.036,0.18-0.036h0.896c0.143,0.144,0.25,0.251,0.358,0.431
		c-0.144,0.143-0.287,0.286-0.466,0.43H58.08c-0.108-0.144-0.251-0.287-0.359-0.43C57.865,82.897,58.008,82.791,58.151,82.647
		 M57.686,80.211c0.179-0.108,0.358-0.145,0.537-0.145h1.254c0.215,0,0.43,0.036,0.574,0.181c-0.215,0.215-0.394,0.43-0.61,0.608
		c-0.071,0.072-0.214,0.072-0.322,0.072h-0.788C58.08,80.713,57.901,80.462,57.686,80.211 M57.829,85.299
		c0.036-0.071,0.107-0.143,0.215-0.143h1.003c0.18,0.251,0.394,0.466,0.61,0.681c-0.18,0.143-0.359,0.143-0.574,0.143h-1.254
		c-0.215,0-0.394-0.036-0.573-0.179C57.435,85.622,57.65,85.479,57.829,85.299 M59.334,83.65c0.143-0.143,0.287-0.287,0.43-0.43
		c0.108,0.143,0.251,0.251,0.358,0.395c-0.035,0.537-0.071,1.038-0.107,1.541c-0.036,0.179-0.072,0.357-0.179,0.537
		c-0.215-0.251-0.43-0.466-0.609-0.717C59.227,84.547,59.262,84.081,59.334,83.65"/>
	<path clip-path="url(#SVGID_2_)" fill-rule="evenodd" clip-rule="evenodd" fill="#008ACF" d="M61.555,80.426
		c0.036-0.036,0.072,0.036,0.108,0.071c0.179,0.216,0.358,0.358,0.502,0.573c0.035,0.18,0,0.322-0.036,0.503
		c0,0.285-0.036,0.572-0.072,0.859c-0.143,0.144-0.287,0.286-0.43,0.43c-0.143-0.144-0.251-0.286-0.358-0.43
		c0.036-0.43,0.071-0.859,0.107-1.326C61.376,80.892,61.412,80.604,61.555,80.426 M61.161,83.65c0.144-0.179,0.287-0.287,0.43-0.43
		c0.144,0.107,0.251,0.251,0.394,0.395c-0.035,0.43-0.071,0.823-0.107,1.254c0,0.107-0.108,0.18-0.179,0.251
		c-0.179,0.144-0.323,0.322-0.502,0.466h-0.072c-0.179-0.358-0.071-0.752-0.035-1.111C61.125,84.188,61.09,83.901,61.161,83.65
		 M63.598,81.106c0.215-0.215,0.466-0.43,0.681-0.645c0.107,0.179,0.179,0.357,0.143,0.573c-0.036,0.466-0.071,0.932-0.107,1.397
		c-0.179,0.144-0.323,0.286-0.466,0.43c-0.108-0.144-0.251-0.286-0.359-0.43C63.526,82.003,63.563,81.537,63.598,81.106
		 M62.2,82.647c0.036-0.036,0.108-0.036,0.18-0.036h0.895c0.144,0.144,0.287,0.251,0.395,0.431c-0.18,0.143-0.323,0.286-0.466,0.43
		h-1.039c-0.144-0.144-0.251-0.287-0.359-0.43C61.914,82.897,62.057,82.791,62.2,82.647 M61.735,80.211
		c0.179-0.108,0.358-0.145,0.573-0.145h1.218c0.215,0,0.43,0.036,0.61,0.181c-0.216,0.215-0.431,0.43-0.646,0.608
		c-0.071,0.072-0.179,0.072-0.286,0.072H62.38C62.166,80.713,61.985,80.462,61.735,80.211 M61.878,85.299
		c0.072-0.071,0.107-0.143,0.215-0.143h1.003c0.179,0.251,0.394,0.466,0.609,0.681c-0.143,0.143-0.358,0.143-0.537,0.143h-1.29
		c-0.215,0-0.394-0.036-0.538-0.179C61.521,85.622,61.699,85.479,61.878,85.299 M63.383,83.65c0.143-0.143,0.287-0.287,0.466-0.43
		c0.107,0.143,0.251,0.251,0.358,0.395c-0.036,0.537-0.107,1.038-0.143,1.541c0,0.179-0.072,0.357-0.179,0.537
		c-0.215-0.251-0.395-0.466-0.61-0.717C63.312,84.547,63.347,84.081,63.383,83.65"/>
	<path clip-path="url(#SVGID_2_)" fill-rule="evenodd" clip-rule="evenodd" fill="#008ACF" d="M67.325,80.426
		c0.036-0.036,0.072,0.036,0.108,0.071c0.143,0.216,0.358,0.358,0.502,0.573c0,0.18-0.036,0.322-0.036,0.503
		c0,0.285-0.036,0.572-0.072,0.859c-0.143,0.144-0.287,0.286-0.466,0.43c-0.107-0.144-0.215-0.286-0.358-0.43
		c0.036-0.43,0.072-0.859,0.107-1.326C67.146,80.892,67.146,80.604,67.325,80.426 M66.931,83.65c0.108-0.179,0.287-0.287,0.43-0.43
		c0.144,0.107,0.251,0.251,0.359,0.395c-0.036,0.43-0.072,0.823-0.108,1.254c0,0.107-0.107,0.18-0.179,0.251
		c-0.179,0.144-0.323,0.322-0.502,0.466h-0.036c-0.215-0.358-0.071-0.752-0.071-1.111C66.86,84.188,66.86,83.901,66.931,83.65
		 M69.368,81.106c0.215-0.215,0.466-0.43,0.681-0.645c0.107,0.179,0.143,0.357,0.143,0.573c-0.071,0.466-0.071,0.932-0.143,1.397
		c-0.143,0.144-0.287,0.286-0.43,0.43c-0.143-0.144-0.251-0.286-0.358-0.43C69.261,82.003,69.296,81.537,69.368,81.106
		 M67.97,82.647c0.036-0.036,0.108-0.036,0.18-0.036h0.896c0.143,0.144,0.25,0.251,0.358,0.431c-0.143,0.143-0.287,0.286-0.466,0.43
		h-1.039c-0.108-0.144-0.251-0.287-0.359-0.43C67.684,82.897,67.827,82.791,67.97,82.647 M67.505,80.211
		c0.179-0.108,0.358-0.145,0.537-0.145h1.254c0.215,0,0.43,0.036,0.574,0.181c-0.215,0.215-0.394,0.43-0.609,0.608
		c-0.072,0.072-0.215,0.072-0.323,0.072H68.15C67.899,80.713,67.72,80.462,67.505,80.211 M67.647,85.299
		c0.036-0.071,0.107-0.143,0.215-0.143h1.003c0.18,0.251,0.395,0.466,0.61,0.681c-0.18,0.143-0.359,0.143-0.574,0.143h-1.254
		c-0.215,0-0.394-0.036-0.573-0.179C67.254,85.622,67.469,85.479,67.647,85.299 M69.153,83.65c0.143-0.143,0.287-0.287,0.43-0.43
		c0.108,0.143,0.251,0.251,0.358,0.395c-0.035,0.537-0.071,1.038-0.107,1.541c-0.036,0.179-0.072,0.357-0.179,0.537
		c-0.215-0.251-0.43-0.466-0.609-0.717C69.046,84.547,69.081,84.081,69.153,83.65"/>
	<path clip-path="url(#SVGID_2_)" fill-rule="evenodd" clip-rule="evenodd" fill="#008ACF" d="M65.247,85.335
		c0.179-0.072,0.394,0,0.43,0.179c0.072,0.215-0.179,0.431-0.394,0.359C65.068,85.801,65.068,85.443,65.247,85.335"/>
	<path clip-path="url(#SVGID_2_)" fill-rule="evenodd" clip-rule="evenodd" fill="#008ACF" d="M71.231,85.979v-1.469h0.322v0.646
		l0.574-0.646h0.394l-0.538,0.573l0.574,0.896h-0.359l-0.43-0.681l-0.215,0.215v0.466H71.231z M72.7,84.905h0.251v0.143
		c0.107-0.106,0.215-0.143,0.322-0.143c0.072,0,0.145,0,0.18,0.036c0.071,0.035,0.107,0.07,0.144,0.106
		c0.036-0.036,0.071-0.071,0.143-0.106c0.036-0.036,0.108-0.036,0.18-0.036s0.144,0,0.18,0.036c0.071,0.035,0.106,0.07,0.106,0.143
		c0.036,0.036,0.036,0.108,0.036,0.215v0.681h-0.287v-0.608v-0.215c-0.035-0.036-0.07-0.036-0.143-0.036
		c-0.036,0-0.072,0-0.108,0.036c-0.035,0-0.035,0.036-0.07,0.106v0.215v0.502h-0.287v-0.572c0-0.108,0-0.18-0.036-0.215
		c0-0.036,0-0.036-0.036-0.072h-0.071c-0.071,0-0.107,0-0.144,0.036c-0.035,0-0.035,0.036-0.071,0.071v0.216v0.536H72.7V84.905z"/>
	<path clip-path="url(#SVGID_2_)" fill-rule="evenodd" clip-rule="evenodd" fill="#008ACF" d="M77,80.139h13.547
		c0.357,0,0.681,0.144,0.896,0.395c0.251,0.215,0.394,0.538,0.394,0.896v3.655c0,0.359-0.143,0.681-0.394,0.932
		c-0.215,0.216-0.538,0.358-0.896,0.358H77c-0.357,0-0.681-0.143-0.896-0.358c-0.215-0.251-0.358-0.572-0.358-0.932v-3.655
		c0-0.357,0.144-0.681,0.358-0.896C76.319,80.282,76.643,80.139,77,80.139 M90.547,80.569H77c-0.215,0-0.466,0.071-0.608,0.251
		c-0.144,0.143-0.251,0.357-0.251,0.608v3.655c0,0.251,0.107,0.466,0.251,0.645c0.143,0.145,0.394,0.251,0.608,0.251h13.547
		c0.251,0,0.466-0.106,0.608-0.251c0.179-0.179,0.251-0.394,0.251-0.645v-3.655c0-0.251-0.072-0.466-0.251-0.608
		C91.013,80.641,90.798,80.569,90.547,80.569"/>
	<path clip-path="url(#SVGID_2_)" fill-rule="evenodd" clip-rule="evenodd" fill="#008ACF" d="M90.941,63.87h0.536v-0.286h0.503
		v0.286h0.716v-0.286h0.538v0.286h0.502v0.466h-2.795V63.87z M93.736,65.733h-2.795v-1.29h2.795V65.733z"/>
	<polygon clip-path="url(#SVGID_2_)" fill-rule="evenodd" clip-rule="evenodd" fill="#008ACF" points="92.947,63.941 92.947,63.798 
		92.84,63.798 92.84,63.762 92.947,63.762 92.947,63.654 93.02,63.654 93.02,63.762 93.126,63.762 93.126,63.798 93.02,63.798 
		93.02,63.941 	"/>
	
		<rect x="91.621" y="63.763" clip-path="url(#SVGID_2_)" fill-rule="evenodd" clip-rule="evenodd" fill="#008ACF" width="0.215" height="0.036"/>
	<path clip-path="url(#SVGID_2_)" fill-rule="evenodd" clip-rule="evenodd" fill="#008ACF" d="M91.263,65.482v-0.717h0.145v0.574
		h0.357v0.143H91.263z M91.765,65.125c0-0.072,0.036-0.144,0.036-0.18c0.036-0.035,0.036-0.071,0.071-0.107
		c0.036-0.036,0.071-0.072,0.107-0.072s0.107-0.036,0.144-0.036c0.107,0,0.215,0.036,0.251,0.108
		c0.071,0.072,0.107,0.143,0.107,0.287c0,0.107-0.036,0.215-0.107,0.251c-0.036,0.071-0.144,0.107-0.251,0.107
		s-0.18-0.036-0.251-0.072C91.801,65.339,91.765,65.231,91.765,65.125 M91.943,65.125c0,0.071,0,0.143,0.036,0.179
		s0.107,0.072,0.144,0.072c0.071,0,0.107-0.036,0.144-0.072c0.035-0.036,0.071-0.108,0.071-0.179c0-0.108-0.036-0.144-0.071-0.18
		c-0.036-0.071-0.072-0.071-0.144-0.071c-0.036,0-0.107,0-0.144,0.071C91.943,64.98,91.943,65.016,91.943,65.125 M92.625,65.482
		l-0.18-0.717h0.18l0.106,0.502l0.108-0.502h0.179l0.145,0.502l0.106-0.502h0.144l-0.18,0.717h-0.143l-0.143-0.538l-0.145,0.538
		H92.625z"/>
	<path clip-path="url(#SVGID_2_)" fill-rule="evenodd" clip-rule="evenodd" fill="#008ACF" d="M92.338,71.896
		c0.323,0,0.609,0.144,0.753,0.395h0.681v1.039h-0.681c-0.144,0.251-0.43,0.43-0.753,0.43c-0.322,0-0.608-0.179-0.753-0.43h-0.68
		v-1.039h0.68C91.729,72.04,92.016,71.896,92.338,71.896"/>
	<path clip-path="url(#SVGID_2_)" fill-rule="evenodd" clip-rule="evenodd" fill="#008ACF" d="M90.833,67.919h2.258l0.824,0.824
		h-2.258L90.833,67.919z M91.55,69.567l-0.789-0.824v-0.717l0.789,0.789V69.567z M91.657,69.604h2.258v-0.753h-2.258V69.604z"/>
	<path clip-path="url(#SVGID_2_)" fill-rule="evenodd" clip-rule="evenodd" fill="#008ACF" d="M83.845,81.394
		c0.036,0,0.072,0.035,0.072,0.071c0.144,0.144,0.251,0.251,0.395,0.394c0,0.145-0.036,0.251-0.036,0.359
		c0,0.215-0.036,0.394-0.036,0.608c-0.107,0.107-0.215,0.216-0.322,0.322c-0.107-0.106-0.179-0.215-0.287-0.322
		c0.036-0.286,0.072-0.608,0.108-0.932C83.738,81.716,83.738,81.536,83.845,81.394 M83.558,83.687
		c0.108-0.107,0.216-0.179,0.323-0.287c0.107,0.072,0.18,0.18,0.251,0.287c0,0.287-0.036,0.573-0.036,0.896
		c0,0.071-0.107,0.106-0.143,0.179c-0.144,0.107-0.251,0.215-0.359,0.323h-0.036c-0.143-0.251-0.034-0.538-0.034-0.789
		C83.558,84.081,83.523,83.901,83.558,83.687 M85.314,81.895c0.144-0.179,0.322-0.322,0.502-0.466
		c0.036,0.107,0.107,0.251,0.071,0.395c-0.035,0.322-0.035,0.681-0.071,1.003c-0.107,0.107-0.215,0.216-0.322,0.287
		c-0.108-0.071-0.18-0.18-0.251-0.287C85.243,82.504,85.278,82.218,85.314,81.895 M84.312,83.006
		c0.035-0.072,0.106-0.036,0.143-0.036h0.645c0.072,0.072,0.18,0.179,0.251,0.287c-0.106,0.106-0.215,0.215-0.321,0.322
		c-0.251-0.035-0.502,0-0.753-0.035c-0.072-0.072-0.18-0.181-0.251-0.287C84.132,83.185,84.203,83.077,84.312,83.006 M83.988,81.25
		c0.107-0.071,0.251-0.107,0.395-0.107h0.896c0.144,0,0.287,0.036,0.395,0.143c-0.144,0.144-0.287,0.287-0.43,0.431
		c-0.072,0.071-0.145,0.036-0.215,0.036h-0.574C84.275,81.608,84.168,81.429,83.988,81.25 M84.096,84.869
		c0.036-0.035,0.072-0.107,0.144-0.107h0.717c0.143,0.179,0.287,0.323,0.43,0.502c-0.107,0.071-0.251,0.106-0.394,0.106h-0.896
		c-0.143,0-0.286-0.035-0.394-0.143C83.81,85.119,83.953,84.977,84.096,84.869 M85.171,83.687c0.072-0.107,0.215-0.179,0.287-0.287
		c0.107,0.072,0.215,0.18,0.286,0.287c-0.035,0.358-0.071,0.717-0.107,1.075c0,0.143-0.035,0.287-0.107,0.394
		c-0.18-0.179-0.286-0.357-0.465-0.501C85.099,84.332,85.135,84.01,85.171,83.687"/>
	<path clip-path="url(#SVGID_2_)" fill-rule="evenodd" clip-rule="evenodd" fill="#008ACF" d="M86.712,81.394
		c0.036,0,0.036,0.035,0.072,0.071c0.106,0.144,0.25,0.251,0.358,0.394c0,0.145,0,0.251-0.036,0.359c0,0.215,0,0.394-0.036,0.608
		c-0.107,0.107-0.215,0.216-0.322,0.322c-0.072-0.106-0.179-0.215-0.251-0.322c0-0.286,0.036-0.608,0.072-0.932
		C86.569,81.716,86.604,81.536,86.712,81.394 M86.425,83.687c0.108-0.107,0.215-0.179,0.323-0.287
		c0.071,0.072,0.179,0.18,0.251,0.287c-0.036,0.287-0.036,0.573-0.072,0.896c0,0.071-0.071,0.106-0.143,0.179
		c-0.108,0.107-0.215,0.215-0.323,0.323h-0.072c-0.143-0.251-0.034-0.538-0.034-0.789C86.389,84.081,86.389,83.901,86.425,83.687
		 M88.146,81.895c0.18-0.179,0.358-0.322,0.502-0.466c0.071,0.107,0.107,0.251,0.107,0.395c-0.036,0.322-0.072,0.681-0.107,1.003
		c-0.107,0.107-0.216,0.216-0.322,0.287c-0.072-0.071-0.18-0.18-0.251-0.287C88.109,82.504,88.109,82.218,88.146,81.895
		 M87.178,83.006c0.036-0.072,0.071-0.036,0.107-0.036h0.645c0.108,0.072,0.18,0.179,0.287,0.287
		c-0.107,0.106-0.251,0.215-0.357,0.322c-0.251-0.035-0.466,0-0.717-0.035c-0.108-0.072-0.18-0.181-0.287-0.287
		C86.963,83.185,87.07,83.077,87.178,83.006 M86.855,81.25c0.107-0.071,0.251-0.107,0.394-0.107h0.86
		c0.144,0,0.322,0.036,0.431,0.143c-0.18,0.144-0.323,0.287-0.466,0.431c-0.036,0.071-0.145,0.036-0.215,0.036h-0.574
		C87.143,81.608,86.999,81.429,86.855,81.25 M86.927,84.869c0.036-0.035,0.107-0.107,0.144-0.107h0.717
		c0.143,0.179,0.287,0.323,0.43,0.502c-0.107,0.071-0.251,0.106-0.357,0.106h-0.933c-0.143,0-0.287-0.035-0.394-0.143
		C86.676,85.119,86.819,84.977,86.927,84.869 M88.002,83.687c0.107-0.107,0.215-0.179,0.323-0.287
		c0.071,0.072,0.179,0.18,0.25,0.287c0,0.358-0.071,0.717-0.071,1.075c-0.036,0.143-0.072,0.287-0.144,0.394
		c-0.144-0.179-0.286-0.357-0.431-0.501C87.93,84.332,87.966,84.01,88.002,83.687"/>
	<path clip-path="url(#SVGID_2_)" fill-rule="evenodd" clip-rule="evenodd" fill="#008ACF" d="M89.185,81.321
		c0.143-0.072,0.394,0,0.394,0.179c0.072,0.252-0.179,0.467-0.357,0.359C88.97,81.787,88.97,81.429,89.185,81.321"/>
	<path clip-path="url(#SVGID_2_)" fill-rule="evenodd" clip-rule="evenodd" fill="#008ACF" d="M90.547,82.504l0.251,0.072
		c-0.036,0.143-0.108,0.251-0.18,0.322c-0.107,0.071-0.215,0.107-0.358,0.107s-0.286-0.072-0.395-0.179
		c-0.143-0.108-0.179-0.287-0.179-0.466c0-0.216,0.036-0.396,0.179-0.502c0.108-0.144,0.251-0.18,0.43-0.18
		c0.145,0,0.287,0.036,0.359,0.144c0.071,0.036,0.107,0.107,0.144,0.215l-0.251,0.072c0-0.072-0.036-0.108-0.107-0.18
		c-0.036-0.036-0.108-0.036-0.18-0.036s-0.144,0.036-0.216,0.107c-0.07,0.072-0.106,0.18-0.106,0.323
		c0,0.179,0.036,0.287,0.106,0.357c0.036,0.072,0.145,0.108,0.216,0.108s0.144-0.036,0.18-0.072
		C90.511,82.683,90.547,82.612,90.547,82.504"/>
	<path clip-path="url(#SVGID_2_)" fill-rule="evenodd" clip-rule="evenodd" fill="#008ACF" d="M93.127,75.768
		c0.321,0.251,0.537,0.645,0.537,1.074c0,0.431-0.216,0.824-0.537,1.075v-0.215c0.251-0.215,0.394-0.502,0.394-0.86
		c0-0.322-0.143-0.645-0.394-0.859V75.768z M91.55,77.917c-0.323-0.251-0.537-0.645-0.537-1.075c0-0.43,0.214-0.823,0.537-1.074
		v0.215c-0.251,0.215-0.395,0.537-0.395,0.859c0,0.358,0.144,0.646,0.395,0.86V77.917z"/>
	<path clip-path="url(#SVGID_2_)" fill-rule="evenodd" clip-rule="evenodd" fill="#008ACF" d="M92.338,75.767
		c0.609,0,1.075,0.467,1.075,1.075c0,0.609-0.466,1.075-1.075,1.075c-0.608,0-1.074-0.466-1.074-1.075
		C91.264,76.233,91.729,75.767,92.338,75.767"/>
	<path clip-path="url(#SVGID_2_)" fill-rule="evenodd" clip-rule="evenodd" fill="#008ACF" d="M40.234,52.402h2.58v-1.29h0.681v1.29
		h0.465v4.981h-3.87v-4.981H40.234z M42.957,52.653h-2.616v4.479h3.369v-4.479h-0.466v-1.254H43.1v1.254H42.957z"/>
	<path clip-path="url(#SVGID_2_)" fill-rule="evenodd" clip-rule="evenodd" fill="#008ACF" d="M40.664,52.833h2.867v1.792H40.52
		v-1.792H40.664z M43.28,53.12h-2.508v1.254h2.508V53.12z"/>
	<path clip-path="url(#SVGID_2_)" fill-rule="evenodd" clip-rule="evenodd" fill="#008ACF" d="M42.671,56.309h0.753v0.538h-0.753
		V56.309z M40.592,54.911h0.788v0.538h-0.788V54.911z M40.592,55.627h0.788v0.538h-0.788V55.627z M40.592,56.309h0.788v0.538h-0.788
		V56.309z M41.631,56.309h0.788v0.538h-0.788V56.309z M41.631,55.627h0.788v0.538h-0.788V55.627z M41.631,54.911h0.788v0.538h-0.788
		V54.911z M42.671,54.911h0.753v0.538h-0.753V54.911z M42.671,55.627h0.753v0.538h-0.753V55.627z"/>
</g>
</svg>
