<?xml version="1.0" encoding="utf-8"?>
<!-- Generator: Adobe Illustrator 14.0.0, SVG Export Plug-In . SVG Version: 6.00 Build 43363)  -->
<!DOCTYPE svg PUBLIC "-//W3C//DTD SVG 1.1//EN" "http://www.w3.org/Graphics/SVG/1.1/DTD/svg11.dtd">
<svg version="1.1" id="Layer_1" xmlns="http://www.w3.org/2000/svg" xmlns:xlink="http://www.w3.org/1999/xlink" x="0px" y="0px"
	 width="141.73px" height="141.73px" viewBox="0 0 141.73 141.73" enable-background="new 0 0 141.73 141.73" xml:space="preserve">
<g>
	<defs>
		<rect id="SVGID_1_" y="0" width="141.73" height="141.73"/>
	</defs>
	<clipPath id="SVGID_2_">
		<use xlink:href="#SVGID_1_"  overflow="visible"/>
	</clipPath>
	<path clip-path="url(#SVGID_2_)" fill-rule="evenodd" clip-rule="evenodd" fill="#00A0F0" d="M85.765,7.394
		c16.878,3.978,31.355,14.406,40.494,29.134c9.138,14.728,12.04,32.359,8.063,49.238c-3.941,16.878-14.37,31.354-29.099,40.493
		c-14.729,9.138-32.359,12.041-49.237,8.063c-16.878-3.941-31.392-14.37-40.53-29.098C6.317,90.459,3.452,72.864,7.393,55.985
		c3.978-16.878,14.406-31.391,29.134-40.529C51.255,6.318,68.887,3.452,85.765,7.394"/>
	<path clip-path="url(#SVGID_2_)" fill-rule="evenodd" clip-rule="evenodd" fill="#FFFFFF" d="M70.857,24.2
		c25.837,0,46.801,20.928,46.801,46.765s-20.964,46.801-46.801,46.801c-25.837,0-46.765-20.964-46.765-46.801
		S45.02,24.2,70.857,24.2 M69.352,27.389h0.573l0.574-0.035c0.035,0,0.035,0,0.071,0.035h1.792c0.143,0,0.179,0.43,0.251,0.502
		l0.179,0.179l0.179-0.143c0.108-0.108,0.145-0.538,0.287-0.502l1.828,0.144h0.035l0.574,0.071l0.573,0.036l0.035,0.036l1.792,0.251
		c0.144,0,0.107,0.43,0.216,0.537l0.07,0.108l0.145-0.072c0.106-0.071,0.215-0.466,0.357-0.43L80.64,28.5
		c0.036-0.035,0.036-0.035,0.072-0.035l0.537,0.143l0.574,0.143c0,0,0.035,0,0.035,0.036l1.756,0.466
		c0.144,0.036,0.036,0.466,0.107,0.573l0.107,0.179l0.215-0.071c0.108-0.072,0.287-0.466,0.43-0.394l1.686,0.609h0.071l0.502,0.215
		l0.538,0.179c0.034,0.036,0.034,0.036,0.034,0.072l1.686,0.68c0.143,0.072,0,0.466,0.035,0.574l0.071,0.143l0.144-0.036
		c0.107-0.035,0.323-0.43,0.466-0.358l1.613,0.86c0-0.036,0.036-0.036,0.036,0l0.501,0.287l0.502,0.251
		c0.036,0,0.036,0.035,0.036,0.035l1.576,0.932c0.107,0.072-0.071,0.43-0.035,0.573l0.071,0.215l0.215-0.035
		c0.144-0.036,0.395-0.359,0.501-0.287l1.47,1.039c0.036,0,0.071,0,0.071,0.036l0.467,0.323l0.466,0.322v0.072l1.433,1.111
		c0.145,0.071-0.106,0.43-0.106,0.537l0.035,0.179l0.144-0.036c0.143,0,0.43-0.286,0.537-0.179l1.326,1.219h0.071l0.395,0.43
		l0.43,0.358c0,0.036,0.036,0.036,0.036,0.072l1.254,1.29c0.108,0.107-0.179,0.394-0.179,0.537v0.215l0.215,0.036
		c0.143,0,0.502-0.251,0.574-0.143l1.182,1.397c0,0,0.036,0,0.036,0.036l0.358,0.43l0.358,0.43v0.072l1.111,1.433
		c0.071,0.108-0.251,0.395-0.251,0.538l-0.036,0.143l0.179,0.036c0.108,0.036,0.466-0.179,0.573-0.072l0.968,1.541
		c0,0,0.036,0,0.036,0.036l0.286,0.466l0.323,0.502v0.071l0.896,1.541c0.071,0.144-0.287,0.359-0.323,0.502l-0.07,0.215l0.215,0.072
		c0.143,0.036,0.537-0.108,0.609,0.036l0.752,1.612c0,0.036,0.035,0.036,0.035,0.072l0.216,0.501l0.251,0.538v0.036l0.681,1.684
		c0.072,0.143-0.323,0.323-0.394,0.43l-0.036,0.143l0.143,0.072c0.108,0.072,0.502-0.036,0.574,0.108l0.537,1.72
		c0,0,0.036,0,0.036,0.036l0.143,0.537l0.179,0.538c0,0.035,0,0.071-0.034,0.071l0.466,1.756c0.07,0.144-0.359,0.251-0.432,0.394
		l-0.106,0.18l0.179,0.143c0.108,0.072,0.538,0,0.574,0.143l0.322,1.792v0.072l0.071,0.537l0.107,0.574v0.071l0.215,1.792
		c0.036,0.143-0.394,0.215-0.466,0.322l-0.107,0.108l0.107,0.108c0.107,0.071,0.538,0.071,0.538,0.215l0.071,1.827
		c0.035,0,0.035,0.036,0.035,0.072v0.537l0.036,0.574c0,0.036,0,0.036-0.036,0.071v1.792c0,0.144-0.43,0.18-0.501,0.287
		l-0.179,0.144l0.143,0.179c0.107,0.108,0.502,0.144,0.502,0.287l-0.18,1.828c0.036,0,0.036,0.035,0.036,0.035l-0.071,0.573
		l-0.036,0.573c-0.035,0-0.035,0.036-0.035,0.036l-0.251,1.792c-0.036,0.143-0.431,0.107-0.537,0.215l-0.145,0.071l0.108,0.144
		c0.071,0.107,0.466,0.215,0.43,0.358l-0.394,1.756c0.035,0.036,0.035,0.036,0,0.072l-0.145,0.537l-0.106,0.573l-0.036,0.035
		l-0.466,1.756c-0.036,0.145-0.467,0.036-0.573,0.108l-0.18,0.107l0.071,0.215c0.072,0.107,0.466,0.287,0.395,0.43l-0.609,1.685
		v0.071l-0.215,0.502l-0.215,0.538c0,0.035,0,0.035-0.036,0.071l-0.681,1.648c-0.071,0.144-0.466,0-0.573,0.035l-0.144,0.072
		l0.036,0.143c0.035,0.108,0.395,0.323,0.358,0.467l-0.86,1.612v0.072l-0.287,0.465l-0.251,0.502c0,0.036-0.036,0.036-0.07,0.036
		l-0.896,1.577c-0.072,0.143-0.43-0.072-0.574-0.036l-0.215,0.072l0.036,0.215c0.036,0.143,0.359,0.394,0.287,0.501L106.37,96.3
		c0,0.036,0,0.072-0.036,0.072l-0.323,0.466l-0.321,0.466c-0.036,0-0.036,0-0.072,0.036l-1.111,1.434
		c-0.07,0.107-0.43-0.144-0.573-0.144l-0.143,0.036v0.143c0.035,0.144,0.322,0.431,0.215,0.537l-1.219,1.362
		c0,0,0,0.036-0.036,0.036l-0.394,0.394l-0.395,0.431l-0.036,0.036l-1.29,1.254c-0.106,0.107-0.43-0.18-0.537-0.18h-0.215
		l-0.036,0.251c0,0.108,0.251,0.467,0.144,0.538l-1.398,1.183c0,0,0,0.036-0.035,0.036l-0.43,0.357l-0.466,0.359h-0.036l-1.434,1.11
		c-0.144,0.107-0.395-0.215-0.537-0.251l-0.144-0.035l-0.035,0.179c-0.036,0.107,0.179,0.502,0.07,0.573l-1.54,0.968
		c0,0,0,0.036-0.036,0.036l-0.502,0.286l-0.466,0.322h-0.072l-1.575,0.896c-0.108,0.072-0.323-0.287-0.467-0.323l-0.215-0.036
		l-0.071,0.18c-0.036,0.144,0.107,0.537-0.036,0.609l-1.648,0.752c0,0,0,0.036-0.036,0.036l-0.502,0.215l-0.537,0.251h-0.036
		l-1.684,0.682c-0.144,0.071-0.323-0.323-0.43-0.358l-0.145-0.072l-0.07,0.144c-0.072,0.107,0.035,0.502-0.108,0.573l-1.72,0.537
		l-0.036,0.036l-0.537,0.144l-0.574,0.18c0,0-0.035,0-0.035-0.036l-1.756,0.501c-0.144,0.036-0.287-0.394-0.395-0.465l-0.18-0.108
		l-0.143,0.18c-0.072,0.144-0.036,0.538-0.179,0.573l-1.756,0.322c-0.036,0-0.036,0-0.072,0.036l-0.537,0.072l-0.574,0.07h-0.071
		l-1.792,0.216c-0.143,0.035-0.215-0.395-0.322-0.467l-0.107-0.106l-0.107,0.143c-0.107,0.072-0.107,0.502-0.252,0.502l-1.79,0.072
		c-0.036,0.035-0.036,0.035-0.072,0.035h-0.573l-0.538,0.036c-0.036,0-0.071,0-0.071-0.036h-1.828c-0.143,0-0.143-0.43-0.251-0.501
		l-0.143-0.179l-0.179,0.143c-0.108,0.107-0.18,0.502-0.287,0.502l-1.828-0.144h-0.036l-0.573-0.071l-0.573-0.036
		c-0.036,0-0.036-0.036-0.036-0.036l-1.828-0.251c-0.107,0-0.107-0.43-0.179-0.537l-0.072-0.144l-0.143,0.107
		c-0.107,0.071-0.215,0.467-0.358,0.431l-1.756-0.395c-0.036,0.035-0.072,0.035-0.072,0.035l-0.537-0.179l-0.574-0.107l-0.036-0.036
		l-1.755-0.466c-0.144-0.036-0.036-0.466-0.108-0.573l-0.108-0.18l-0.215,0.072c-0.107,0.072-0.286,0.466-0.43,0.394l-1.684-0.608
		H55.52l-0.538-0.215l-0.502-0.18c-0.036-0.036-0.036-0.036-0.071-0.072l-1.649-0.681c-0.143-0.071,0-0.465-0.071-0.573
		l-0.036-0.143l-0.144,0.036c-0.143,0.035-0.358,0.394-0.465,0.357l-1.613-0.859h-0.072l-0.501-0.287l-0.466-0.251
		c-0.036,0-0.036-0.036-0.072-0.071l-1.541-0.896c-0.143-0.072,0.072-0.431,0.036-0.574l-0.072-0.215l-0.215,0.036
		c-0.143,0.035-0.394,0.358-0.501,0.286l-1.505-1.038c0,0-0.036,0-0.036-0.036l-0.466-0.323l-0.466-0.322
		c0-0.036-0.036-0.036-0.036-0.072l-1.433-1.11c-0.108-0.071,0.143-0.431,0.107-0.573v-0.143h-0.143
		c-0.143,0.034-0.466,0.321-0.573,0.215l-1.326-1.219c0,0-0.036,0-0.036-0.036l-0.394-0.395l-0.43-0.357
		c-0.036-0.036-0.036-0.036-0.036-0.072l-1.29-1.29c-0.072-0.107,0.179-0.395,0.179-0.537l0.036-0.215l-0.251-0.036
		c-0.108,0-0.466,0.251-0.538,0.143l-1.182-1.397c-0.036,0-0.036,0-0.036-0.035l-0.358-0.43l-0.359-0.466
		c-0.036,0-0.036-0.036-0.036-0.036L35.344,96.3c-0.107-0.143,0.215-0.394,0.251-0.537V95.62l-0.143-0.036
		c-0.108-0.036-0.502,0.179-0.574,0.071l-0.967-1.54c-0.036,0-0.036,0-0.036-0.036l-0.287-0.502l-0.322-0.466v-0.072l-0.896-1.54
		c-0.072-0.144,0.287-0.359,0.323-0.502l0.035-0.215l-0.215-0.072c-0.107-0.036-0.501,0.108-0.573-0.036l-0.753-1.611
		c-0.035-0.036-0.035-0.036-0.035-0.072l-0.215-0.502l-0.251-0.537v-0.036l-0.681-1.684c-0.072-0.145,0.322-0.323,0.358-0.431
		l0.072-0.144l-0.143-0.071c-0.108-0.072-0.538,0.036-0.574-0.107l-0.537-1.721c-0.036,0-0.036-0.036-0.036-0.036l-0.143-0.536
		l-0.18-0.574v-0.035l-0.466-1.756c-0.035-0.145,0.359-0.287,0.43-0.395l0.108-0.18l-0.179-0.143
		c-0.108-0.072-0.502-0.036-0.538-0.18l-0.322-1.756c0-0.036-0.036-0.036-0.036-0.072l-0.072-0.537l-0.107-0.573
		c0-0.035,0.036-0.035,0.036-0.071l-0.251-1.792c0-0.143,0.43-0.215,0.501-0.323l0.072-0.106l-0.107-0.108
		c-0.072-0.106-0.502-0.106-0.502-0.25l-0.108-1.792V72.47v-0.537l-0.035-0.574c0-0.036,0-0.036,0.035-0.071v-1.792
		c0-0.144,0.395-0.179,0.502-0.287l0.179-0.143l-0.179-0.179c-0.072-0.108-0.502-0.144-0.466-0.287l0.144-1.828v-0.036l0.071-0.573
		l0.036-0.573l0.036-0.036l0.251-1.792c0-0.143,0.43-0.107,0.537-0.215l0.108-0.072l-0.072-0.143
		c-0.072-0.107-0.466-0.215-0.43-0.358l0.394-1.756c-0.036-0.036-0.036-0.036-0.036-0.072l0.144-0.537l0.143-0.574
		c0,0,0-0.036,0.036-0.036l0.466-1.755c0.036-0.144,0.466-0.036,0.573-0.108l0.179-0.107l-0.071-0.215
		c-0.072-0.108-0.466-0.287-0.43-0.431l0.645-1.684v-0.071l0.215-0.538l0.179-0.502c0-0.035,0.036-0.035,0.072-0.071l0.68-1.649
		c0.036-0.143,0.466,0,0.574-0.036l0.143-0.071l-0.036-0.144c-0.036-0.143-0.43-0.358-0.358-0.465l0.86-1.613
		c-0.036-0.036-0.036-0.036,0-0.072l0.287-0.466l0.251-0.501c0-0.036,0.035-0.036,0.035-0.036l0.932-1.577
		c0.072-0.143,0.43,0.072,0.573,0.036l0.215-0.072l-0.035-0.215c-0.036-0.143-0.359-0.394-0.287-0.501l1.039-1.505v-0.036
		l0.359-0.466l0.322-0.466c0.036,0,0.036-0.036,0.072-0.036l1.111-1.433c0.071-0.108,0.43,0.143,0.537,0.107h0.179l-0.036-0.143
		c0-0.143-0.286-0.466-0.179-0.538l1.219-1.361v-0.036l0.394-0.394l0.394-0.43c0.036-0.036,0.036-0.036,0.072-0.036l1.29-1.29
		c0.071-0.072,0.394,0.215,0.537,0.215h0.215l0.036-0.251c0-0.108-0.251-0.466-0.143-0.538l1.397-1.182c0,0,0-0.036,0.036-0.036
		l0.43-0.358l0.43-0.359c0.036-0.036,0.036-0.036,0.072-0.036l1.433-1.075c0.108-0.107,0.395,0.215,0.538,0.251h0.143l0.036-0.143
		c0.036-0.108-0.179-0.502-0.072-0.574l1.541-0.967c0-0.036,0-0.036,0.036-0.036l0.466-0.287l0.502-0.322h0.071l1.541-0.896
		c0.144-0.072,0.359,0.287,0.502,0.323l0.215,0.035l0.072-0.215c0.035-0.107-0.108-0.501,0-0.573l1.648-0.753l0.036-0.035
		l0.537-0.215l0.502-0.251h0.072l1.684-0.681c0.143-0.072,0.323,0.322,0.43,0.358l0.143,0.072l0.072-0.143
		c0.072-0.108-0.036-0.538,0.072-0.574l1.756-0.537c0,0,0-0.036,0.036-0.036l0.537-0.143l0.538-0.18h0.071l1.756-0.465
		c0.143-0.036,0.251,0.394,0.394,0.43l0.18,0.143l0.143-0.215c0.072-0.108,0-0.502,0.143-0.538l1.792-0.322
		c0,0,0.036-0.036,0.072-0.036l0.537-0.072l0.574-0.071c0-0.036,0.035,0,0.071,0l1.792-0.251c0.143,0,0.215,0.43,0.322,0.501
		l0.108,0.072l0.107-0.107c0.072-0.072,0.072-0.502,0.216-0.502l1.827-0.108H69.352z M70.857,28.178
		c23.651,0,42.823,19.172,42.823,42.787c0,23.651-19.172,42.823-42.823,42.823c-23.615,0-42.787-19.172-42.787-42.823
		C28.07,47.35,47.242,28.178,70.857,28.178 M70.857,38.14c18.168,0,32.861,14.692,32.861,32.825
		c0,18.168-14.692,32.861-32.861,32.861c-18.133,0-32.825-14.693-32.825-32.861C38.032,52.832,52.724,38.14,70.857,38.14"/>
	<path clip-path="url(#SVGID_2_)" fill-rule="evenodd" clip-rule="evenodd" fill="#FFFFFF" d="M69.244,23.698h3.261
		c0.145,0,0.181,0.466,0.287,0.574l0.682,0.68c0.106,0.108-0.108,0.251-0.287,0.251h-4.658c-0.144,0-0.359-0.143-0.287-0.251
		l0.717-0.68C69.065,24.164,69.101,23.698,69.244,23.698 M93.111,29.217l2.795,1.612c0.143,0.108-0.072,0.502-0.036,0.645
		l0.287,0.968c0.035,0.143-0.251,0.143-0.396,0.072l-4.049-2.33c-0.107-0.071-0.251-0.322-0.107-0.358l0.968-0.251
		C92.716,29.539,92.967,29.146,93.111,29.217 M45.808,111.101l2.831,1.648c0.143,0.071,0.394-0.323,0.538-0.358l0.967-0.251
		c0.108-0.035,0-0.286-0.143-0.358l-4.05-2.329c-0.107-0.072-0.394-0.072-0.358,0.071l0.251,0.968
		C45.88,110.634,45.701,111.029,45.808,111.101 M112.642,93.219l-1.649,2.796c-0.071,0.143-0.466-0.072-0.609-0.036l-0.967,0.286
		c-0.144,0.035-0.144-0.25-0.072-0.395l2.329-4.013c0.072-0.145,0.323-0.287,0.359-0.145l0.25,0.969
		C112.318,92.824,112.712,93.075,112.642,93.219 M30.722,45.917l-1.613,2.831c-0.072,0.143,0.322,0.394,0.358,0.538l0.251,0.967
		c0.036,0.143,0.287,0,0.358-0.143l2.33-4.014c0.071-0.143,0.071-0.43-0.072-0.394l-0.967,0.251
		C31.223,45.988,30.829,45.809,30.722,45.917 M116.117,57.168l0.86,3.154c0.036,0.143-0.395,0.286-0.502,0.394l-0.502,0.896
		c-0.071,0.107-0.25-0.072-0.286-0.215l-1.22-4.515c-0.034-0.144,0.036-0.395,0.181-0.323l0.859,0.502
		C115.615,57.132,116.081,57.025,116.117,57.168 M24.773,81.645l0.86,3.152c0.036,0.145,0.466,0.036,0.609,0.108l0.86,0.501
		c0.144,0.072,0.215-0.179,0.179-0.322l-1.218-4.515c-0.036-0.145-0.251-0.323-0.323-0.215l-0.501,0.859
		C25.167,81.357,24.737,81.5,24.773,81.645 M84.689,116.226l-3.153,0.859c-0.144,0.036-0.287-0.394-0.43-0.466l-0.86-0.502
		c-0.107-0.072,0.071-0.287,0.215-0.322l4.516-1.219c0.143-0.036,0.394,0.036,0.321,0.179l-0.501,0.86
		C84.726,115.759,84.833,116.189,84.689,116.226 M60.214,24.881l-3.154,0.86c-0.143,0.036-0.071,0.466-0.143,0.609l-0.466,0.86
		c-0.071,0.143,0.179,0.215,0.323,0.179l4.515-1.218c0.143-0.036,0.322-0.251,0.215-0.323l-0.896-0.501
		C60.501,25.275,60.357,24.845,60.214,24.881 M81.536,24.881l3.153,0.86c0.144,0.036,0.036,0.466,0.107,0.609l0.501,0.86
		c0.072,0.143-0.179,0.215-0.321,0.179l-4.516-1.218c-0.144-0.036-0.322-0.251-0.215-0.323l0.86-0.501
		C81.249,25.275,81.393,24.845,81.536,24.881 M57.06,116.226l3.154,0.859c0.143,0.036,0.287-0.394,0.394-0.466l0.896-0.502
		c0.107-0.072-0.072-0.287-0.215-0.322l-4.515-1.219c-0.144-0.036-0.394,0.036-0.323,0.179l0.466,0.86
		C56.989,115.759,56.917,116.189,57.06,116.226 M116.978,81.645l-0.86,3.152c-0.036,0.145-0.502,0.036-0.609,0.108l-0.859,0.501
		c-0.145,0.072-0.215-0.179-0.181-0.322l1.22-4.515c0.036-0.145,0.215-0.323,0.286-0.215l0.537,0.859
		C116.583,81.357,117.014,81.5,116.978,81.645 M25.633,57.168l-0.86,3.154c-0.036,0.143,0.394,0.286,0.466,0.394l0.501,0.896
		c0.072,0.107,0.287-0.072,0.323-0.215l1.218-4.515c0.036-0.144-0.035-0.395-0.179-0.323l-0.86,0.502
		C26.099,57.132,25.669,57.025,25.633,57.168 M110.992,45.917l1.649,2.831c0.07,0.143-0.323,0.394-0.359,0.538l-0.25,0.967
		c-0.036,0.143-0.287,0-0.359-0.143l-2.329-4.014c-0.071-0.143-0.071-0.43,0.072-0.394l0.967,0.251
		C110.526,45.988,110.921,45.809,110.992,45.917 M29.109,93.219l1.613,2.796c0.107,0.143,0.501-0.072,0.645-0.036l0.967,0.286
		c0.143,0.035,0.143-0.25,0.072-0.395l-2.33-4.013c-0.071-0.145-0.322-0.287-0.358-0.145l-0.251,0.969
		C29.431,92.824,29.037,93.075,29.109,93.219 M95.906,111.101l-2.795,1.648c-0.145,0.071-0.396-0.323-0.538-0.358l-0.968-0.251
		c-0.144-0.035,0-0.286,0.107-0.358l4.049-2.329c0.145-0.072,0.431-0.072,0.396,0.071l-0.287,0.968
		C95.834,110.634,96.049,111.029,95.906,111.101 M48.639,29.217l-2.831,1.612c-0.107,0.108,0.072,0.502,0.036,0.645l-0.251,0.968
		c-0.036,0.143,0.251,0.143,0.358,0.072l4.05-2.33c0.143-0.071,0.251-0.322,0.143-0.358l-0.967-0.251
		C49.033,29.539,48.782,29.146,48.639,29.217 M98.414,32.514l2.58,1.971c0.108,0.107-0.143,0.501-0.107,0.645l0.107,0.967
		c0.036,0.144-0.251,0.144-0.358,0.036l-3.727-2.831c-0.107-0.107-0.215-0.358-0.072-0.394l1.004-0.108
		C97.984,32.765,98.308,32.406,98.414,32.514 M40.755,107.445l2.581,2.007c0.107,0.107,0.43-0.251,0.573-0.287l0.967-0.106
		c0.144-0.036,0.072-0.287-0.071-0.396l-3.691-2.831c-0.108-0.106-0.394-0.106-0.359,0.036l0.108,0.968
		C40.899,106.979,40.612,107.373,40.755,107.445 M109.344,98.522l-2.007,2.58c-0.071,0.107-0.466-0.144-0.608-0.107l-0.969,0.107
		c-0.143,0.036-0.143-0.251-0.034-0.358l2.831-3.69c0.106-0.145,0.357-0.216,0.394-0.072l0.107,0.968
		C109.093,98.092,109.416,98.415,109.344,98.522 M34.377,40.863l-1.971,2.58c-0.108,0.108,0.251,0.43,0.286,0.574l0.108,0.967
		c0.036,0.144,0.287,0.072,0.394-0.071l2.831-3.691c0.108-0.108,0.108-0.395-0.036-0.359l-0.967,0.108
		C34.878,41.007,34.484,40.72,34.377,40.863 M117.55,63.26l0.431,3.225c0,0.144-0.431,0.251-0.537,0.359l-0.61,0.788
		c-0.071,0.108-0.25-0.107-0.286-0.251l-0.608-4.622c0-0.144,0.106-0.395,0.215-0.323l0.788,0.609
		C117.084,63.153,117.515,63.117,117.55,63.26 M23.769,75.48l0.431,3.225c0,0.145,0.465,0.108,0.573,0.215l0.824,0.609
		c0.108,0.072,0.215-0.179,0.179-0.322l-0.573-4.623c-0.036-0.143-0.215-0.357-0.287-0.251l-0.609,0.789
		C24.2,75.229,23.769,75.337,23.769,75.48 M78.598,117.658l-3.226,0.43c-0.143,0-0.251-0.43-0.357-0.537l-0.789-0.609
		c-0.107-0.071,0.107-0.25,0.251-0.286l4.623-0.61c0.143,0,0.394,0.108,0.322,0.216l-0.609,0.788
		C78.705,117.192,78.741,117.622,78.598,117.658 M66.378,23.877l-3.226,0.43c-0.179,0-0.143,0.466-0.215,0.574l-0.609,0.824
		c-0.072,0.107,0.143,0.215,0.323,0.215l4.622-0.609c0.144-0.036,0.359-0.215,0.251-0.287l-0.788-0.609
		C66.593,24.307,66.521,23.877,66.378,23.877 M87.521,26.708l3.01,1.255c0.144,0.035-0.035,0.465,0.036,0.609l0.394,0.931
		c0.036,0.144-0.215,0.18-0.357,0.108l-4.336-1.792c-0.144-0.036-0.287-0.286-0.144-0.322l0.932-0.394
		C87.162,27.067,87.377,26.637,87.521,26.708 M51.219,114.003l3.01,1.254c0.144,0.072,0.323-0.357,0.466-0.394l0.932-0.394
		c0.143-0.036-0.036-0.287-0.179-0.323l-4.3-1.792c-0.144-0.071-0.395-0.035-0.359,0.107l0.394,0.933
		C51.219,113.537,51.076,113.967,51.219,114.003 M115.149,87.628l-1.254,3.011c-0.036,0.144-0.466,0-0.609,0.035l-0.932,0.395
		c-0.144,0.036-0.18-0.215-0.107-0.358l1.791-4.3c0.036-0.144,0.251-0.323,0.323-0.179l0.394,0.931
		C114.791,87.271,115.222,87.485,115.149,87.628 M27.819,51.327l-1.219,3.01c-0.071,0.144,0.323,0.323,0.395,0.466l0.394,0.932
		c0.036,0.143,0.287-0.036,0.322-0.179l1.792-4.301c0.072-0.143,0.036-0.394-0.107-0.358l-0.932,0.394
		C28.321,51.327,27.891,51.184,27.819,51.327 M113.967,51.435l1.219,3.01c0.071,0.143-0.358,0.358-0.395,0.466l-0.394,0.931
		c-0.036,0.144-0.287-0.035-0.323-0.179l-1.792-4.3c-0.071-0.143,0-0.394,0.108-0.358l0.932,0.394
		C113.465,51.435,113.896,51.292,113.967,51.435 M26.529,87.521l1.254,3.01c0.072,0.143,0.502,0,0.645,0.036l0.896,0.394
		c0.143,0.036,0.179-0.215,0.143-0.358l-1.791-4.336c-0.072-0.144-0.287-0.286-0.323-0.144l-0.394,0.933
		C26.887,87.162,26.493,87.377,26.529,87.521 M90.423,114.075l-3.01,1.218c-0.144,0.072-0.358-0.357-0.466-0.394l-0.932-0.395
		c-0.144-0.035,0-0.286,0.144-0.322l4.336-1.792c0.144-0.071,0.395,0,0.358,0.107l-0.395,0.933
		C90.387,113.573,90.566,114.003,90.423,114.075 M54.337,26.637l-3.01,1.254c-0.144,0.072,0,0.502-0.036,0.645l-0.394,0.896
		c-0.036,0.143,0.215,0.179,0.358,0.143l4.3-1.792c0.144-0.035,0.323-0.286,0.179-0.322l-0.931-0.394
		C54.659,26.995,54.48,26.601,54.337,26.637 M75.48,23.913l3.225,0.394c0.179,0.036,0.144,0.502,0.215,0.61l0.609,0.788
		c0.072,0.107-0.179,0.251-0.322,0.215l-4.623-0.609c-0.144-0.036-0.358-0.179-0.251-0.287l0.788-0.609
		C75.266,24.343,75.336,23.877,75.48,23.913 M63.009,117.622l3.225,0.431c0.179,0.035,0.251-0.431,0.359-0.502l0.788-0.609
		c0.143-0.107-0.072-0.286-0.215-0.286l-4.623-0.61c-0.179-0.034-0.43,0.072-0.322,0.216l0.609,0.788
		C62.902,117.156,62.866,117.622,63.009,117.622 M117.944,75.588l-0.43,3.226c0,0.179-0.467,0.143-0.573,0.215l-0.788,0.609
		c-0.145,0.071-0.251-0.144-0.215-0.323l0.608-4.622c0-0.145,0.18-0.359,0.286-0.251l0.61,0.788
		C117.515,75.373,117.98,75.444,117.944,75.588 M24.2,63.153l-0.431,3.225c0,0.143,0.431,0.215,0.538,0.322l0.609,0.825
		c0.072,0.107,0.251-0.108,0.287-0.251l0.609-4.623c0.036-0.179-0.107-0.43-0.215-0.322l-0.788,0.609
		C24.701,63.009,24.235,62.974,24.2,63.153 M107.445,40.935l1.971,2.616c0.071,0.107-0.251,0.394-0.287,0.537l-0.143,1.004
		c0,0.143-0.251,0.036-0.359-0.072l-2.831-3.691c-0.106-0.143-0.106-0.394,0.036-0.394l0.968,0.143
		C106.943,41.078,107.337,40.827,107.445,40.935 M32.334,98.415l1.971,2.58c0.108,0.144,0.466-0.107,0.609-0.107l1.004,0.144
		c0.143,0,0.107-0.251,0.035-0.395l-2.831-3.691c-0.107-0.143-0.358-0.215-0.394-0.071l-0.107,0.967
		C32.585,98.021,32.227,98.308,32.334,98.415 M100.887,107.554l-2.579,1.97c-0.108,0.072-0.431-0.25-0.574-0.286l-0.967-0.144
		c-0.145,0-0.072-0.25,0.07-0.358l3.691-2.831c0.144-0.107,0.395-0.107,0.395,0.036l-0.144,0.967
		C100.779,107.051,101.03,107.445,100.887,107.554 M69.244,118.268h3.261c0.145,0,0.181-0.467,0.287-0.573l0.682-0.717
		c0.106-0.071-0.108-0.251-0.287-0.251h-4.658c-0.144,0-0.359,0.18-0.287,0.251l0.717,0.717
		C69.065,117.801,69.101,118.268,69.244,118.268 M118.159,69.352v3.261c0,0.144-0.465,0.179-0.573,0.287l-0.717,0.681
		c-0.107,0.107-0.251-0.107-0.251-0.251v-4.694c0-0.144,0.144-0.359,0.251-0.287l0.717,0.717
		C117.694,69.173,118.159,69.209,118.159,69.352 M23.59,69.352v3.261c0,0.144,0.466,0.179,0.574,0.287l0.681,0.681
		c0.107,0.107,0.25-0.107,0.25-0.251v-4.694c0-0.144-0.143-0.359-0.25-0.287l-0.681,0.717C24.056,69.173,23.59,69.209,23.59,69.352
		 M103.145,36.384l2.294,2.329c0.143,0.108-0.18,0.43-0.18,0.574v1.003c0,0.143-0.286,0.107-0.394-0.036l-3.297-3.297
		c-0.108-0.107-0.145-0.358,0-0.358h1.003C102.714,36.599,103.037,36.276,103.145,36.384 M36.276,103.252l2.293,2.33
		c0.144,0.107,0.466-0.215,0.61-0.215h1.003c0.143,0,0.072-0.287-0.036-0.395l-3.297-3.297c-0.107-0.107-0.358-0.144-0.358,0v1.004
		C36.491,102.822,36.168,103.146,36.276,103.252 M105.438,103.252l-2.294,2.33c-0.107,0.107-0.431-0.215-0.573-0.215h-1.003
		c-0.145,0-0.108-0.287,0-0.395l3.297-3.297c0.107-0.107,0.394-0.144,0.394,0v1.004
		C105.259,102.822,105.581,103.146,105.438,103.252 M38.569,36.384l-2.293,2.329c-0.108,0.108,0.215,0.43,0.215,0.574v1.003
		c0,0.143,0.251,0.107,0.358-0.036l3.297-3.297c0.108-0.107,0.179-0.358,0.036-0.358h-1.003
		C39.035,36.599,38.713,36.276,38.569,36.384 M43.443,32.442l-2.616,1.971c-0.107,0.107,0.143,0.466,0.143,0.609l-0.143,1.004
		c0,0.143,0.251,0.107,0.394,0.035l3.691-2.831c0.108-0.107,0.215-0.358,0.072-0.394l-1.003-0.107
		C43.837,32.693,43.551,32.334,43.443,32.442"/>
</g>
</svg>
