<?xml version="1.0" encoding="utf-8"?>
<!-- Generator: Adobe Illustrator 14.0.0, SVG Export Plug-In . SVG Version: 6.00 Build 43363)  -->
<!DOCTYPE svg PUBLIC "-//W3C//DTD SVG 1.1//EN" "http://www.w3.org/Graphics/SVG/1.1/DTD/svg11.dtd">
<svg version="1.1" id="Layer_1" xmlns="http://www.w3.org/2000/svg" xmlns:xlink="http://www.w3.org/1999/xlink" x="0px" y="0px"
	 width="141.73px" height="141.73px" viewBox="0 0 141.73 141.73" enable-background="new 0 0 141.73 141.73" xml:space="preserve">
<g>
	<defs>
		<rect id="SVGID_1_" y="0" width="141.73" height="141.73"/>
	</defs>
	<clipPath id="SVGID_2_">
		<use xlink:href="#SVGID_1_"  overflow="visible"/>
	</clipPath>
	<path clip-path="url(#SVGID_2_)" fill-rule="evenodd" clip-rule="evenodd" fill="#00A0F0" d="M85.744,7.394
		c16.878,3.978,31.393,14.406,40.53,29.134s12.004,32.359,8.063,49.238c-3.979,16.878-14.406,31.354-29.135,40.493
		c-14.729,9.138-32.323,12.041-49.238,8.063c-16.878-3.941-31.356-14.37-40.494-29.098C6.333,90.459,3.432,72.864,7.409,55.985
		c3.942-16.878,14.37-31.391,29.098-40.529C51.271,6.318,68.867,3.452,85.744,7.394"/>
	<path clip-path="url(#SVGID_2_)" fill-rule="evenodd" clip-rule="evenodd" fill="#FFFFFF" d="M80.297,29.826
		c5.412,1.29,10.357,3.584,14.657,6.666c4.444,3.189,8.17,7.202,11.001,11.789c2.831,4.551,4.767,9.676,5.662,15.087
		c0.86,5.196,0.717,10.643-0.573,16.09c-1.254,5.411-3.583,10.356-6.629,14.657c-3.19,4.407-7.239,8.134-11.79,11.001
		c-4.587,2.831-9.712,4.766-15.123,5.662c-5.196,0.859-10.643,0.717-16.054-0.573c-5.447-1.255-10.392-3.584-14.656-6.63
		c-4.444-3.226-8.171-7.239-11.002-11.79c-2.867-4.587-4.802-9.711-5.698-15.122c-0.824-5.196-0.716-10.643,0.574-16.054
		c1.29-5.447,3.583-10.393,6.665-14.657c3.189-4.444,7.203-8.17,11.79-11.037c4.551-2.831,9.675-4.766,15.086-5.662
		C69.404,28.429,74.852,28.536,80.297,29.826 M93.449,38.57c-4.014-2.867-8.636-5.017-13.761-6.235
		c-5.089-1.183-10.213-1.326-15.05-0.538c-5.089,0.824-9.891,2.652-14.191,5.34c-4.265,2.651-8.027,6.127-11.037,10.284
		c-2.867,4.014-5.017,8.637-6.236,13.761c-1.182,5.089-1.326,10.213-0.537,15.087c0.86,5.052,2.687,9.854,5.339,14.154
		c2.652,4.265,6.128,8.063,10.321,11.037c3.977,2.867,8.6,5.052,13.725,6.235c5.124,1.183,10.213,1.326,15.086,0.538
		c5.053-0.825,9.854-2.652,14.154-5.34c4.301-2.652,8.063-6.129,11.037-10.285c2.903-4.014,5.054-8.637,6.236-13.761
		c1.218-5.089,1.326-10.212,0.537-15.086c-0.824-5.053-2.652-9.855-5.303-14.155C101.082,45.343,97.606,41.544,93.449,38.57"/>
	<path clip-path="url(#SVGID_2_)" fill-rule="evenodd" clip-rule="evenodd" fill="#FFFFFF" d="M70.873,39.824l0.43,20.57
		c-0.143-0.036-0.287-0.036-0.43-0.036s-0.287,0-0.43,0.036L70.873,39.824z M55.822,43.873l10.643,17.56
		c-0.251,0.143-0.501,0.286-0.752,0.43L55.822,43.873z M75.997,77.953l9.891,18.025L75.245,78.383
		C75.496,78.239,75.747,78.096,75.997,77.953 M96.925,54.875L79.33,65.518c-0.144-0.251-0.287-0.502-0.43-0.753L96.925,54.875z
		 M62.81,75.05l-17.989,9.892L62.38,74.298C62.523,74.548,62.667,74.799,62.81,75.05 M78.648,40.863L73.74,60.824
		c-0.251-0.108-0.538-0.18-0.824-0.215L78.648,40.863z M68.83,79.207l-5.769,19.745l4.909-19.96
		C68.257,79.1,68.544,79.171,68.83,79.207 M99.935,77.702l-19.996-4.91c0.108-0.286,0.18-0.537,0.251-0.824L99.935,77.702z
		 M61.556,67.847l-19.745-5.733l19.96,4.909C61.699,67.31,61.592,67.561,61.556,67.847 M63.061,40.863l5.769,19.746
		c-0.286,0.035-0.573,0.107-0.86,0.215L63.061,40.863z M73.74,78.992l4.908,19.96l-5.732-19.745
		C73.202,79.171,73.489,79.1,73.74,78.992 M99.935,62.114l-19.745,5.733c-0.071-0.286-0.143-0.537-0.251-0.824L99.935,62.114z
		 M61.771,72.792l-19.96,4.91l19.745-5.734C61.592,72.255,61.699,72.506,61.771,72.792 M85.888,43.873l-9.891,17.99
		c-0.25-0.144-0.501-0.287-0.752-0.43L85.888,43.873z M66.465,78.383L55.822,95.979l9.891-18.025
		C65.964,78.096,66.214,78.239,66.465,78.383 M100.938,69.926l-20.533,0.43v-0.43V69.46L100.938,69.926z M92.123,48.64
		L77.896,63.475c-0.179-0.215-0.395-0.43-0.609-0.609L92.123,48.64z M92.123,91.176L77.287,76.949
		c0.215-0.179,0.431-0.395,0.609-0.609L92.123,91.176z M96.925,84.941L78.9,75.05c0.143-0.251,0.286-0.502,0.43-0.752L96.925,84.941
		z M62.38,65.518L44.821,54.875l17.989,9.89C62.667,65.016,62.523,65.267,62.38,65.518 M63.813,63.475L49.587,48.64l14.836,14.226
		C64.208,63.045,64.028,63.26,63.813,63.475 M64.423,76.949L49.587,91.176L63.813,76.34C64.028,76.555,64.208,76.771,64.423,76.949
		 M61.341,70.356l-20.57-0.43l20.57-0.466v0.466V70.356z M71.303,79.422l-0.43,20.569l-0.43-20.569
		c0.143,0.036,0.287,0.036,0.43,0.036S71.16,79.458,71.303,79.422"/>
	<path clip-path="url(#SVGID_2_)" fill-rule="evenodd" clip-rule="evenodd" fill="#FFFFFF" d="M70.873,34.485
		c19.565,0,35.405,15.875,35.405,35.441c0,19.566-15.84,35.405-35.405,35.405c-19.566,0-35.441-15.839-35.441-35.405
		C35.432,50.36,51.307,34.485,70.873,34.485 M70.873,39.072c17.021,0,30.854,13.797,30.854,30.854
		c0,17.022-13.832,30.818-30.854,30.818c-17.058,0-30.854-13.796-30.854-30.818C40.019,52.869,53.815,39.072,70.873,39.072"/>
	<path clip-path="url(#SVGID_2_)" fill-rule="evenodd" clip-rule="evenodd" fill="#FFFFFF" d="M70.873,60.035
		c5.447,0,9.854,4.444,9.854,9.891c0,5.411-4.407,9.855-9.854,9.855c-5.447,0-9.855-4.444-9.855-9.855
		C61.018,64.479,65.426,60.035,70.873,60.035 M63.276,73.044c-0.144-0.396,0.035-0.789,0.394-0.932c0.358-0.18,0.788,0,0.932,0.357
		c0.143,0.395-0.036,0.789-0.395,0.933C63.849,73.581,63.455,73.402,63.276,73.044 M71.052,68.134c0.143,0,0.251,0.036,0.358,0.072
		c0-0.036,0.036-0.036,0.036-0.072c0.036-0.071,0.143-0.107,0.215-0.071c0.108,0.035,0.144,0.143,0.108,0.215
		c-0.036,0.035-0.036,0.035-0.036,0.071c0.106,0.036,0.215,0.108,0.286,0.215c0-0.036,0.036-0.036,0.036-0.071
		c0.071-0.072,0.179-0.036,0.251,0c0.071,0.071,0.071,0.179,0,0.25l-0.036,0.036c0.071,0.108,0.144,0.215,0.179,0.323l0.036-0.036
		c0.107-0.036,0.215,0,0.251,0.107c0.036,0.072-0.036,0.18-0.107,0.215h-0.071c0.035,0.144,0.071,0.251,0.071,0.395
		c0.035-0.036,0.035-0.036,0.071-0.036c0.072,0,0.179,0.107,0.144,0.179c0,0.107-0.071,0.179-0.18,0.179h-0.035
		c0,0.108-0.036,0.251-0.071,0.359h0.035c0.107,0.035,0.144,0.143,0.107,0.25c-0.036,0.072-0.143,0.108-0.251,0.072
		c0,0-0.035,0-0.035-0.036c-0.072,0.108-0.144,0.215-0.215,0.323c0.035,0,0.035,0,0.035,0.036c0.072,0.035,0.072,0.179,0,0.215
		c-0.071,0.071-0.179,0.071-0.25,0v-0.036c-0.108,0.071-0.215,0.143-0.323,0.179c0,0.036,0,0.036,0.036,0.072
		c0.036,0.071-0.036,0.179-0.108,0.215c-0.106,0.035-0.179,0-0.215-0.108c-0.035,0-0.035-0.035-0.035-0.035
		c-0.108,0.035-0.215,0.035-0.359,0.071v0.036c0,0.107-0.071,0.179-0.179,0.179c-0.072,0-0.143-0.071-0.143-0.179v-0.072
		c-0.108,0-0.251-0.035-0.359-0.071v0.071c-0.071,0.072-0.143,0.108-0.251,0.072c-0.071-0.036-0.107-0.144-0.071-0.215
		c0-0.036,0-0.036,0.036-0.072c-0.108-0.036-0.215-0.107-0.323-0.179l-0.036,0.036c-0.071,0.071-0.179,0.071-0.251,0
		c-0.071-0.072-0.035-0.179,0.036-0.251c0-0.036,0-0.036,0.036-0.036c-0.072-0.107-0.143-0.215-0.215-0.322
		c0,0.035-0.036,0.035-0.036,0.035c-0.107,0.036-0.179,0-0.215-0.107c-0.036-0.072,0-0.179,0.072-0.215h0.072
		c-0.036-0.144-0.072-0.251-0.072-0.359h-0.036c-0.107,0-0.179-0.107-0.179-0.179c0-0.107,0.072-0.179,0.179-0.179h0.036
		c0.036-0.107,0.072-0.215,0.107-0.358h-0.071c-0.072-0.036-0.108-0.144-0.072-0.215c0.036-0.108,0.143-0.144,0.215-0.108
		c0.036,0,0.036,0.036,0.036,0.036c0.072-0.107,0.143-0.215,0.215-0.322h-0.036c-0.072-0.072-0.072-0.18,0-0.251
		c0.072-0.072,0.179-0.072,0.251,0l0.036,0.036c0.107-0.072,0.179-0.144,0.322-0.18c-0.036-0.035-0.036-0.035-0.036-0.071
		c-0.035-0.072,0-0.179,0.108-0.215c0.072-0.036,0.179,0,0.215,0.107v0.036c0.107-0.036,0.251-0.036,0.358-0.036v-0.071
		c0-0.108,0.072-0.18,0.18-0.18c0.107,0,0.179,0.108,0.179,0.18C71.088,68.098,71.088,68.098,71.052,68.134 M72.809,71.933
		c0.143-0.107,0.321-0.107,0.43,0.036c0.106,0.107,0.106,0.286,0,0.395c-0.108,0.106-0.323,0.106-0.43,0
		C72.7,72.255,72.7,72.04,72.809,71.933 M68.508,67.418c0.107-0.108,0.286-0.108,0.394,0c0.107,0.107,0.107,0.322,0,0.43
		c-0.108,0.107-0.323,0.107-0.43,0C68.364,67.704,68.364,67.525,68.508,67.418 M72.915,67.919c-0.106-0.107-0.106-0.286,0-0.394
		c0.108-0.143,0.323-0.107,0.43,0c0.108,0.108,0.108,0.287,0,0.43C73.202,68.063,73.023,68.063,72.915,67.919 M68.364,72.255
		c-0.107-0.107-0.107-0.286,0.036-0.43c0.108-0.107,0.287-0.107,0.394,0.036c0.144,0.107,0.144,0.286,0,0.394
		C68.687,72.398,68.508,72.398,68.364,72.255 M70.801,72.721c0.143,0,0.287,0.144,0.287,0.323c0,0.143-0.144,0.286-0.287,0.286
		c-0.179,0-0.323-0.144-0.323-0.322C70.478,72.864,70.622,72.721,70.801,72.721 M70.944,66.45c0.144,0,0.287,0.143,0.287,0.322
		c0,0.144-0.143,0.287-0.322,0.287c-0.144,0-0.287-0.143-0.287-0.322C70.622,66.593,70.765,66.45,70.944,66.45 M73.704,69.962
		c0-0.179,0.144-0.287,0.286-0.287c0.18,0,0.323,0.143,0.287,0.287c0,0.179-0.107,0.286-0.287,0.286
		C73.812,70.248,73.704,70.105,73.704,69.962 M67.433,69.818c0-0.179,0.143-0.286,0.286-0.286c0.179,0,0.323,0.143,0.323,0.286
		c-0.036,0.18-0.144,0.287-0.323,0.287S67.433,69.962,67.433,69.818 M73.453,71.037c0.071-0.143,0.251-0.215,0.395-0.143
		c0.143,0.071,0.215,0.215,0.143,0.394c-0.071,0.143-0.215,0.215-0.394,0.143C73.453,71.359,73.381,71.18,73.453,71.037
		 M67.719,68.493c0.072-0.144,0.251-0.215,0.394-0.144c0.144,0.072,0.215,0.251,0.144,0.394c-0.072,0.144-0.215,0.215-0.394,0.144
		C67.719,68.815,67.648,68.672,67.719,68.493 M72.02,67.31c-0.18-0.072-0.215-0.251-0.18-0.394c0.072-0.179,0.251-0.215,0.395-0.179
		c0.18,0.071,0.215,0.25,0.18,0.394C72.342,67.31,72.163,67.346,72.02,67.31 M69.475,73.044c-0.143-0.072-0.215-0.251-0.143-0.396
		c0.071-0.143,0.251-0.215,0.394-0.179c0.143,0.072,0.215,0.251,0.143,0.395C69.798,73.044,69.618,73.115,69.475,73.044
		 M71.876,72.542c0.18-0.072,0.323,0,0.395,0.179c0.071,0.144,0,0.323-0.18,0.358c-0.143,0.071-0.321,0-0.357-0.144
		C71.661,72.757,71.733,72.578,71.876,72.542 M69.618,66.701c0.144-0.072,0.323,0,0.395,0.179c0.035,0.143-0.036,0.323-0.18,0.358
		c-0.143,0.072-0.322,0-0.394-0.143C69.403,66.916,69.475,66.737,69.618,66.701 M73.489,68.851
		c-0.036-0.143,0.035-0.323,0.179-0.358c0.144-0.072,0.322,0,0.395,0.143c0.071,0.179,0,0.358-0.18,0.394
		C73.739,69.102,73.561,69.03,73.489,68.851 M67.648,71.144c-0.036-0.179,0.035-0.322,0.179-0.394c0.143-0.071,0.322,0,0.394,0.179
		c0.072,0.144-0.036,0.323-0.179,0.359C67.898,71.359,67.719,71.288,67.648,71.144 M74.601,72.47
		c0.143-0.215,0.43-0.251,0.645-0.106c0.215,0.143,0.286,0.466,0.107,0.681c-0.144,0.215-0.431,0.25-0.646,0.106
		C74.492,73.008,74.42,72.685,74.601,72.47 M66.357,66.737c0.144-0.215,0.43-0.251,0.645-0.108c0.215,0.143,0.287,0.466,0.144,0.681
		c-0.144,0.215-0.466,0.251-0.681,0.108C66.25,67.274,66.214,66.952,66.357,66.737 M73.453,66.163
		c-0.215-0.143-0.251-0.43-0.108-0.645c0.145-0.215,0.431-0.286,0.646-0.143s0.287,0.466,0.144,0.681
		C73.955,66.271,73.668,66.307,73.453,66.163 M67.719,74.405c-0.215-0.144-0.251-0.466-0.107-0.681
		c0.143-0.216,0.43-0.251,0.645-0.107c0.215,0.143,0.286,0.43,0.143,0.681C68.221,74.513,67.934,74.549,67.719,74.405 M71.661,74.37
		c0.251-0.072,0.502,0.106,0.538,0.357c0.071,0.287-0.108,0.537-0.359,0.573c-0.285,0.036-0.5-0.143-0.573-0.394
		C71.231,74.656,71.41,74.405,71.661,74.37 M69.905,64.479c0.251-0.036,0.502,0.143,0.538,0.394
		c0.035,0.251-0.108,0.502-0.395,0.538c-0.25,0.071-0.501-0.108-0.537-0.359C69.475,64.766,69.618,64.515,69.905,64.479
		 M75.316,69.102c-0.036-0.251,0.144-0.502,0.394-0.574c0.251-0.035,0.502,0.144,0.574,0.395c0.036,0.25-0.144,0.501-0.394,0.537
		C75.64,69.532,75.389,69.353,75.316,69.102 M65.462,70.858c-0.072-0.251,0.107-0.502,0.394-0.538
		c0.251-0.072,0.501,0.108,0.537,0.359c0.036,0.286-0.143,0.501-0.394,0.573C65.748,71.288,65.497,71.109,65.462,70.858
		 M75.28,70.858c0.072-0.251,0.323-0.43,0.574-0.359c0.251,0.072,0.43,0.323,0.357,0.574c-0.036,0.251-0.287,0.43-0.537,0.358
		C75.389,71.359,75.245,71.109,75.28,70.858 M65.497,68.708c0.072-0.251,0.323-0.43,0.574-0.359c0.251,0.072,0.43,0.323,0.358,0.574
		c-0.072,0.25-0.322,0.43-0.573,0.358C65.605,69.209,65.426,68.958,65.497,68.708 M71.84,65.447
		c-0.251-0.036-0.43-0.287-0.357-0.574c0.036-0.251,0.287-0.394,0.573-0.358c0.251,0.072,0.394,0.322,0.358,0.573
		C72.342,65.339,72.091,65.518,71.84,65.447 M69.69,75.265c-0.251-0.07-0.43-0.321-0.358-0.573c0.036-0.251,0.286-0.43,0.573-0.357
		c0.251,0.036,0.394,0.286,0.358,0.573C70.192,75.158,69.941,75.301,69.69,75.265 M73.31,73.725
		c0.215-0.144,0.502-0.071,0.646,0.144s0.107,0.502-0.144,0.645c-0.215,0.144-0.502,0.072-0.646-0.143
		C73.023,74.155,73.094,73.868,73.31,73.725 M67.898,65.267c0.215-0.143,0.502-0.071,0.645,0.144
		c0.144,0.215,0.108,0.501-0.143,0.645c-0.215,0.143-0.502,0.107-0.645-0.144C67.612,65.697,67.683,65.411,67.898,65.267
		 M74.671,67.453c-0.143-0.215-0.07-0.537,0.145-0.681c0.25-0.143,0.537-0.071,0.68,0.144c0.145,0.251,0.072,0.537-0.143,0.681
		C75.137,67.74,74.815,67.668,74.671,67.453 M66.25,72.864c-0.143-0.216-0.108-0.537,0.143-0.681
		c0.215-0.144,0.502-0.071,0.645,0.144c0.144,0.251,0.072,0.537-0.143,0.681C66.68,73.15,66.393,73.079,66.25,72.864 M75.64,74.691
		c0.285-0.286,0.752-0.286,1.003,0c0.287,0.252,0.287,0.718,0,1.004c-0.251,0.286-0.718,0.286-1.003,0
		C75.389,75.409,75.389,74.943,75.64,74.691 M65.067,64.085c0.287-0.251,0.717-0.251,1.004,0c0.286,0.287,0.286,0.752,0,1.003
		c-0.287,0.287-0.717,0.287-1.004,0C64.781,64.837,64.781,64.372,65.067,64.085 M75.64,65.088c-0.251-0.251-0.251-0.716,0-1.003
		c0.285-0.251,0.752-0.251,1.003,0c0.287,0.287,0.287,0.752,0,1.003C76.392,65.375,75.925,65.375,75.64,65.088 M65.067,75.695
		c-0.286-0.286-0.286-0.752,0-1.004c0.287-0.286,0.717-0.286,1.004,0c0.286,0.252,0.286,0.718,0,1.004
		C65.784,75.981,65.354,75.981,65.067,75.695 M70.873,76.663c0.394,0,0.716,0.323,0.716,0.717s-0.322,0.716-0.716,0.716
		c-0.395,0-0.717-0.322-0.717-0.716S70.478,76.663,70.873,76.663 M70.873,61.684c0.394,0,0.716,0.322,0.716,0.717
		c0,0.394-0.322,0.716-0.716,0.716c-0.395,0-0.717-0.322-0.717-0.716C70.156,62.006,70.478,61.684,70.873,61.684 M77.646,69.89
		c0-0.394,0.321-0.717,0.716-0.717c0.394,0,0.681,0.323,0.681,0.717c0,0.394-0.287,0.717-0.681,0.717
		C77.968,70.607,77.646,70.284,77.646,69.89 M62.666,69.89c0-0.394,0.323-0.717,0.717-0.717S64.1,69.496,64.1,69.89
		c0,0.394-0.323,0.717-0.717,0.717S62.666,70.284,62.666,69.89 M77.108,72.47c0.179-0.357,0.573-0.537,0.932-0.357
		c0.358,0.143,0.537,0.536,0.395,0.932c-0.144,0.358-0.573,0.537-0.933,0.358C77.145,73.259,76.965,72.864,77.108,72.47
		 M63.276,66.737c0.179-0.359,0.573-0.502,0.931-0.359c0.359,0.144,0.538,0.574,0.395,0.932c-0.144,0.358-0.574,0.538-0.932,0.358
		C63.311,67.525,63.132,67.131,63.276,66.737 M73.453,63.619c-0.359-0.143-0.538-0.538-0.394-0.932
		c0.179-0.358,0.572-0.501,0.931-0.358c0.359,0.143,0.538,0.573,0.395,0.932C74.241,63.619,73.812,63.798,73.453,63.619
		 M67.719,77.451c-0.358-0.144-0.537-0.537-0.394-0.932c0.179-0.358,0.573-0.538,0.932-0.358c0.358,0.144,0.537,0.538,0.394,0.932
		C68.508,77.451,68.078,77.631,67.719,77.451 M73.453,76.161c0.358-0.144,0.788,0,0.932,0.358c0.144,0.395-0.035,0.788-0.395,0.932
		c-0.358,0.18-0.788,0-0.931-0.358C72.915,76.699,73.094,76.305,73.453,76.161 M67.719,62.329c0.359-0.179,0.789,0,0.932,0.358
		c0.143,0.394-0.036,0.789-0.394,0.932c-0.359,0.179-0.753,0-0.932-0.358C67.182,62.866,67.361,62.472,67.719,62.329 M77.108,67.31
		c-0.144-0.358,0.036-0.788,0.394-0.932c0.359-0.143,0.789,0,0.933,0.394c0.143,0.359-0.036,0.753-0.395,0.896
		C77.682,67.848,77.287,67.668,77.108,67.31"/>
	<path clip-path="url(#SVGID_2_)" fill-rule="evenodd" clip-rule="evenodd" fill="#FFFFFF" d="M17.048,61.469h15.337
		c-0.573,2.723-0.895,5.554-0.895,8.457c0,2.867,0.322,5.698,0.895,8.421H16.94v-2.759h-0.537c-0.036-0.609-0.072-1.218-0.108-1.828
		h2.509v2.724h11.36c-0.359-2.149-0.538-4.372-0.538-6.558c0-2.222,0.179-4.443,0.538-6.594h-11.36v2.724h-2.365
		c0.036-0.609,0.107-1.218,0.179-1.828h0.322v-2.221L17.048,61.469z"/>
	<path clip-path="url(#SVGID_2_)" fill-rule="evenodd" clip-rule="evenodd" fill="#FFFFFF" d="M124.697,61.469h-15.373
		c0.609,2.723,0.931,5.554,0.931,8.457c0,2.867-0.321,5.698-0.931,8.421h15.445v-2.759h0.537c0.036-0.609,0.107-1.218,0.144-1.828
		h-2.509v2.724h-11.396c0.359-2.149,0.538-4.372,0.538-6.558c0-2.222-0.179-4.443-0.538-6.594h11.396v2.724h2.365
		c-0.071-0.609-0.107-1.218-0.18-1.828h-0.357v-2.293L124.697,61.469z"/>
	<path clip-path="url(#SVGID_2_)" fill-rule="evenodd" clip-rule="evenodd" fill="#FFFFFF" d="M70.873,29.504
		c11.145,0,21.25,4.515,28.561,11.825c7.311,7.311,11.825,17.416,11.825,28.597c0,11.144-4.515,21.25-11.825,28.56
		s-17.416,11.826-28.561,11.826c-11.18,0-21.25-4.516-28.561-11.826c-7.31-7.311-11.861-17.416-11.861-28.56
		c0-11.181,4.551-21.286,11.861-28.597C49.623,34.055,59.693,29.504,70.873,29.504 M98.287,42.476
		c-7.024-7.024-16.699-11.36-27.415-11.36c-10.715,0-20.426,4.336-27.45,11.36c-6.988,7.024-11.359,16.735-11.359,27.45
		c0,10.679,4.371,20.39,11.359,27.414c7.024,7.023,16.735,11.359,27.45,11.359c10.715,0,20.39-4.336,27.415-11.359
		c7.023-7.023,11.359-16.734,11.359-27.414C109.646,59.211,105.311,49.5,98.287,42.476"/>
	<path clip-path="url(#SVGID_2_)" fill-rule="evenodd" clip-rule="evenodd" fill="#FFFFFF" d="M88.253,109.059v4.406l-8.779,7.418
		v3.979c-0.609,0.072-1.22,0.179-1.828,0.251v-5.089l8.744-7.418v-0.824c-4.945,1.864-10.213,2.795-15.517,2.795
		c-5.339,0-10.571-0.931-15.552-2.795v0.824l8.78,7.418v5.089c-0.61-0.108-1.255-0.179-1.864-0.287v-3.942l-8.779-7.418v-4.406
		c5.339,2.364,11.216,3.654,17.415,3.654C77.036,112.713,82.949,111.423,88.253,109.059 M88.253,122.675
		c-1.827,0.609-3.691,1.147-5.555,1.541v-1.862l5.555-4.695V122.675z M59.011,124.216c-0.215-0.036-0.43-0.106-0.645-0.143
		c-1.648-0.396-3.297-0.86-4.909-1.398v-5.017l5.554,4.695V124.216z"/>
</g>
</svg>
