<?xml version="1.0" encoding="utf-8"?>
<!-- Generator: Adobe Illustrator 14.0.0, SVG Export Plug-In . SVG Version: 6.00 Build 43363)  -->
<!DOCTYPE svg PUBLIC "-//W3C//DTD SVG 1.1//EN" "http://www.w3.org/Graphics/SVG/1.1/DTD/svg11.dtd">
<svg version="1.1" id="Layer_1" xmlns="http://www.w3.org/2000/svg" xmlns:xlink="http://www.w3.org/1999/xlink" x="0px" y="0px"
	 width="141.73px" height="141.73px" viewBox="0 0 141.73 141.73" enable-background="new 0 0 141.73 141.73" xml:space="preserve">
<g>
	<defs>
		<rect id="SVGID_1_" y="0" width="141.73" height="141.73"/>
	</defs>
	<clipPath id="SVGID_2_">
		<use xlink:href="#SVGID_1_"  overflow="visible"/>
	</clipPath>
	<path clip-path="url(#SVGID_2_)" fill-rule="evenodd" clip-rule="evenodd" fill="#00A0F0" d="M85.752,7.387
		c16.88,3.978,31.396,14.407,40.533,29.137c9.139,14.73,12.006,32.362,8.028,49.242c-3.942,16.88-14.371,31.358-29.102,40.498
		c-14.729,9.139-32.361,12.042-49.242,8.063c-16.88-3.942-31.359-14.372-40.498-29.101C6.334,90.461,3.431,72.864,7.409,55.984
		C11.351,39.104,21.78,24.59,36.51,15.451C51.239,6.313,68.872,3.445,85.752,7.387"/>
	<path clip-path="url(#SVGID_2_)" fill-rule="evenodd" clip-rule="evenodd" fill="#FFFFFF" d="M107.076,60.751L37.299,50.465
		c-7.132-1.075-13.87-2.867-14.873,4.624c1.111,3.297,2.903,5.877,6.128,7.777c3.19,1.827,6.809,2.687,9.892,4.766
		c5.483,3.691,6.379,9.893,6.092,16.056c11.934,0.287,23.546-0.502,34.799-2.615l26.593-0.036c2.58,0,5.017-0.789,6.917-2.187
		l15.876,0.035c0.359-2.616,0.538-5.304,0.538-8.027c0-1.541-0.072-3.083-0.179-4.588l-13.44-0.071
		C113.958,63.296,110.768,61.289,107.076,60.751 M22.139,60.106c-0.215,9.426,1.649,22.112,6.487,22.578
		c4.408,0.431,8.78,0.753,13.117,0.896C42.566,63.977,28.447,71.001,22.139,60.106"/>
</g>
</svg>
