<?xml version="1.0" encoding="utf-8"?>
<!-- Generator: Adobe Illustrator 14.0.0, SVG Export Plug-In . SVG Version: 6.00 Build 43363)  -->
<!DOCTYPE svg PUBLIC "-//W3C//DTD SVG 1.1//EN" "http://www.w3.org/Graphics/SVG/1.1/DTD/svg11.dtd">
<svg version="1.1" id="Layer_1" xmlns="http://www.w3.org/2000/svg" xmlns:xlink="http://www.w3.org/1999/xlink" x="0px" y="0px"
	 width="141.73px" height="141.73px" viewBox="0 0 141.73 141.73" enable-background="new 0 0 141.73 141.73" xml:space="preserve">
<g>
	<defs>
		<rect id="SVGID_1_" y="0" width="141.73" height="141.73"/>
	</defs>
	<clipPath id="SVGID_2_">
		<use xlink:href="#SVGID_1_"  overflow="visible"/>
	</clipPath>
	<path clip-path="url(#SVGID_2_)" fill-rule="evenodd" clip-rule="evenodd" fill="#00A0F0" d="M85.765,7.394
		c16.878,3.978,31.355,14.406,40.494,29.134c9.138,14.728,12.04,32.359,8.063,49.238c-3.941,16.878-14.37,31.354-29.099,40.493
		c-14.729,9.138-32.359,12.041-49.237,8.063c-16.878-3.941-31.392-14.37-40.53-29.098C6.317,90.459,3.452,72.864,7.393,55.985
		c3.978-16.878,14.406-31.391,29.134-40.529C51.255,6.318,68.887,3.452,85.765,7.394"/>
	<path clip-path="url(#SVGID_2_)" fill-rule="evenodd" clip-rule="evenodd" fill="#FFFFFF" d="M68.42,62.293l-0.788-1.434
		c-0.251-0.466-0.681-0.752-1.111-0.896c-0.466-0.143-1.004-0.107-1.434,0.144l-0.394,0.215c-0.43,0.251-0.752,0.645-0.896,1.111
		c-0.143,0.465-0.107,0.967,0.144,1.433l0.788,1.433L68.42,62.293z M76.877,103.037l17.452-9.496l0.287,0.502l-17.452,9.496
		L76.877,103.037z M69.316,89.169l17.488-9.495l0.285,0.536l-17.487,9.497L69.316,89.169z M61.54,74.871l17.487-9.497l0.287,0.538
		l-17.488,9.496L61.54,74.871z M51.291,40.183l-5.59,3.046c-0.574,0.323-0.753,1.04-0.502,1.685l1.397,3.476l-0.645-3.835
		l5.591-3.046l4.837,5.555c0-0.144-0.071-0.287-0.143-0.394l-3.225-5.985C52.653,40.075,51.9,39.86,51.291,40.183 M55.448,37.925
		l5.59-3.046c0.609-0.323,1.29-0.072,1.72,0.501l2.15,3.046l-2.867-2.616l-5.59,3.046l2.043,7.06
		c-0.108-0.072-0.215-0.179-0.287-0.323l-3.261-5.984C54.624,39,54.874,38.248,55.448,37.925 M52.402,35.955
		c1.182-0.717,2.365-1.505,3.547-2.329c1.219-0.825,2.33-1.685,3.441-2.509l0.035-0.036c1.864-1.362,3.584-1.469,5.125-0.681
		c1.397,0.717,2.616,2.186,3.727,4.05c4.3,7.167,8.385,14.585,12.363,21.823c4.657,8.457,9.065,17.058,13.581,25.551
		c2.186,4.085,4.337,8.206,6.414,12.291c1.757,3.512,3.477,7.024,5.124,10.536c0.969-2.401,1.184-5.053,0.933-7.669
		c-0.537-5.949-3.297-12.291-6.092-17.523c-1.147-2.186-2.975-4.516-4.443-6.521c-0.61-0.825-1.219-1.649-1.828-2.509
		c-1.935-2.759-3.834-5.554-5.59-8.421c-1.9-3.046-3.656-6.164-5.304-9.353v-0.036v-0.036c-0.968-1.971-1.863-4.013-2.76-6.056
		c-1.434-3.261-2.866-6.486-4.623-9.604v-0.035c-1.72-3.19-3.869-6.057-6.558-8.529c-2.544-2.33-5.411-4.193-8.529-5.662h-0.071
		c-2.043-1.004-4.265-1.111-6.486-0.753c-2.975,0.466-5.949,1.756-8.601,3.19c-2.652,1.433-5.339,3.225-7.346,5.482
		c-1.505,1.649-2.616,3.62-2.903,5.877c-0.466,3.441-0.466,6.881,0.108,10.285c0.609,3.584,1.827,6.952,3.619,10.141v0.036
		c1.649,3.118,3.584,6.092,5.555,9.066c1.218,1.864,2.436,3.727,3.583,5.627h0.036c1.792,3.117,3.44,6.307,4.981,9.568
		c1.433,3.046,2.795,6.127,4.049,9.28c0.359,0.967,0.753,1.899,1.111,2.867c0.896,2.329,1.864,5.124,3.046,7.274
		c2.867,5.195,6.701,10.966,11.396,14.656c2.078,1.612,4.408,2.867,6.952,3.368c-2.043-3.296-4.049-6.629-6.056-9.998
		c-2.33-3.977-4.587-8.026-6.845-12.076C62.4,88.166,57.598,79.78,53.011,71.288c-3.906-7.274-7.92-14.728-11.575-22.218
		c-1.003-1.97-1.541-3.798-1.397-5.339c0.215-1.72,1.218-3.082,3.368-3.942h0.036c1.326-0.502,2.688-1.003,4.049-1.541
		c1.362-0.537,2.688-1.111,3.942-1.756C51.828,36.313,52.043,36.169,52.402,35.955 M56.989,35.13
		c-1.183,0.824-2.401,1.612-3.655,2.365l-0.359,0.215c-0.072,0.071-0.143,0.107-0.215,0.143c-0.107,0.036-0.143,0.072-0.215,0.108
		l-0.322,0.143c-1.326,0.681-2.688,1.254-4.05,1.828c-1.326,0.537-2.687,1.039-4.121,1.54c-1.433,0.574-2.078,1.398-2.222,2.437
		c-0.107,1.183,0.359,2.688,1.219,4.372c3.691,7.49,7.669,14.908,11.575,22.146l1.11,2.08l12.937,23.221
		c2.222,4.013,4.515,8.026,6.844,12.005c2.186,3.727,4.407,7.453,6.736,11.144c2.079-0.179,4.086-0.608,6.092-1.218
		c2.187-0.717,4.302-1.647,6.344-2.651c1.971-1.219,3.905-2.473,5.697-3.906c1.613-1.326,3.047-2.795,4.337-4.443
		c-1.863-3.978-3.764-7.848-5.698-11.718c-2.078-4.122-4.192-8.207-6.378-12.256L80.21,59.175l-1.146-2.043
		c-3.979-7.202-8.027-14.585-12.327-21.752c-0.932-1.612-1.935-2.831-3.01-3.368c-0.932-0.466-2.007-0.358-3.225,0.537
		C59.318,33.445,58.135,34.305,56.989,35.13 M44.375,22.48c2.938-1.613,6.235-3.01,9.568-3.548c2.831-0.43,5.662-0.215,8.278,1.039
		c3.404,1.613,6.557,3.62,9.317,6.164c2.938,2.688,5.303,5.841,7.167,9.317c1.792,3.189,3.261,6.522,4.73,9.855
		c0.859,2.007,1.72,4.013,2.688,5.948c1.576,3.154,3.332,6.164,5.196,9.174c1.72,2.795,3.583,5.555,5.482,8.278
		c0.609,0.824,1.183,1.649,1.791,2.473c1.577,2.114,3.441,4.515,4.659,6.844c2.975,5.591,5.877,12.292,6.45,18.67
		c0.359,3.979-0.179,7.92-2.293,11.36l-0.036,0.107c-1.469,1.972-3.188,3.728-5.089,5.268c-0.465,0.395-0.967,0.789-1.469,1.146
		c0.788,4.121-6.773,8.206-9.783,5.34c-0.609,0.216-1.182,0.395-1.756,0.609c-2.365,0.752-4.73,1.254-7.239,1.397h-0.106
		c-4.05-0.107-7.598-1.791-10.751-4.265c-5.017-3.941-9.066-10.034-12.184-15.552c-1.254-2.33-2.257-5.161-3.225-7.633
		c-0.358-0.969-0.716-1.9-1.111-2.867c-1.218-3.082-2.508-6.128-3.941-9.103c-1.506-3.189-3.118-6.307-4.874-9.316
		c-1.111-1.864-2.329-3.691-3.548-5.519c-2.007-3.046-3.977-6.092-5.662-9.317c-1.935-3.476-3.297-7.167-3.942-11.073
		c-0.645-3.727-0.645-7.454-0.143-11.181c0.394-2.867,1.756-5.375,3.655-7.489C38.462,26.063,41.4,24.057,44.375,22.48
		 M98.809,115.975c-0.86,0.573-1.757,1.11-2.616,1.647l-0.107,0.072c-0.932,0.43-1.863,0.86-2.795,1.29
		c0.932,0.215,2.114,0.036,3.261-0.573S98.486,116.87,98.809,115.975 M67.202,51.47c0.573,1.541,0.071,3.261-1.255,3.978
		l-5.626,3.082c-1.326,0.717-3.046,0.215-4.013-1.111L67.202,51.47z M52.868,56.56l15.552-8.421
		c0.932-0.538,1.971-0.609,2.903-0.287c0.931,0.323,1.792,0.968,2.329,1.935c5.017,8.672,9.891,17.452,14.585,26.339
		c4.729,8.888,9.21,17.847,13.438,26.984c0.467,1.003,0.574,2.114,0.359,3.118c-0.215,1.003-0.789,1.863-1.721,2.365l-14.012,7.633
		c-0.932,0.501-1.971,0.537-2.902,0.179c-0.932-0.323-1.792-1.004-2.401-1.935c-5.16-8.351-10.213-16.844-15.158-25.587
		c-4.945-8.743-9.747-17.667-14.37-26.913c-0.502-0.967-0.609-2.078-0.394-3.046C51.327,57.958,51.936,57.097,52.868,56.56
		 M69.28,49.715l-15.552,8.457c-0.466,0.25-0.753,0.68-0.896,1.182c-0.108,0.574-0.072,1.219,0.251,1.828
		c4.587,9.174,9.388,18.097,14.298,26.804c4.945,8.708,9.998,17.166,15.158,25.551c0.359,0.573,0.896,1.003,1.435,1.184
		c0.501,0.179,1.003,0.143,1.469-0.108l14.011-7.597c0.43-0.251,0.717-0.682,0.825-1.184c0.143-0.608,0.071-1.325-0.251-1.971
		c-4.229-9.138-8.708-18.06-13.367-26.912c-4.694-8.851-9.568-17.595-14.549-26.267c-0.322-0.573-0.824-0.932-1.326-1.111
		C70.284,49.428,69.746,49.464,69.28,49.715 M89.384,105.331l-2.437,0.573l3.87-5.554l-1.111,3.977l2.474-0.322l-4.408,5.77
		L89.384,105.331z M77.486,90.138c0.215-0.396,0.538-0.753,0.932-1.004c0.466-0.251,1.039-0.358,1.613-0.251l2.186,0.466
		c0.071-0.107,0.144-0.215,0.216-0.286c0.536-0.646,1.182-0.968,1.826-0.825c0.646,0.145,1.111,0.681,1.362,1.505
		c0.215,0.717,0.251,1.649,0.036,2.652c-0.179,0.968-0.609,1.828-1.075,2.4c-0.538,0.646-1.219,1.005-1.864,0.86
		c-0.645-0.143-1.11-0.716-1.325-1.505c-0.035-0.107-0.071-0.215-0.107-0.322l-2.186-0.43c-0.573-0.145-1.039-0.466-1.362-0.896
		c-0.286-0.358-0.43-0.823-0.466-1.29c-0.071-0.035-0.107-0.107-0.144-0.18c-0.106-0.106-0.143-0.25-0.106-0.43l0.035-0.035
		c0.035-0.144,0.107-0.251,0.215-0.323C77.343,90.208,77.415,90.173,77.486,90.138 M82.217,91.068c0.035,0,0.107,0,0.18,0.036
		c0.321,0.036,0.537,0.394,0.466,0.717c-0.072,0.358-0.395,0.573-0.717,0.502c-0.072-0.036-0.144-0.036-0.18-0.072
		c-0.071,0.646,0,1.219,0.107,1.685c0.179,0.538,0.466,0.932,0.825,1.004c0.321,0.071,0.752-0.18,1.109-0.61
		c0.396-0.501,0.753-1.218,0.933-2.078c0.179-0.859,0.143-1.684-0.036-2.294c-0.144-0.572-0.43-0.931-0.788-1.003
		c-0.358-0.071-0.753,0.144-1.111,0.609c-0.251,0.251-0.466,0.609-0.608,1.039H82.36C82.324,90.746,82.252,90.926,82.217,91.068
		 M81.321,91.498c0.106-0.537,0.286-1.039,0.501-1.505L79.887,89.6c-0.394-0.072-0.787,0-1.074,0.179
		c-0.824,0.466-1.039,1.541-0.466,2.294c0.215,0.286,0.537,0.501,0.932,0.573l1.935,0.394
		C81.177,92.573,81.213,92.036,81.321,91.498 M75.695,79.744c0.215,0,0.43,0.108,0.537,0.323c0.179,0.287,0.072,0.645-0.215,0.824
		c-0.287,0.143-0.682,0.036-0.824-0.251c-0.108-0.215-0.108-0.431,0.036-0.646l-0.466-0.824c-0.072-0.106,0-0.286,0.106-0.357
		c0.145-0.072,0.323,0,0.396,0.106L75.695,79.744z M71.431,78.956l4.371-2.364l0.145-1.039c0.071-0.467-0.036-0.933-0.323-1.29
		c-0.251-0.359-0.681-0.646-1.146-0.718l-0.537-0.071c-0.466-0.071-0.933,0.071-1.29,0.322c-0.359,0.286-0.61,0.682-0.682,1.146
		l-0.322,2.007l-0.716-0.106l0.286-2.008c0.108-0.681,0.466-1.254,1.003-1.647c0.501-0.359,1.183-0.538,1.827-0.43l0.538,0.07
		c0.682,0.108,1.254,0.466,1.648,0.968c0.358,0.537,0.574,1.183,0.466,1.863l-0.072,0.466l0.215-0.143
		c0.181-0.072,0.431,0,0.502,0.179l0.896,1.612c0.466,0.86,0.537,1.792,0.287,2.652c-0.251,0.823-0.825,1.576-1.649,2.043
		c-0.824,0.466-1.792,0.536-2.651,0.286c-0.824-0.251-1.576-0.824-2.042-1.685l-0.896-1.612
		C71.179,79.279,71.251,79.028,71.431,78.956 M76.877,76.843l-4.766,2.58l0.717,1.289c0.358,0.682,0.967,1.111,1.612,1.326
		c0.681,0.18,1.397,0.144,2.079-0.215c0.645-0.358,1.11-0.968,1.29-1.613c0.215-0.681,0.143-1.433-0.216-2.077L76.877,76.843z
		 M68.133,65.589c0.215,0,0.43,0.108,0.538,0.323c0.143,0.287,0.036,0.645-0.251,0.788c-0.287,0.18-0.645,0.072-0.788-0.215
		c-0.144-0.215-0.108-0.466,0.036-0.645l-0.466-0.824c-0.072-0.143-0.036-0.287,0.107-0.358c0.144-0.072,0.287-0.036,0.359,0.107
		L68.133,65.589z M63.869,64.765l0.215-0.107l-0.788-1.434c-0.323-0.645-0.395-1.361-0.215-2.006
		c0.215-0.645,0.645-1.219,1.254-1.541l0.394-0.215c0.645-0.359,1.362-0.395,2.007-0.215c0.645,0.179,1.182,0.609,1.541,1.254
		l0.788,1.433l0.215-0.107c0.179-0.108,0.394-0.036,0.502,0.143l0.896,1.649c0.466,0.824,0.537,1.791,0.286,2.616
		c-0.25,0.86-0.824,1.612-1.684,2.078c-0.824,0.43-1.756,0.502-2.616,0.251c-0.86-0.251-1.612-0.824-2.042-1.649l-0.896-1.648
		C63.618,65.088,63.69,64.874,63.869,64.765 M69.316,62.651l-4.766,2.616l0.717,1.29c0.358,0.645,0.931,1.111,1.612,1.29
		c0.645,0.215,1.398,0.143,2.043-0.215c0.681-0.358,1.111-0.932,1.326-1.613c0.179-0.645,0.143-1.397-0.215-2.042L69.316,62.651z"/>
</g>
</svg>
