<?xml version="1.0" encoding="utf-8"?>
<!-- Generator: Adobe Illustrator 14.0.0, SVG Export Plug-In . SVG Version: 6.00 Build 43363)  -->
<!DOCTYPE svg PUBLIC "-//W3C//DTD SVG 1.1//EN" "http://www.w3.org/Graphics/SVG/1.1/DTD/svg11.dtd">
<svg version="1.1" id="Layer_1" xmlns="http://www.w3.org/2000/svg" xmlns:xlink="http://www.w3.org/1999/xlink" x="0px" y="0px"
	 width="141.73px" height="141.73px" viewBox="0 0 141.73 141.73" enable-background="new 0 0 141.73 141.73" xml:space="preserve">
<g>
	<defs>
		<rect id="SVGID_1_" y="0" width="141.73" height="141.73"/>
	</defs>
	<clipPath id="SVGID_2_">
		<use xlink:href="#SVGID_1_"  overflow="visible"/>
	</clipPath>
	<path clip-path="url(#SVGID_2_)" fill-rule="evenodd" clip-rule="evenodd" fill="#00A0F0" d="M85.752,7.387
		c16.88,3.978,31.396,14.407,40.533,29.137c9.139,14.73,12.006,32.362,8.028,49.242c-3.942,16.88-14.371,31.358-29.102,40.498
		c-14.729,9.139-32.361,12.042-49.242,8.063c-16.88-3.942-31.359-14.372-40.498-29.101C6.334,90.461,3.431,72.864,7.409,55.984
		C11.351,39.104,21.78,24.59,36.51,15.451C51.239,6.313,68.872,3.445,85.752,7.387"/>
	<path clip-path="url(#SVGID_2_)" fill-rule="evenodd" clip-rule="evenodd" fill="#FFFFFF" d="M70.879,34.661l-0.394,0.143
		c-11.863,4.229-23.689,5.09-35.875,1.685l-1.326-0.359l-0.107,23.869c1.003,26.843,12.257,47.809,37.236,59.241l0.466,0.215
		l0.43-0.215c25.016-11.432,36.054-32.47,37.237-59.241l-0.107-23.869l-1.29,0.359c-12.222,3.405-24.049,2.544-35.911-1.685
		L70.879,34.661z M55.576,96.912V57.74c0-1.147,0.466-2.222,1.219-2.974c0.681-0.681,1.576-1.111,2.58-1.219v-2.688
		c0-0.573,0.251-1.111,0.645-1.505v-0.036c0.394-0.394,0.932-0.609,1.541-0.609h18.6c0.61,0,1.146,0.215,1.541,0.609
		s0.646,0.968,0.646,1.541v2.688c1.003,0.108,1.899,0.538,2.58,1.219c0.753,0.752,1.254,1.827,1.254,2.974v39.172
		c0,1.147-0.501,2.187-1.254,2.975c-0.753,0.753-1.828,1.219-2.975,1.219H59.769c-1.147,0-2.222-0.466-2.974-1.219
		C56.042,99.099,55.576,98.06,55.576,96.912 M57.368,57.74v39.172c0,0.646,0.287,1.254,0.717,1.685
		c0.43,0.43,1.039,0.681,1.684,0.681h22.184c0.645,0,1.255-0.251,1.685-0.681c0.431-0.431,0.718-1.039,0.718-1.685V57.74
		c0-0.645-0.287-1.254-0.718-1.684c-0.43-0.43-1.04-0.717-1.685-0.717H80.52v-4.48c0-0.072-0.035-0.179-0.107-0.251
		c-0.036-0.036-0.144-0.107-0.251-0.107h-18.6c-0.107,0-0.179,0.036-0.251,0.107c-0.071,0.072-0.107,0.179-0.107,0.251v4.48h-1.434
		c-0.645,0-1.254,0.287-1.684,0.717C57.655,56.486,57.368,57.096,57.368,57.74 M59.984,57.347h21.754v5.089H59.984V57.347z
		 M59.984,64.191h21.754v5.089H59.984V64.191z M59.984,71.037h21.754v5.088H59.984V71.037z M59.984,77.882h21.754v5.125H59.984
		V77.882z M59.984,84.764h21.754v5.089H59.984V84.764z M59.984,91.608h21.754v5.089H59.984V91.608z"/>
</g>
</svg>
