<?xml version="1.0" encoding="utf-8"?>
<!-- Generator: Adobe Illustrator 14.0.0, SVG Export Plug-In . SVG Version: 6.00 Build 43363)  -->
<!DOCTYPE svg PUBLIC "-//W3C//DTD SVG 1.1//EN" "http://www.w3.org/Graphics/SVG/1.1/DTD/svg11.dtd">
<svg version="1.1" id="Layer_1" xmlns="http://www.w3.org/2000/svg" xmlns:xlink="http://www.w3.org/1999/xlink" x="0px" y="0px"
	 width="141.73px" height="141.73px" viewBox="0 0 141.73 141.73" enable-background="new 0 0 141.73 141.73" xml:space="preserve">
<g>
	<defs>
		<rect id="SVGID_1_" y="0" width="141.73" height="141.73"/>
	</defs>
	<clipPath id="SVGID_2_">
		<use xlink:href="#SVGID_1_"  overflow="visible"/>
	</clipPath>
	<path clip-path="url(#SVGID_2_)" fill-rule="evenodd" clip-rule="evenodd" fill="#00A0F0" d="M85.738,7.386
		c16.916,3.978,31.396,14.407,40.534,29.138c9.14,14.73,12.007,32.363,8.063,49.243c-3.978,16.88-14.37,31.36-29.137,40.499
		c-14.729,9.139-32.327,12.042-49.208,8.064c-16.916-3.943-31.395-14.372-40.534-29.103C6.318,90.462,3.45,72.865,7.394,55.984
		c3.978-16.88,14.371-31.395,29.137-40.534C51.26,6.311,68.858,3.444,85.738,7.386"/>
	<path clip-path="url(#SVGID_2_)" fill-rule="evenodd" clip-rule="evenodd" fill="#FFFFFF" d="M70.865,24.302
		c25.732,0,46.556,20.858,46.556,46.555c0,25.733-20.823,46.592-46.556,46.592c-25.733,0-46.556-20.858-46.556-46.592
		C24.309,45.16,45.132,24.302,70.865,24.302 M70.65,27.527c1.003,0,1.792,0.789,1.792,1.792c0,0.968-0.789,1.792-1.792,1.792
		c-0.968,0-1.792-0.824-1.792-1.792C68.858,28.316,69.682,27.527,70.65,27.527 M38.466,73.224c-1.505,0.394-3.046-0.502-3.44-2.007
		c-0.431-1.506,0.465-3.047,1.971-3.477c1.541-0.394,3.082,0.502,3.476,2.007C40.903,71.251,40.007,72.828,38.466,73.224
		 M54.701,102.002c-1.505,0.395-3.046-0.502-3.44-2.007c-0.43-1.541,0.466-3.082,1.971-3.477c1.541-0.431,3.082,0.466,3.476,2.007
		C57.138,100.031,56.243,101.572,54.701,102.002 M87.96,103.4c-1.505,0.394-3.046-0.502-3.476-2.007
		c-0.395-1.506,0.502-3.083,2.007-3.478c1.541-0.394,3.082,0.502,3.476,2.008C90.398,101.429,89.502,103.005,87.96,103.4
		 M105.988,74.835c-1.506,0.396-3.047-0.501-3.478-2.007c-0.394-1.505,0.502-3.046,2.007-3.476c1.541-0.394,3.083,0.502,3.478,2.007
		C108.425,72.864,107.493,74.441,105.988,74.835 M89.824,44.909c-1.505,0.395-3.082-0.501-3.477-2.007
		c-0.395-1.505,0.501-3.082,2.008-3.476c1.505-0.394,3.081,0.502,3.476,2.007C92.225,42.938,91.329,44.515,89.824,44.909
		 M55.812,42.867c-1.505,0.394-3.046-0.502-3.476-2.007c-0.394-1.506,0.502-3.047,2.007-3.477c1.541-0.394,3.082,0.502,3.476,2.007
		C58.214,40.896,57.318,42.472,55.812,42.867 M60.328,32.473c-0.967,0.251-1.935-0.322-2.186-1.29
		c-0.251-0.932,0.287-1.935,1.254-2.186c0.968-0.251,1.936,0.322,2.187,1.254C61.833,31.219,61.296,32.222,60.328,32.473
		 M81.939,113.112c-0.968,0.251-1.936-0.323-2.187-1.29c-0.251-0.932,0.287-1.936,1.255-2.186c0.967-0.251,1.936,0.321,2.187,1.29
		C83.445,111.858,82.871,112.861,81.939,113.112 M50.687,36.451c-0.86,0.502-1.935,0.215-2.437-0.645
		c-0.501-0.86-0.215-1.971,0.645-2.473c0.861-0.466,1.972-0.179,2.437,0.681C51.834,34.875,51.548,35.95,50.687,36.451
		 M92.44,108.74c-0.86,0.501-1.972,0.215-2.438-0.646c-0.501-0.86-0.215-1.936,0.646-2.438c0.86-0.501,1.936-0.215,2.438,0.646
		C93.587,107.163,93.301,108.274,92.44,108.74 M42.408,42.795c-0.681,0.717-1.827,0.717-2.508,0
		c-0.717-0.681-0.717-1.828-0.036-2.509c0.717-0.717,1.863-0.717,2.544,0C43.125,40.967,43.125,42.114,42.408,42.795
		 M101.436,101.823c-0.681,0.716-1.827,0.716-2.509,0c-0.716-0.681-0.716-1.828,0-2.509c0.682-0.717,1.828-0.717,2.509,0
		C102.153,99.995,102.153,101.143,101.436,101.823 M36.065,51.074c-0.502,0.86-1.577,1.147-2.437,0.645
		c-0.86-0.466-1.147-1.577-0.681-2.437c0.502-0.86,1.613-1.147,2.473-0.645C36.28,49.138,36.567,50.214,36.065,51.074
		 M108.353,92.827c-0.466,0.86-1.576,1.147-2.437,0.646s-1.147-1.577-0.645-2.438c0.502-0.859,1.576-1.146,2.437-0.645
		C108.568,90.856,108.855,91.968,108.353,92.827 M32.087,60.715c-0.287,0.967-1.255,1.505-2.222,1.254
		c-0.932-0.251-1.506-1.218-1.255-2.186c0.251-0.968,1.255-1.505,2.186-1.255C31.764,58.779,32.338,59.748,32.087,60.715
		 M112.726,82.326c-0.251,0.933-1.255,1.505-2.187,1.254c-0.967-0.251-1.541-1.218-1.29-2.186s1.255-1.505,2.186-1.254
		C112.403,80.392,112.976,81.358,112.726,82.326 M30.725,71.036c0,1.004-0.825,1.792-1.792,1.792c-1.004,0-1.792-0.788-1.792-1.792
		c0-0.967,0.788-1.792,1.792-1.792C29.9,69.244,30.725,70.069,30.725,71.036 M114.195,71.036c0,1.004-0.788,1.792-1.792,1.792
		c-0.969,0-1.792-0.788-1.792-1.792c0-0.967,0.823-1.792,1.792-1.792C113.407,69.244,114.195,70.069,114.195,71.036 M32.087,81.395
		c0.251,0.968-0.323,1.935-1.291,2.186c-0.931,0.251-1.935-0.286-2.186-1.254s0.323-1.935,1.255-2.186
		C30.832,79.89,31.8,80.427,32.087,81.395 M112.726,59.783c0.25,0.968-0.322,1.935-1.291,2.186
		c-0.931,0.251-1.935-0.287-2.186-1.254c-0.251-0.968,0.323-1.936,1.29-2.187C111.471,58.278,112.475,58.815,112.726,59.783
		 M36.065,91.035c0.502,0.86,0.215,1.936-0.645,2.438s-1.971,0.215-2.473-0.646c-0.466-0.859-0.179-1.971,0.681-2.437
		C34.488,89.889,35.563,90.176,36.065,91.035 M108.353,49.282c0.503,0.86,0.216,1.971-0.645,2.437
		c-0.86,0.502-1.935,0.215-2.437-0.645c-0.503-0.86-0.216-1.936,0.645-2.437C106.776,48.135,107.887,48.422,108.353,49.282
		 M42.408,99.314c0.717,0.681,0.717,1.828,0,2.509c-0.681,0.716-1.827,0.716-2.508,0c-0.717-0.681-0.717-1.828,0-2.509
		C40.581,98.598,41.727,98.598,42.408,99.314 M101.436,40.286c0.718,0.681,0.718,1.828,0,2.509c-0.681,0.717-1.827,0.717-2.509,0
		c-0.716-0.681-0.716-1.828,0-2.509C99.608,39.569,100.755,39.569,101.436,40.286 M50.687,105.657
		c0.861,0.502,1.147,1.577,0.645,2.438c-0.465,0.86-1.576,1.146-2.437,0.646c-0.86-0.466-1.146-1.577-0.645-2.437
		C48.752,105.442,49.827,105.156,50.687,105.657 M92.44,33.333c0.86,0.502,1.146,1.613,0.646,2.473
		c-0.502,0.86-1.577,1.147-2.438,0.645c-0.86-0.501-1.146-1.577-0.646-2.437C90.469,33.154,91.58,32.867,92.44,33.333
		 M60.328,109.637c0.968,0.25,1.505,1.254,1.255,2.186c-0.251,0.967-1.219,1.541-2.187,1.29c-0.967-0.251-1.505-1.254-1.254-2.186
		C58.393,109.958,59.361,109.386,60.328,109.637 M81.939,28.998c0.932,0.251,1.506,1.254,1.255,2.186
		c-0.251,0.968-1.22,1.541-2.187,1.29c-0.968-0.251-1.542-1.254-1.255-2.222C80.004,29.319,80.972,28.747,81.939,28.998
		 M70.65,110.998c1.003,0,1.792,0.824,1.792,1.791c0,1.004-0.789,1.792-1.792,1.792c-0.968,0-1.792-0.788-1.792-1.792
		C68.858,111.822,69.682,110.998,70.65,110.998 M83.481,63.583c0.501,0.86,0.215,1.935-0.646,2.401
		c-0.824,0.502-1.935,0.215-2.401-0.645c-0.502-0.824-0.215-1.9,0.646-2.401C81.904,62.436,83.015,62.758,83.481,63.583
		 M70.865,56.306c0.968,0,1.756,0.789,1.756,1.757c0,0.967-0.788,1.756-1.756,1.756c-0.968,0-1.756-0.789-1.756-1.756
		C69.109,57.095,69.897,56.306,70.865,56.306 M61.296,65.338c-0.466,0.86-1.577,1.147-2.401,0.645
		c-0.861-0.466-1.147-1.541-0.645-2.401c0.465-0.824,1.576-1.147,2.401-0.645C61.511,63.438,61.798,64.514,61.296,65.338
		 M61.296,76.377c0.502,0.86,0.215,1.936-0.645,2.438c-0.825,0.466-1.936,0.179-2.401-0.646c-0.502-0.86-0.216-1.936,0.645-2.438
		C59.719,75.267,60.83,75.553,61.296,76.377 M70.865,81.896c0.968,0,1.756,0.788,1.756,1.792c0,0.967-0.788,1.756-1.756,1.756
		c-0.968,0-1.756-0.789-1.756-1.756C69.109,82.685,69.897,81.896,70.865,81.896 M83.481,78.169
		c-0.467,0.824-1.577,1.111-2.402,0.646c-0.86-0.502-1.147-1.577-0.646-2.438c0.467-0.824,1.577-1.11,2.401-0.646
		C83.696,76.233,83.982,77.309,83.481,78.169 M58.572,48.673c0.789-4.229,2.186-10.609,5.591-13.548
		c2.473-2.15,4.803-1.648,7.741-1.613c1.899,0,3.799,0.036,5.663,0.036c0.788,0.036,1.541,0.072,2.294,0.18
		c2.149,0.322,4.121,1.505,3.799,4.014c-0.323,2.616-2.115,3.046-4.05,4.193c-5.233,3.118-9.893,7.06-14.049,11.504
		c-0.753,0.825-1.649,1.936-2.581,2.545c-1.828,1.183-3.906,0.645-4.623-1.505C57.676,52.472,58.214,50.68,58.572,48.673
		 M83.158,93.042c-0.789,4.266-2.187,10.608-5.591,13.583c-2.474,2.15-4.803,1.649-7.741,1.613c-1.9-0.036-3.799-0.036-5.663-0.072
		c-0.788,0-1.541-0.036-2.294-0.143c-2.15-0.359-4.121-1.505-3.799-4.014c0.323-2.616,2.115-3.048,4.05-4.193
		c5.233-3.118,9.892-7.062,14.049-11.541c0.753-0.824,1.649-1.899,2.581-2.509c1.828-1.183,3.906-0.646,4.623,1.47
		C84.054,89.243,83.516,91.071,83.158,93.042 M83.946,49.138c4.05-1.433,10.286-3.404,14.551-1.935
		c3.047,1.04,3.799,3.297,5.233,5.878c0.932,1.648,1.863,3.297,2.795,4.946c1.291,2.293,2.796,5.985-0.573,7.347
		c-2.438,1.039-3.692-0.287-5.663-1.398c-5.304-2.975-11.038-5.017-16.988-6.415c-1.11-0.251-2.508-0.43-3.476-0.968
		c-1.936-1.003-2.509-3.082-1.039-4.767C80.183,50.25,82.047,49.819,83.946,49.138 M57.784,92.612
		c-4.05,1.433-10.286,3.405-14.551,1.936c-3.047-1.075-3.799-3.298-5.233-5.879c-0.932-1.647-1.863-3.297-2.795-4.944
		c-1.291-2.294-2.796-5.986,0.573-7.383c2.437-1.005,3.692,0.321,5.663,1.396c5.304,3.011,11.038,5.054,16.988,6.416
		c1.111,0.251,2.508,0.466,3.476,1.003c1.935,1.004,2.509,3.082,1.039,4.768C61.547,91.501,59.683,91.932,57.784,92.612
		 M96.204,71.323c3.297,2.796,8.099,7.204,8.959,11.612c0.646,3.189-0.931,4.981-2.438,7.525c-0.967,1.613-1.935,3.263-2.902,4.875
		c-1.362,2.259-3.799,5.376-6.666,3.189c-2.114-1.612-1.577-3.369-1.613-5.591c-0.071-6.128-1.182-12.113-2.938-17.919
		c-0.323-1.111-0.861-2.402-0.896-3.548c-0.108-2.151,1.397-3.692,3.619-3.262C93.372,68.635,94.698,70.033,96.204,71.323
		 M45.526,70.427c-3.297-2.795-8.099-7.204-8.959-11.648c-0.646-3.154,0.931-4.946,2.437-7.49c0.967-1.613,1.935-3.262,2.903-4.874
		c1.362-2.258,3.799-5.412,6.666-3.19c2.114,1.613,1.577,3.369,1.613,5.591c0.071,6.093,1.182,12.114,2.938,17.92
		c0.323,1.075,0.861,2.401,0.896,3.512c0.108,2.186-1.397,3.727-3.619,3.261C48.358,73.115,47.032,71.718,45.526,70.427
		 M70.865,62.65c4.552,0,8.243,3.691,8.243,8.207c0,4.552-3.691,8.243-8.243,8.243c-4.552,0-8.243-3.691-8.243-8.243
		C62.622,66.341,66.313,62.65,70.865,62.65"/>
</g>
</svg>
